<?xml version="1.0" encoding="utf-8" standalone="no"?>
<!DOCTYPE svg PUBLIC "-//W3C//DTD SVG 1.1//EN"
  "http://www.w3.org/Graphics/SVG/1.1/DTD/svg11.dtd">
<svg height="360pt" version="1.1" viewBox="0 0 360 360" width="360pt" xmlns="http://www.w3.org/2000/svg" xmlns:xlink="http://www.w3.org/1999/xlink">
 <metadata>
  <rdf:RDF xmlns:cc="http://creativecommons.org/ns#" xmlns:dc="http://purl.org/dc/elements/1.1/" xmlns:rdf="http://www.w3.org/1999/02/22-rdf-syntax-ns#">
   <cc:Work>
    <dc:type rdf:resource="http://purl.org/dc/dcmitype/StillImage"/>
    <dc:date>2026-04-25T21:18:44.970537</dc:date>
    <dc:format>image/svg+xml</dc:format>
    <dc:creator>
     <cc:Agent>
      <dc:title>Matplotlib v3.4.3, https://matplotlib.org/</dc:title>
     </cc:Agent>
    </dc:creator>
   </cc:Work>
  </rdf:RDF>
 </metadata>
 <defs>
  <style type="text/css">*{stroke-linecap:butt;stroke-linejoin:round;}</style>
 </defs>
 <g id="figure_1">
  <g id="patch_1">
   <path d="M 0 360 
L 360 360 
L 360 0 
L 0 0 
z
" style="fill:none;"/>
  </g>
  <g id="axes_1">
   <g id="patch_2">
    <path d="M 67.75 296.1 
L 349.2 296.1 
L 349.2 13.965831 
L 67.75 13.965831 
z
" style="fill:#ffffff;"/>
   </g>
   <g id="matplotlib.axis_1">
    <g id="xtick_1">
     <g id="line2d_1">
      <defs>
       <path d="M 0 0 
L 0 3.5 
" id="m26782a7e62" style="stroke:#000000;stroke-width:0.8;"/>
      </defs>
      <g>
       <use style="stroke:#000000;stroke-width:0.8;" x="80.543182" xlink:href="#m26782a7e62" y="296.1"/>
      </g>
     </g>
     <g id="text_1">
      <!-- 1 -->
      <g transform="translate(74.816932 316.777187)scale(0.18 -0.18)">
       <defs>
        <path d="M 794 531 
L 1825 531 
L 1825 4091 
L 703 3866 
L 703 4441 
L 1819 4666 
L 2450 4666 
L 2450 531 
L 3481 531 
L 3481 0 
L 794 0 
L 794 531 
z
" id="DejaVuSans-31" transform="scale(0.015625)"/>
       </defs>
       <use xlink:href="#DejaVuSans-31"/>
      </g>
     </g>
    </g>
    <g id="xtick_2">
     <g id="line2d_2">
      <g>
       <use style="stroke:#000000;stroke-width:0.8;" x="144.509091" xlink:href="#m26782a7e62" y="296.1"/>
      </g>
     </g>
     <g id="text_2">
      <!-- 2 -->
      <g transform="translate(138.782841 316.777187)scale(0.18 -0.18)">
       <defs>
        <path d="M 1228 531 
L 3431 531 
L 3431 0 
L 469 0 
L 469 531 
Q 828 903 1448 1529 
Q 2069 2156 2228 2338 
Q 2531 2678 2651 2914 
Q 2772 3150 2772 3378 
Q 2772 3750 2511 3984 
Q 2250 4219 1831 4219 
Q 1534 4219 1204 4116 
Q 875 4013 500 3803 
L 500 4441 
Q 881 4594 1212 4672 
Q 1544 4750 1819 4750 
Q 2544 4750 2975 4387 
Q 3406 4025 3406 3419 
Q 3406 3131 3298 2873 
Q 3191 2616 2906 2266 
Q 2828 2175 2409 1742 
Q 1991 1309 1228 531 
z
" id="DejaVuSans-32" transform="scale(0.015625)"/>
       </defs>
       <use xlink:href="#DejaVuSans-32"/>
      </g>
     </g>
    </g>
    <g id="xtick_3">
     <g id="line2d_3">
      <g>
       <use style="stroke:#000000;stroke-width:0.8;" x="208.475" xlink:href="#m26782a7e62" y="296.1"/>
      </g>
     </g>
     <g id="text_3">
      <!-- 3 -->
      <g transform="translate(202.74875 316.777187)scale(0.18 -0.18)">
       <defs>
        <path d="M 2597 2516 
Q 3050 2419 3304 2112 
Q 3559 1806 3559 1356 
Q 3559 666 3084 287 
Q 2609 -91 1734 -91 
Q 1441 -91 1130 -33 
Q 819 25 488 141 
L 488 750 
Q 750 597 1062 519 
Q 1375 441 1716 441 
Q 2309 441 2620 675 
Q 2931 909 2931 1356 
Q 2931 1769 2642 2001 
Q 2353 2234 1838 2234 
L 1294 2234 
L 1294 2753 
L 1863 2753 
Q 2328 2753 2575 2939 
Q 2822 3125 2822 3475 
Q 2822 3834 2567 4026 
Q 2313 4219 1838 4219 
Q 1578 4219 1281 4162 
Q 984 4106 628 3988 
L 628 4550 
Q 988 4650 1302 4700 
Q 1616 4750 1894 4750 
Q 2613 4750 3031 4423 
Q 3450 4097 3450 3541 
Q 3450 3153 3228 2886 
Q 3006 2619 2597 2516 
z
" id="DejaVuSans-33" transform="scale(0.015625)"/>
       </defs>
       <use xlink:href="#DejaVuSans-33"/>
      </g>
     </g>
    </g>
    <g id="xtick_4">
     <g id="line2d_4">
      <g>
       <use style="stroke:#000000;stroke-width:0.8;" x="336.406818" xlink:href="#m26782a7e62" y="296.1"/>
      </g>
     </g>
     <g id="text_4">
      <!-- 5 -->
      <g transform="translate(330.680568 316.777187)scale(0.18 -0.18)">
       <defs>
        <path d="M 691 4666 
L 3169 4666 
L 3169 4134 
L 1269 4134 
L 1269 2991 
Q 1406 3038 1543 3061 
Q 1681 3084 1819 3084 
Q 2600 3084 3056 2656 
Q 3513 2228 3513 1497 
Q 3513 744 3044 326 
Q 2575 -91 1722 -91 
Q 1428 -91 1123 -41 
Q 819 9 494 109 
L 494 744 
Q 775 591 1075 516 
Q 1375 441 1709 441 
Q 2250 441 2565 725 
Q 2881 1009 2881 1497 
Q 2881 1984 2565 2268 
Q 2250 2553 1709 2553 
Q 1456 2553 1204 2497 
Q 953 2441 691 2322 
L 691 4666 
z
" id="DejaVuSans-35" transform="scale(0.015625)"/>
       </defs>
       <use xlink:href="#DejaVuSans-35"/>
      </g>
     </g>
    </g>
    <g id="text_5">
     <!-- $\mathrm{Mg}^{2+}$ (mM) -->
     <g transform="translate(156.455 340.900625)scale(0.18 -0.18)">
      <defs>
       <path d="M 628 4666 
L 1569 4666 
L 2759 1491 
L 3956 4666 
L 4897 4666 
L 4897 0 
L 4281 0 
L 4281 4097 
L 3078 897 
L 2444 897 
L 1241 4097 
L 1241 0 
L 628 0 
L 628 4666 
z
" id="DejaVuSans-4d" transform="scale(0.015625)"/>
       <path d="M 2906 1791 
Q 2906 2416 2648 2759 
Q 2391 3103 1925 3103 
Q 1463 3103 1205 2759 
Q 947 2416 947 1791 
Q 947 1169 1205 825 
Q 1463 481 1925 481 
Q 2391 481 2648 825 
Q 2906 1169 2906 1791 
z
M 3481 434 
Q 3481 -459 3084 -895 
Q 2688 -1331 1869 -1331 
Q 1566 -1331 1297 -1286 
Q 1028 -1241 775 -1147 
L 775 -588 
Q 1028 -725 1275 -790 
Q 1522 -856 1778 -856 
Q 2344 -856 2625 -561 
Q 2906 -266 2906 331 
L 2906 616 
Q 2728 306 2450 153 
Q 2172 0 1784 0 
Q 1141 0 747 490 
Q 353 981 353 1791 
Q 353 2603 747 3093 
Q 1141 3584 1784 3584 
Q 2172 3584 2450 3431 
Q 2728 3278 2906 2969 
L 2906 3500 
L 3481 3500 
L 3481 434 
z
" id="DejaVuSans-67" transform="scale(0.015625)"/>
       <path d="M 2944 4013 
L 2944 2272 
L 4684 2272 
L 4684 1741 
L 2944 1741 
L 2944 0 
L 2419 0 
L 2419 1741 
L 678 1741 
L 678 2272 
L 2419 2272 
L 2419 4013 
L 2944 4013 
z
" id="DejaVuSans-2b" transform="scale(0.015625)"/>
       <path id="DejaVuSans-20" transform="scale(0.015625)"/>
       <path d="M 1984 4856 
Q 1566 4138 1362 3434 
Q 1159 2731 1159 2009 
Q 1159 1288 1364 580 
Q 1569 -128 1984 -844 
L 1484 -844 
Q 1016 -109 783 600 
Q 550 1309 550 2009 
Q 550 2706 781 3412 
Q 1013 4119 1484 4856 
L 1984 4856 
z
" id="DejaVuSans-28" transform="scale(0.015625)"/>
       <path d="M 3328 2828 
Q 3544 3216 3844 3400 
Q 4144 3584 4550 3584 
Q 5097 3584 5394 3201 
Q 5691 2819 5691 2113 
L 5691 0 
L 5113 0 
L 5113 2094 
Q 5113 2597 4934 2840 
Q 4756 3084 4391 3084 
Q 3944 3084 3684 2787 
Q 3425 2491 3425 1978 
L 3425 0 
L 2847 0 
L 2847 2094 
Q 2847 2600 2669 2842 
Q 2491 3084 2119 3084 
Q 1678 3084 1418 2786 
Q 1159 2488 1159 1978 
L 1159 0 
L 581 0 
L 581 3500 
L 1159 3500 
L 1159 2956 
Q 1356 3278 1631 3431 
Q 1906 3584 2284 3584 
Q 2666 3584 2933 3390 
Q 3200 3197 3328 2828 
z
" id="DejaVuSans-6d" transform="scale(0.015625)"/>
       <path d="M 513 4856 
L 1013 4856 
Q 1481 4119 1714 3412 
Q 1947 2706 1947 2009 
Q 1947 1309 1714 600 
Q 1481 -109 1013 -844 
L 513 -844 
Q 928 -128 1133 580 
Q 1338 1288 1338 2009 
Q 1338 2731 1133 3434 
Q 928 4138 513 4856 
z
" id="DejaVuSans-29" transform="scale(0.015625)"/>
      </defs>
      <use transform="translate(0 0.765625)" xlink:href="#DejaVuSans-4d"/>
      <use transform="translate(86.279297 0.765625)" xlink:href="#DejaVuSans-67"/>
      <use transform="translate(150.712891 39.046875)scale(0.7)" xlink:href="#DejaVuSans-32"/>
      <use transform="translate(208.886719 39.046875)scale(0.7)" xlink:href="#DejaVuSans-2b"/>
      <use transform="translate(283.911133 0.765625)" xlink:href="#DejaVuSans-20"/>
      <use transform="translate(315.698242 0.765625)" xlink:href="#DejaVuSans-28"/>
      <use transform="translate(354.711914 0.765625)" xlink:href="#DejaVuSans-6d"/>
      <use transform="translate(452.124023 0.765625)" xlink:href="#DejaVuSans-4d"/>
      <use transform="translate(538.40332 0.765625)" xlink:href="#DejaVuSans-29"/>
     </g>
    </g>
   </g>
   <g id="matplotlib.axis_2">
    <g id="ytick_1">
     <g id="line2d_5">
      <defs>
       <path d="M 0 0 
L -3.5 0 
" id="mf829e99a7f" style="stroke:#000000;stroke-width:0.8;"/>
      </defs>
      <g>
       <use style="stroke:#000000;stroke-width:0.8;" x="67.75" xlink:href="#mf829e99a7f" y="287.590028"/>
      </g>
     </g>
     <g id="text_6">
      <!-- 6 -->
      <g transform="translate(49.2975 294.428621)scale(0.18 -0.18)">
       <defs>
        <path d="M 2113 2584 
Q 1688 2584 1439 2293 
Q 1191 2003 1191 1497 
Q 1191 994 1439 701 
Q 1688 409 2113 409 
Q 2538 409 2786 701 
Q 3034 994 3034 1497 
Q 3034 2003 2786 2293 
Q 2538 2584 2113 2584 
z
M 3366 4563 
L 3366 3988 
Q 3128 4100 2886 4159 
Q 2644 4219 2406 4219 
Q 1781 4219 1451 3797 
Q 1122 3375 1075 2522 
Q 1259 2794 1537 2939 
Q 1816 3084 2150 3084 
Q 2853 3084 3261 2657 
Q 3669 2231 3669 1497 
Q 3669 778 3244 343 
Q 2819 -91 2113 -91 
Q 1303 -91 875 529 
Q 447 1150 447 2328 
Q 447 3434 972 4092 
Q 1497 4750 2381 4750 
Q 2619 4750 2861 4703 
Q 3103 4656 3366 4563 
z
" id="DejaVuSans-36" transform="scale(0.015625)"/>
       </defs>
       <use xlink:href="#DejaVuSans-36"/>
      </g>
     </g>
    </g>
    <g id="ytick_2">
     <g id="line2d_6">
      <g>
       <use style="stroke:#000000;stroke-width:0.8;" x="67.75" xlink:href="#mf829e99a7f" y="233.661178"/>
      </g>
     </g>
     <g id="text_7">
      <!-- 7 -->
      <g transform="translate(49.2975 240.499772)scale(0.18 -0.18)">
       <defs>
        <path d="M 525 4666 
L 3525 4666 
L 3525 4397 
L 1831 0 
L 1172 0 
L 2766 4134 
L 525 4134 
L 525 4666 
z
" id="DejaVuSans-37" transform="scale(0.015625)"/>
       </defs>
       <use xlink:href="#DejaVuSans-37"/>
      </g>
     </g>
    </g>
    <g id="ytick_3">
     <g id="line2d_7">
      <g>
       <use style="stroke:#000000;stroke-width:0.8;" x="67.75" xlink:href="#mf829e99a7f" y="179.732328"/>
      </g>
     </g>
     <g id="text_8">
      <!-- 8 -->
      <g transform="translate(49.2975 186.570922)scale(0.18 -0.18)">
       <defs>
        <path d="M 2034 2216 
Q 1584 2216 1326 1975 
Q 1069 1734 1069 1313 
Q 1069 891 1326 650 
Q 1584 409 2034 409 
Q 2484 409 2743 651 
Q 3003 894 3003 1313 
Q 3003 1734 2745 1975 
Q 2488 2216 2034 2216 
z
M 1403 2484 
Q 997 2584 770 2862 
Q 544 3141 544 3541 
Q 544 4100 942 4425 
Q 1341 4750 2034 4750 
Q 2731 4750 3128 4425 
Q 3525 4100 3525 3541 
Q 3525 3141 3298 2862 
Q 3072 2584 2669 2484 
Q 3125 2378 3379 2068 
Q 3634 1759 3634 1313 
Q 3634 634 3220 271 
Q 2806 -91 2034 -91 
Q 1263 -91 848 271 
Q 434 634 434 1313 
Q 434 1759 690 2068 
Q 947 2378 1403 2484 
z
M 1172 3481 
Q 1172 3119 1398 2916 
Q 1625 2713 2034 2713 
Q 2441 2713 2670 2916 
Q 2900 3119 2900 3481 
Q 2900 3844 2670 4047 
Q 2441 4250 2034 4250 
Q 1625 4250 1398 4047 
Q 1172 3844 1172 3481 
z
" id="DejaVuSans-38" transform="scale(0.015625)"/>
       </defs>
       <use xlink:href="#DejaVuSans-38"/>
      </g>
     </g>
    </g>
    <g id="ytick_4">
     <g id="line2d_8">
      <g>
       <use style="stroke:#000000;stroke-width:0.8;" x="67.75" xlink:href="#mf829e99a7f" y="125.803479"/>
      </g>
     </g>
     <g id="text_9">
      <!-- 9 -->
      <g transform="translate(49.2975 132.642073)scale(0.18 -0.18)">
       <defs>
        <path d="M 703 97 
L 703 672 
Q 941 559 1184 500 
Q 1428 441 1663 441 
Q 2288 441 2617 861 
Q 2947 1281 2994 2138 
Q 2813 1869 2534 1725 
Q 2256 1581 1919 1581 
Q 1219 1581 811 2004 
Q 403 2428 403 3163 
Q 403 3881 828 4315 
Q 1253 4750 1959 4750 
Q 2769 4750 3195 4129 
Q 3622 3509 3622 2328 
Q 3622 1225 3098 567 
Q 2575 -91 1691 -91 
Q 1453 -91 1209 -44 
Q 966 3 703 97 
z
M 1959 2075 
Q 2384 2075 2632 2365 
Q 2881 2656 2881 3163 
Q 2881 3666 2632 3958 
Q 2384 4250 1959 4250 
Q 1534 4250 1286 3958 
Q 1038 3666 1038 3163 
Q 1038 2656 1286 2365 
Q 1534 2075 1959 2075 
z
" id="DejaVuSans-39" transform="scale(0.015625)"/>
       </defs>
       <use xlink:href="#DejaVuSans-39"/>
      </g>
     </g>
    </g>
    <g id="ytick_5">
     <g id="line2d_9">
      <g>
       <use style="stroke:#000000;stroke-width:0.8;" x="67.75" xlink:href="#mf829e99a7f" y="71.874629"/>
      </g>
     </g>
     <g id="text_10">
      <!-- 10 -->
      <g transform="translate(37.845 78.713223)scale(0.18 -0.18)">
       <defs>
        <path d="M 2034 4250 
Q 1547 4250 1301 3770 
Q 1056 3291 1056 2328 
Q 1056 1369 1301 889 
Q 1547 409 2034 409 
Q 2525 409 2770 889 
Q 3016 1369 3016 2328 
Q 3016 3291 2770 3770 
Q 2525 4250 2034 4250 
z
M 2034 4750 
Q 2819 4750 3233 4129 
Q 3647 3509 3647 2328 
Q 3647 1150 3233 529 
Q 2819 -91 2034 -91 
Q 1250 -91 836 529 
Q 422 1150 422 2328 
Q 422 3509 836 4129 
Q 1250 4750 2034 4750 
z
" id="DejaVuSans-30" transform="scale(0.015625)"/>
       </defs>
       <use xlink:href="#DejaVuSans-31"/>
       <use x="63.623047" xlink:href="#DejaVuSans-30"/>
      </g>
     </g>
    </g>
    <g id="ytick_6">
     <g id="line2d_10">
      <g>
       <use style="stroke:#000000;stroke-width:0.8;" x="67.75" xlink:href="#mf829e99a7f" y="17.94578"/>
      </g>
     </g>
     <g id="text_11">
      <!-- 11 -->
      <g transform="translate(37.845 24.784374)scale(0.18 -0.18)">
       <use xlink:href="#DejaVuSans-31"/>
       <use x="63.623047" xlink:href="#DejaVuSans-31"/>
      </g>
     </g>
    </g>
    <g id="text_12">
     <!-- $\Gamma_{{\mathrm{Mg}}^{2+}}$ -->
     <g transform="translate(28.265 178.342915)rotate(-90)scale(0.18 -0.18)">
      <defs>
       <path d="M 628 0 
L 628 4666 
L 3531 4666 
L 3531 4134 
L 1259 4134 
L 1259 0 
L 628 0 
z
" id="DejaVuSans-393" transform="scale(0.015625)"/>
      </defs>
      <use transform="translate(0 0.09375)" xlink:href="#DejaVuSans-393"/>
      <use transform="translate(56.669922 -16.3125)scale(0.7)" xlink:href="#DejaVuSans-4d"/>
      <use transform="translate(117.06543 -16.3125)scale(0.7)" xlink:href="#DejaVuSans-67"/>
      <use transform="translate(162.168945 10.484375)scale(0.49)" xlink:href="#DejaVuSans-32"/>
      <use transform="translate(202.890625 10.484375)scale(0.49)" xlink:href="#DejaVuSans-2b"/>
     </g>
    </g>
   </g>
   <g id="LineCollection_1">
    <path clip-path="url(#pe0e0aee600)" d="M 80.543182 283.27572 
L 80.543182 274.647104 
" style="fill:none;stroke:#c44e52;stroke-width:1.5;"/>
    <path clip-path="url(#pe0e0aee600)" d="M 144.509091 185.664502 
L 144.509091 177.035886 
" style="fill:none;stroke:#c44e52;stroke-width:1.5;"/>
    <path clip-path="url(#pe0e0aee600)" d="M 208.475 134.432095 
L 208.475 120.410594 
" style="fill:none;stroke:#c44e52;stroke-width:1.5;"/>
   </g>
   <g id="LineCollection_2">
    <path clip-path="url(#pe0e0aee600)" d="M 80.543182 250.379121 
L 80.543182 248.54554 
" style="fill:none;stroke:#c44e52;stroke-width:1.5;"/>
    <path clip-path="url(#pe0e0aee600)" d="M 144.509091 146.242513 
L 144.509091 145.487509 
" style="fill:none;stroke:#c44e52;stroke-width:1.5;"/>
    <path clip-path="url(#pe0e0aee600)" d="M 208.475 90.534011 
L 208.475 87.729711 
" style="fill:none;stroke:#c44e52;stroke-width:1.5;"/>
    <path clip-path="url(#pe0e0aee600)" d="M 336.406818 33.045858 
L 336.406818 27.652973 
" style="fill:none;stroke:#c44e52;stroke-width:1.5;"/>
   </g>
   <g id="LineCollection_3">
    <path clip-path="url(#pe0e0aee600)" d="M 80.543182 194.832406 
L 80.543182 186.20379 
" style="fill:none;stroke:#4c72b0;stroke-width:1.5;"/>
    <path clip-path="url(#pe0e0aee600)" d="M 144.509091 117.174863 
L 144.509091 103.153362 
" style="fill:none;stroke:#4c72b0;stroke-width:1.5;"/>
    <path clip-path="url(#pe0e0aee600)" d="M 208.475 55.695974 
L 208.475 38.438743 
" style="fill:none;stroke:#4c72b0;stroke-width:1.5;"/>
   </g>
   <g id="LineCollection_4">
    <path clip-path="url(#pe0e0aee600)" d="M 80.543182 250.109477 
L 80.543182 247.305177 
" style="fill:none;stroke:#4c72b0;stroke-width:1.5;"/>
    <path clip-path="url(#pe0e0aee600)" d="M 144.509091 146.512157 
L 144.509091 145.110007 
" style="fill:none;stroke:#4c72b0;stroke-width:1.5;"/>
    <path clip-path="url(#pe0e0aee600)" d="M 208.475 95.117964 
L 208.475 91.774375 
" style="fill:none;stroke:#4c72b0;stroke-width:1.5;"/>
    <path clip-path="url(#pe0e0aee600)" d="M 336.406818 28.192261 
L 336.406818 26.790111 
" style="fill:none;stroke:#4c72b0;stroke-width:1.5;"/>
   </g>
   <g id="line2d_11">
    <defs>
     <path d="M 5 0 
L -5 -0 
" id="m301d363401" style="stroke:#c44e52;stroke-width:1.5;"/>
    </defs>
    <g clip-path="url(#pe0e0aee600)">
     <use style="fill:#c44e52;stroke:#c44e52;stroke-width:1.5;" x="80.543182" xlink:href="#m301d363401" y="283.27572"/>
     <use style="fill:#c44e52;stroke:#c44e52;stroke-width:1.5;" x="144.509091" xlink:href="#m301d363401" y="185.664502"/>
     <use style="fill:#c44e52;stroke:#c44e52;stroke-width:1.5;" x="208.475" xlink:href="#m301d363401" y="134.432095"/>
    </g>
   </g>
   <g id="line2d_12">
    <g clip-path="url(#pe0e0aee600)">
     <use style="fill:#c44e52;stroke:#c44e52;stroke-width:1.5;" x="80.543182" xlink:href="#m301d363401" y="274.647104"/>
     <use style="fill:#c44e52;stroke:#c44e52;stroke-width:1.5;" x="144.509091" xlink:href="#m301d363401" y="177.035886"/>
     <use style="fill:#c44e52;stroke:#c44e52;stroke-width:1.5;" x="208.475" xlink:href="#m301d363401" y="120.410594"/>
    </g>
   </g>
   <g id="line2d_13">
    <g clip-path="url(#pe0e0aee600)">
     <use style="fill:#c44e52;stroke:#c44e52;stroke-width:1.5;" x="80.543182" xlink:href="#m301d363401" y="250.379121"/>
     <use style="fill:#c44e52;stroke:#c44e52;stroke-width:1.5;" x="144.509091" xlink:href="#m301d363401" y="146.242513"/>
     <use style="fill:#c44e52;stroke:#c44e52;stroke-width:1.5;" x="208.475" xlink:href="#m301d363401" y="90.534011"/>
     <use style="fill:#c44e52;stroke:#c44e52;stroke-width:1.5;" x="336.406818" xlink:href="#m301d363401" y="33.045858"/>
    </g>
   </g>
   <g id="line2d_14">
    <g clip-path="url(#pe0e0aee600)">
     <use style="fill:#c44e52;stroke:#c44e52;stroke-width:1.5;" x="80.543182" xlink:href="#m301d363401" y="248.54554"/>
     <use style="fill:#c44e52;stroke:#c44e52;stroke-width:1.5;" x="144.509091" xlink:href="#m301d363401" y="145.487509"/>
     <use style="fill:#c44e52;stroke:#c44e52;stroke-width:1.5;" x="208.475" xlink:href="#m301d363401" y="87.729711"/>
     <use style="fill:#c44e52;stroke:#c44e52;stroke-width:1.5;" x="336.406818" xlink:href="#m301d363401" y="27.652973"/>
    </g>
   </g>
   <g id="line2d_15">
    <defs>
     <path d="M 5 0 
L -5 -0 
" id="m9141a18452" style="stroke:#4c72b0;stroke-width:1.5;"/>
    </defs>
    <g clip-path="url(#pe0e0aee600)">
     <use style="fill:#4c72b0;stroke:#4c72b0;stroke-width:1.5;" x="80.543182" xlink:href="#m9141a18452" y="194.832406"/>
     <use style="fill:#4c72b0;stroke:#4c72b0;stroke-width:1.5;" x="144.509091" xlink:href="#m9141a18452" y="117.174863"/>
     <use style="fill:#4c72b0;stroke:#4c72b0;stroke-width:1.5;" x="208.475" xlink:href="#m9141a18452" y="55.695974"/>
    </g>
   </g>
   <g id="line2d_16">
    <g clip-path="url(#pe0e0aee600)">
     <use style="fill:#4c72b0;stroke:#4c72b0;stroke-width:1.5;" x="80.543182" xlink:href="#m9141a18452" y="186.20379"/>
     <use style="fill:#4c72b0;stroke:#4c72b0;stroke-width:1.5;" x="144.509091" xlink:href="#m9141a18452" y="103.153362"/>
     <use style="fill:#4c72b0;stroke:#4c72b0;stroke-width:1.5;" x="208.475" xlink:href="#m9141a18452" y="38.438743"/>
    </g>
   </g>
   <g id="line2d_17">
    <g clip-path="url(#pe0e0aee600)">
     <use style="fill:#4c72b0;stroke:#4c72b0;stroke-width:1.5;" x="80.543182" xlink:href="#m9141a18452" y="250.109477"/>
     <use style="fill:#4c72b0;stroke:#4c72b0;stroke-width:1.5;" x="144.509091" xlink:href="#m9141a18452" y="146.512157"/>
     <use style="fill:#4c72b0;stroke:#4c72b0;stroke-width:1.5;" x="208.475" xlink:href="#m9141a18452" y="95.117964"/>
     <use style="fill:#4c72b0;stroke:#4c72b0;stroke-width:1.5;" x="336.406818" xlink:href="#m9141a18452" y="28.192261"/>
    </g>
   </g>
   <g id="line2d_18">
    <g clip-path="url(#pe0e0aee600)">
     <use style="fill:#4c72b0;stroke:#4c72b0;stroke-width:1.5;" x="80.543182" xlink:href="#m9141a18452" y="247.305177"/>
     <use style="fill:#4c72b0;stroke:#4c72b0;stroke-width:1.5;" x="144.509091" xlink:href="#m9141a18452" y="145.110007"/>
     <use style="fill:#4c72b0;stroke:#4c72b0;stroke-width:1.5;" x="208.475" xlink:href="#m9141a18452" y="91.774375"/>
     <use style="fill:#4c72b0;stroke:#4c72b0;stroke-width:1.5;" x="336.406818" xlink:href="#m9141a18452" y="26.790111"/>
    </g>
   </g>
   <g id="line2d_19">
    <path clip-path="url(#pe0e0aee600)" d="M 80.543182 278.961412 
L 144.509091 181.350194 
L 208.475 127.421344 
" style="fill:none;stroke:#c44e52;stroke-dasharray:5.55,2.4;stroke-dashoffset:0;stroke-width:1.5;"/>
    <defs>
     <path d="M 0 5 
C 1.326016 5 2.597899 4.473168 3.535534 3.535534 
C 4.473168 2.597899 5 1.326016 5 0 
C 5 -1.326016 4.473168 -2.597899 3.535534 -3.535534 
C 2.597899 -4.473168 1.326016 -5 0 -5 
C -1.326016 -5 -2.597899 -4.473168 -3.535534 -3.535534 
C -4.473168 -2.597899 -5 -1.326016 -5 0 
C -5 1.326016 -4.473168 2.597899 -3.535534 3.535534 
C -2.597899 4.473168 -1.326016 5 0 5 
z
" id="m96d298b5f3" style="stroke:#c44e52;stroke-width:1.5;"/>
    </defs>
    <g clip-path="url(#pe0e0aee600)">
     <use style="fill-opacity:0;stroke:#c44e52;stroke-width:1.5;" x="80.543182" xlink:href="#m96d298b5f3" y="278.961412"/>
     <use style="fill-opacity:0;stroke:#c44e52;stroke-width:1.5;" x="144.509091" xlink:href="#m96d298b5f3" y="181.350194"/>
     <use style="fill-opacity:0;stroke:#c44e52;stroke-width:1.5;" x="208.475" xlink:href="#m96d298b5f3" y="127.421344"/>
    </g>
   </g>
   <g id="line2d_20">
    <path clip-path="url(#pe0e0aee600)" d="M 80.543182 249.462331 
L 144.509091 145.865011 
L 208.475 89.131861 
L 336.406818 30.349415 
" style="fill:none;stroke:#c44e52;stroke-linecap:square;stroke-width:1.5;"/>
    <defs>
     <path d="M 0 5 
C 1.326016 5 2.597899 4.473168 3.535534 3.535534 
C 4.473168 2.597899 5 1.326016 5 0 
C 5 -1.326016 4.473168 -2.597899 3.535534 -3.535534 
C 2.597899 -4.473168 1.326016 -5 0 -5 
C -1.326016 -5 -2.597899 -4.473168 -3.535534 -3.535534 
C -4.473168 -2.597899 -5 -1.326016 -5 0 
C -5 1.326016 -4.473168 2.597899 -3.535534 3.535534 
C -2.597899 4.473168 -1.326016 5 0 5 
z
" id="mb49a6faf0f" style="stroke:#000000;stroke-opacity:0;stroke-width:1.5;"/>
    </defs>
    <g clip-path="url(#pe0e0aee600)">
     <use style="fill:#c44e52;stroke:#000000;stroke-opacity:0;stroke-width:1.5;" x="80.543182" xlink:href="#mb49a6faf0f" y="249.462331"/>
     <use style="fill:#c44e52;stroke:#000000;stroke-opacity:0;stroke-width:1.5;" x="144.509091" xlink:href="#mb49a6faf0f" y="145.865011"/>
     <use style="fill:#c44e52;stroke:#000000;stroke-opacity:0;stroke-width:1.5;" x="208.475" xlink:href="#mb49a6faf0f" y="89.131861"/>
     <use style="fill:#c44e52;stroke:#000000;stroke-opacity:0;stroke-width:1.5;" x="336.406818" xlink:href="#mb49a6faf0f" y="30.349415"/>
    </g>
   </g>
   <g id="line2d_21">
    <path clip-path="url(#pe0e0aee600)" d="M 80.543182 190.518098 
L 144.509091 110.164113 
L 208.475 47.067359 
" style="fill:none;stroke:#4c72b0;stroke-dasharray:5.55,2.4;stroke-dashoffset:0;stroke-width:1.5;"/>
    <defs>
     <path d="M 0 -5 
L -5 5 
L 5 5 
z
" id="m33a294e311" style="stroke:#4c72b0;stroke-linejoin:miter;stroke-width:1.5;"/>
    </defs>
    <g clip-path="url(#pe0e0aee600)">
     <use style="fill-opacity:0;stroke:#4c72b0;stroke-linejoin:miter;stroke-width:1.5;" x="80.543182" xlink:href="#m33a294e311" y="190.518098"/>
     <use style="fill-opacity:0;stroke:#4c72b0;stroke-linejoin:miter;stroke-width:1.5;" x="144.509091" xlink:href="#m33a294e311" y="110.164113"/>
     <use style="fill-opacity:0;stroke:#4c72b0;stroke-linejoin:miter;stroke-width:1.5;" x="208.475" xlink:href="#m33a294e311" y="47.067359"/>
    </g>
   </g>
   <g id="line2d_22">
    <path clip-path="url(#pe0e0aee600)" d="M 80.543182 248.707327 
L 144.509091 145.811082 
L 208.475 93.446169 
L 336.406818 27.491186 
" style="fill:none;stroke:#4c72b0;stroke-linecap:square;stroke-width:1.5;"/>
    <defs>
     <path d="M 0 -5 
L -5 5 
L 5 5 
z
" id="m8f13177b62" style="stroke:#000000;stroke-linejoin:miter;stroke-opacity:0;stroke-width:1.5;"/>
    </defs>
    <g clip-path="url(#pe0e0aee600)">
     <use style="fill:#4c72b0;stroke:#000000;stroke-linejoin:miter;stroke-opacity:0;stroke-width:1.5;" x="80.543182" xlink:href="#m8f13177b62" y="248.707327"/>
     <use style="fill:#4c72b0;stroke:#000000;stroke-linejoin:miter;stroke-opacity:0;stroke-width:1.5;" x="144.509091" xlink:href="#m8f13177b62" y="145.811082"/>
     <use style="fill:#4c72b0;stroke:#000000;stroke-linejoin:miter;stroke-opacity:0;stroke-width:1.5;" x="208.475" xlink:href="#m8f13177b62" y="93.446169"/>
     <use style="fill:#4c72b0;stroke:#000000;stroke-linejoin:miter;stroke-opacity:0;stroke-width:1.5;" x="336.406818" xlink:href="#m8f13177b62" y="27.491186"/>
    </g>
   </g>
   <g id="patch_3">
    <path d="M 67.75 296.1 
L 67.75 13.965831 
" style="fill:none;stroke:#000000;stroke-linecap:square;stroke-linejoin:miter;stroke-width:0.8;"/>
   </g>
   <g id="patch_4">
    <path d="M 349.2 296.1 
L 349.2 13.965831 
" style="fill:none;stroke:#000000;stroke-linecap:square;stroke-linejoin:miter;stroke-width:0.8;"/>
   </g>
   <g id="patch_5">
    <path d="M 67.75 296.1 
L 349.2 296.1 
" style="fill:none;stroke:#000000;stroke-linecap:square;stroke-linejoin:miter;stroke-width:0.8;"/>
   </g>
   <g id="patch_6">
    <path d="M 67.75 13.965831 
L 349.2 13.965831 
" style="fill:none;stroke:#000000;stroke-linecap:square;stroke-linejoin:miter;stroke-width:0.8;"/>
   </g>
   <g id="legend_1">
    <g id="LineCollection_5">
     <path d="M 241.12 220.98125 
L 241.12 206.98125 
" style="fill:none;stroke:#c44e52;stroke-width:1.5;"/>
    </g>
    <g id="line2d_23">
     <g>
      <use style="fill:#c44e52;stroke:#c44e52;stroke-width:1.5;" x="241.12" xlink:href="#m301d363401" y="220.98125"/>
     </g>
    </g>
    <g id="line2d_24">
     <g>
      <use style="fill:#c44e52;stroke:#c44e52;stroke-width:1.5;" x="241.12" xlink:href="#m301d363401" y="206.98125"/>
     </g>
    </g>
    <g id="line2d_25">
     <path d="M 227.12 213.98125 
L 255.12 213.98125 
" style="fill:none;stroke:#c44e52;stroke-dasharray:5.55,2.4;stroke-dashoffset:0;stroke-width:1.5;"/>
    </g>
    <g id="line2d_26">
     <g>
      <use style="fill-opacity:0;stroke:#c44e52;stroke-width:1.5;" x="241.12" xlink:href="#m96d298b5f3" y="213.98125"/>
     </g>
    </g>
    <g id="text_13">
     <!-- rU$_{30}$ (exp) -->
     <g transform="translate(266.32 218.88125)scale(0.14 -0.14)">
      <defs>
       <path d="M 2631 2963 
Q 2534 3019 2420 3045 
Q 2306 3072 2169 3072 
Q 1681 3072 1420 2755 
Q 1159 2438 1159 1844 
L 1159 0 
L 581 0 
L 581 3500 
L 1159 3500 
L 1159 2956 
Q 1341 3275 1631 3429 
Q 1922 3584 2338 3584 
Q 2397 3584 2469 3576 
Q 2541 3569 2628 3553 
L 2631 2963 
z
" id="DejaVuSans-72" transform="scale(0.015625)"/>
       <path d="M 556 4666 
L 1191 4666 
L 1191 1831 
Q 1191 1081 1462 751 
Q 1734 422 2344 422 
Q 2950 422 3222 751 
Q 3494 1081 3494 1831 
L 3494 4666 
L 4128 4666 
L 4128 1753 
Q 4128 841 3676 375 
Q 3225 -91 2344 -91 
Q 1459 -91 1007 375 
Q 556 841 556 1753 
L 556 4666 
z
" id="DejaVuSans-55" transform="scale(0.015625)"/>
       <path d="M 3597 1894 
L 3597 1613 
L 953 1613 
Q 991 1019 1311 708 
Q 1631 397 2203 397 
Q 2534 397 2845 478 
Q 3156 559 3463 722 
L 3463 178 
Q 3153 47 2828 -22 
Q 2503 -91 2169 -91 
Q 1331 -91 842 396 
Q 353 884 353 1716 
Q 353 2575 817 3079 
Q 1281 3584 2069 3584 
Q 2775 3584 3186 3129 
Q 3597 2675 3597 1894 
z
M 3022 2063 
Q 3016 2534 2758 2815 
Q 2500 3097 2075 3097 
Q 1594 3097 1305 2825 
Q 1016 2553 972 2059 
L 3022 2063 
z
" id="DejaVuSans-65" transform="scale(0.015625)"/>
       <path d="M 3513 3500 
L 2247 1797 
L 3578 0 
L 2900 0 
L 1881 1375 
L 863 0 
L 184 0 
L 1544 1831 
L 300 3500 
L 978 3500 
L 1906 2253 
L 2834 3500 
L 3513 3500 
z
" id="DejaVuSans-78" transform="scale(0.015625)"/>
       <path d="M 1159 525 
L 1159 -1331 
L 581 -1331 
L 581 3500 
L 1159 3500 
L 1159 2969 
Q 1341 3281 1617 3432 
Q 1894 3584 2278 3584 
Q 2916 3584 3314 3078 
Q 3713 2572 3713 1747 
Q 3713 922 3314 415 
Q 2916 -91 2278 -91 
Q 1894 -91 1617 61 
Q 1341 213 1159 525 
z
M 3116 1747 
Q 3116 2381 2855 2742 
Q 2594 3103 2138 3103 
Q 1681 3103 1420 2742 
Q 1159 2381 1159 1747 
Q 1159 1113 1420 752 
Q 1681 391 2138 391 
Q 2594 391 2855 752 
Q 3116 1113 3116 1747 
z
" id="DejaVuSans-70" transform="scale(0.015625)"/>
      </defs>
      <use transform="translate(0 0.125)" xlink:href="#DejaVuSans-72"/>
      <use transform="translate(41.113281 0.125)" xlink:href="#DejaVuSans-55"/>
      <use transform="translate(115.263672 -16.28125)scale(0.7)" xlink:href="#DejaVuSans-33"/>
      <use transform="translate(159.799805 -16.28125)scale(0.7)" xlink:href="#DejaVuSans-30"/>
      <use transform="translate(207.070312 0.125)" xlink:href="#DejaVuSans-20"/>
      <use transform="translate(238.857422 0.125)" xlink:href="#DejaVuSans-28"/>
      <use transform="translate(277.871094 0.125)" xlink:href="#DejaVuSans-65"/>
      <use transform="translate(339.394531 0.125)" xlink:href="#DejaVuSans-78"/>
      <use transform="translate(398.574219 0.125)" xlink:href="#DejaVuSans-70"/>
      <use transform="translate(462.050781 0.125)" xlink:href="#DejaVuSans-29"/>
     </g>
    </g>
    <g id="LineCollection_6">
     <path d="M 241.12 241.559062 
L 241.12 227.559062 
" style="fill:none;stroke:#c44e52;stroke-width:1.5;"/>
    </g>
    <g id="line2d_27">
     <g>
      <use style="fill:#c44e52;stroke:#c44e52;stroke-width:1.5;" x="241.12" xlink:href="#m301d363401" y="241.559062"/>
     </g>
    </g>
    <g id="line2d_28">
     <g>
      <use style="fill:#c44e52;stroke:#c44e52;stroke-width:1.5;" x="241.12" xlink:href="#m301d363401" y="227.559062"/>
     </g>
    </g>
    <g id="line2d_29">
     <path d="M 227.12 234.559062 
L 255.12 234.559062 
" style="fill:none;stroke:#c44e52;stroke-linecap:square;stroke-width:1.5;"/>
    </g>
    <g id="line2d_30">
     <g>
      <use style="fill:#c44e52;stroke:#000000;stroke-opacity:0;stroke-width:1.5;" x="241.12" xlink:href="#mb49a6faf0f" y="234.559062"/>
     </g>
    </g>
    <g id="text_14">
     <!-- rU$_{30}$ (sim) -->
     <g transform="translate(266.32 239.459062)scale(0.14 -0.14)">
      <defs>
       <path d="M 2834 3397 
L 2834 2853 
Q 2591 2978 2328 3040 
Q 2066 3103 1784 3103 
Q 1356 3103 1142 2972 
Q 928 2841 928 2578 
Q 928 2378 1081 2264 
Q 1234 2150 1697 2047 
L 1894 2003 
Q 2506 1872 2764 1633 
Q 3022 1394 3022 966 
Q 3022 478 2636 193 
Q 2250 -91 1575 -91 
Q 1294 -91 989 -36 
Q 684 19 347 128 
L 347 722 
Q 666 556 975 473 
Q 1284 391 1588 391 
Q 1994 391 2212 530 
Q 2431 669 2431 922 
Q 2431 1156 2273 1281 
Q 2116 1406 1581 1522 
L 1381 1569 
Q 847 1681 609 1914 
Q 372 2147 372 2553 
Q 372 3047 722 3315 
Q 1072 3584 1716 3584 
Q 2034 3584 2315 3537 
Q 2597 3491 2834 3397 
z
" id="DejaVuSans-73" transform="scale(0.015625)"/>
       <path d="M 603 3500 
L 1178 3500 
L 1178 0 
L 603 0 
L 603 3500 
z
M 603 4863 
L 1178 4863 
L 1178 4134 
L 603 4134 
L 603 4863 
z
" id="DejaVuSans-69" transform="scale(0.015625)"/>
      </defs>
      <use transform="translate(0 0.015625)" xlink:href="#DejaVuSans-72"/>
      <use transform="translate(41.113281 0.015625)" xlink:href="#DejaVuSans-55"/>
      <use transform="translate(115.263672 -16.390625)scale(0.7)" xlink:href="#DejaVuSans-33"/>
      <use transform="translate(159.799805 -16.390625)scale(0.7)" xlink:href="#DejaVuSans-30"/>
      <use transform="translate(207.070312 0.015625)" xlink:href="#DejaVuSans-20"/>
      <use transform="translate(238.857422 0.015625)" xlink:href="#DejaVuSans-28"/>
      <use transform="translate(277.871094 0.015625)" xlink:href="#DejaVuSans-73"/>
      <use transform="translate(329.970703 0.015625)" xlink:href="#DejaVuSans-69"/>
      <use transform="translate(357.753906 0.015625)" xlink:href="#DejaVuSans-6d"/>
      <use transform="translate(455.166016 0.015625)" xlink:href="#DejaVuSans-29"/>
     </g>
    </g>
    <g id="LineCollection_7">
     <path d="M 241.12 262.110625 
L 241.12 248.110625 
" style="fill:none;stroke:#4c72b0;stroke-width:1.5;"/>
    </g>
    <g id="line2d_31">
     <g>
      <use style="fill:#4c72b0;stroke:#4c72b0;stroke-width:1.5;" x="241.12" xlink:href="#m9141a18452" y="262.110625"/>
     </g>
    </g>
    <g id="line2d_32">
     <g>
      <use style="fill:#4c72b0;stroke:#4c72b0;stroke-width:1.5;" x="241.12" xlink:href="#m9141a18452" y="248.110625"/>
     </g>
    </g>
    <g id="line2d_33">
     <path d="M 227.12 255.110625 
L 255.12 255.110625 
" style="fill:none;stroke:#4c72b0;stroke-dasharray:5.55,2.4;stroke-dashoffset:0;stroke-width:1.5;"/>
    </g>
    <g id="line2d_34">
     <g>
      <use style="fill-opacity:0;stroke:#4c72b0;stroke-linejoin:miter;stroke-width:1.5;" x="241.12" xlink:href="#m33a294e311" y="255.110625"/>
     </g>
    </g>
    <g id="text_15">
     <!-- rA$_{30}$ (exp) -->
     <g transform="translate(266.32 260.010625)scale(0.14 -0.14)">
      <defs>
       <path d="M 2188 4044 
L 1331 1722 
L 3047 1722 
L 2188 4044 
z
M 1831 4666 
L 2547 4666 
L 4325 0 
L 3669 0 
L 3244 1197 
L 1141 1197 
L 716 0 
L 50 0 
L 1831 4666 
z
" id="DejaVuSans-41" transform="scale(0.015625)"/>
      </defs>
      <use transform="translate(0 0.125)" xlink:href="#DejaVuSans-72"/>
      <use transform="translate(41.113281 0.125)" xlink:href="#DejaVuSans-41"/>
      <use transform="translate(110.478516 -16.28125)scale(0.7)" xlink:href="#DejaVuSans-33"/>
      <use transform="translate(155.014648 -16.28125)scale(0.7)" xlink:href="#DejaVuSans-30"/>
      <use transform="translate(202.285156 0.125)" xlink:href="#DejaVuSans-20"/>
      <use transform="translate(234.072266 0.125)" xlink:href="#DejaVuSans-28"/>
      <use transform="translate(273.085938 0.125)" xlink:href="#DejaVuSans-65"/>
      <use transform="translate(334.609375 0.125)" xlink:href="#DejaVuSans-78"/>
      <use transform="translate(393.789062 0.125)" xlink:href="#DejaVuSans-70"/>
      <use transform="translate(457.265625 0.125)" xlink:href="#DejaVuSans-29"/>
     </g>
    </g>
    <g id="LineCollection_8">
     <path d="M 241.12 282.688438 
L 241.12 268.688438 
" style="fill:none;stroke:#4c72b0;stroke-width:1.5;"/>
    </g>
    <g id="line2d_35">
     <g>
      <use style="fill:#4c72b0;stroke:#4c72b0;stroke-width:1.5;" x="241.12" xlink:href="#m9141a18452" y="282.688438"/>
     </g>
    </g>
    <g id="line2d_36">
     <g>
      <use style="fill:#4c72b0;stroke:#4c72b0;stroke-width:1.5;" x="241.12" xlink:href="#m9141a18452" y="268.688438"/>
     </g>
    </g>
    <g id="line2d_37">
     <path d="M 227.12 275.688438 
L 255.12 275.688438 
" style="fill:none;stroke:#4c72b0;stroke-linecap:square;stroke-width:1.5;"/>
    </g>
    <g id="line2d_38">
     <g>
      <use style="fill:#4c72b0;stroke:#000000;stroke-linejoin:miter;stroke-opacity:0;stroke-width:1.5;" x="241.12" xlink:href="#m8f13177b62" y="275.688438"/>
     </g>
    </g>
    <g id="text_16">
     <!-- rA$_{30}$ (sim) -->
     <g transform="translate(266.32 280.588437)scale(0.14 -0.14)">
      <use transform="translate(0 0.015625)" xlink:href="#DejaVuSans-72"/>
      <use transform="translate(41.113281 0.015625)" xlink:href="#DejaVuSans-41"/>
      <use transform="translate(110.478516 -16.390625)scale(0.7)" xlink:href="#DejaVuSans-33"/>
      <use transform="translate(155.014648 -16.390625)scale(0.7)" xlink:href="#DejaVuSans-30"/>
      <use transform="translate(202.285156 0.015625)" xlink:href="#DejaVuSans-20"/>
      <use transform="translate(234.072266 0.015625)" xlink:href="#DejaVuSans-28"/>
      <use transform="translate(273.085938 0.015625)" xlink:href="#DejaVuSans-73"/>
      <use transform="translate(325.185547 0.015625)" xlink:href="#DejaVuSans-69"/>
      <use transform="translate(352.96875 0.015625)" xlink:href="#DejaVuSans-6d"/>
      <use transform="translate(450.380859 0.015625)" xlink:href="#DejaVuSans-29"/>
     </g>
    </g>
   </g>
  </g>
 </g>
 <defs>
  <clipPath id="pe0e0aee600">
   <rect height="282.134169" width="281.45" x="67.75" y="13.965831"/>
  </clipPath>
 </defs>
</svg>
