<?xml version="1.0" encoding="utf-8" standalone="no"?>
<!DOCTYPE svg PUBLIC "-//W3C//DTD SVG 1.1//EN"
  "http://www.w3.org/Graphics/SVG/1.1/DTD/svg11.dtd">
<svg height="540pt" version="1.1" viewBox="0 0 360 540" width="360pt" xmlns="http://www.w3.org/2000/svg" xmlns:xlink="http://www.w3.org/1999/xlink">
 <metadata>
  <rdf:RDF xmlns:cc="http://creativecommons.org/ns#" xmlns:dc="http://purl.org/dc/elements/1.1/" xmlns:rdf="http://www.w3.org/1999/02/22-rdf-syntax-ns#">
   <cc:Work>
    <dc:type rdf:resource="http://purl.org/dc/dcmitype/StillImage"/>
    <dc:date>2026-04-25T21:17:13.539342</dc:date>
    <dc:format>image/svg+xml</dc:format>
    <dc:creator>
     <cc:Agent>
      <dc:title>Matplotlib v3.4.3, https://matplotlib.org/</dc:title>
     </cc:Agent>
    </dc:creator>
   </cc:Work>
  </rdf:RDF>
 </metadata>
 <defs>
  <style type="text/css">*{stroke-linecap:butt;stroke-linejoin:round;}</style>
 </defs>
 <g id="figure_1">
  <g id="patch_1">
   <path d="M 0 540 
L 360 540 
L 360 0 
L 0 0 
z
" style="fill:none;"/>
  </g>
  <g id="axes_1">
   <g id="patch_2">
    <path d="M 62.175 154 
L 339.0125 154 
L 339.0125 10.8 
L 62.175 10.8 
z
" style="fill:#ffffff;"/>
   </g>
   <g id="patch_3">
    <path clip-path="url(#p764153d2a3)" d="M 66.569246 154 
L 75.357738 154 
L 75.357738 149.95006 
L 66.569246 149.95006 
z
" style="fill:#4878d0;opacity:0.7;"/>
   </g>
   <g id="patch_4">
    <path clip-path="url(#p764153d2a3)" d="M 92.934722 154 
L 101.723214 154 
L 101.723214 136.857352 
L 92.934722 136.857352 
z
" style="fill:#4878d0;opacity:0.7;"/>
   </g>
   <g id="patch_5">
    <path clip-path="url(#p764153d2a3)" d="M 119.300198 154 
L 128.08869 154 
L 128.08869 106.541023 
L 119.300198 106.541023 
z
" style="fill:#4878d0;opacity:0.7;"/>
   </g>
   <g id="patch_6">
    <path clip-path="url(#p764153d2a3)" d="M 145.665675 154 
L 154.454167 154 
L 154.454167 64.706591 
L 145.665675 64.706591 
z
" style="fill:#4878d0;opacity:0.7;"/>
   </g>
   <g id="patch_7">
    <path clip-path="url(#p764153d2a3)" d="M 172.031151 154 
L 180.819643 154 
L 180.819643 41.422783 
L 172.031151 41.422783 
z
" style="fill:#4878d0;opacity:0.7;"/>
   </g>
   <g id="patch_8">
    <path clip-path="url(#p764153d2a3)" d="M 198.396627 154 
L 207.185119 154 
L 207.185119 56.189806 
L 198.396627 56.189806 
z
" style="fill:#4878d0;opacity:0.7;"/>
   </g>
   <g id="patch_9">
    <path clip-path="url(#p764153d2a3)" d="M 224.762103 154 
L 233.550595 154 
L 233.550595 96.198687 
L 224.762103 96.198687 
z
" style="fill:#4878d0;opacity:0.7;"/>
   </g>
   <g id="patch_10">
    <path clip-path="url(#p764153d2a3)" d="M 251.127579 154 
L 259.916071 154 
L 259.916071 131.096292 
L 251.127579 131.096292 
z
" style="fill:#4878d0;opacity:0.7;"/>
   </g>
   <g id="patch_11">
    <path clip-path="url(#p764153d2a3)" d="M 277.493056 154 
L 286.281548 154 
L 286.281548 148.161315 
L 277.493056 148.161315 
z
" style="fill:#4878d0;opacity:0.7;"/>
   </g>
   <g id="patch_12">
    <path clip-path="url(#p764153d2a3)" d="M 303.858532 154 
L 312.647024 154 
L 312.647024 153.213032 
L 303.858532 153.213032 
z
" style="fill:#4878d0;opacity:0.7;"/>
   </g>
   <g id="patch_13">
    <path clip-path="url(#p764153d2a3)" d="M 75.357738 154 
L 84.14623 154 
L 84.14623 149.320889 
L 75.357738 149.320889 
z
" style="fill:#d65f5f;opacity:0.7;"/>
   </g>
   <g id="patch_14">
    <path clip-path="url(#p764153d2a3)" d="M 101.723214 154 
L 110.511706 154 
L 110.511706 134.177585 
L 101.723214 134.177585 
z
" style="fill:#d65f5f;opacity:0.7;"/>
   </g>
   <g id="patch_15">
    <path clip-path="url(#p764153d2a3)" d="M 128.08869 154 
L 136.877183 154 
L 136.877183 100.183365 
L 128.08869 100.183365 
z
" style="fill:#d65f5f;opacity:0.7;"/>
   </g>
   <g id="patch_16">
    <path clip-path="url(#p764153d2a3)" d="M 154.454167 154 
L 163.242659 154 
L 163.242659 59.01085 
L 154.454167 59.01085 
z
" style="fill:#d65f5f;opacity:0.7;"/>
   </g>
   <g id="patch_17">
    <path clip-path="url(#p764153d2a3)" d="M 180.819643 154 
L 189.608135 154 
L 189.608135 39.44 
L 180.819643 39.44 
z
" style="fill:#d65f5f;opacity:0.7;"/>
   </g>
   <g id="patch_18">
    <path clip-path="url(#p764153d2a3)" d="M 207.185119 154 
L 215.973611 154 
L 215.973611 61.133144 
L 207.185119 61.133144 
z
" style="fill:#d65f5f;opacity:0.7;"/>
   </g>
   <g id="patch_19">
    <path clip-path="url(#p764153d2a3)" d="M 233.550595 154 
L 242.339087 154 
L 242.339087 102.564543 
L 233.550595 102.564543 
z
" style="fill:#d65f5f;opacity:0.7;"/>
   </g>
   <g id="patch_20">
    <path clip-path="url(#p764153d2a3)" d="M 259.916071 154 
L 268.704563 154 
L 268.704563 135.331126 
L 259.916071 135.331126 
z
" style="fill:#d65f5f;opacity:0.7;"/>
   </g>
   <g id="patch_21">
    <path clip-path="url(#p764153d2a3)" d="M 286.281548 154 
L 295.07004 154 
L 295.07004 149.765473 
L 286.281548 149.765473 
z
" style="fill:#d65f5f;opacity:0.7;"/>
   </g>
   <g id="patch_22">
    <path clip-path="url(#p764153d2a3)" d="M 312.647024 154 
L 321.435516 154 
L 321.435516 153.409966 
L 312.647024 153.409966 
z
" style="fill:#d65f5f;opacity:0.7;"/>
   </g>
   <g id="matplotlib.axis_1">
    <g id="xtick_1">
     <g id="line2d_1">
      <defs>
       <path d="M 0 0 
L 0 3.5 
" id="m874e42e080" style="stroke:#000000;stroke-width:0.8;"/>
      </defs>
      <g>
       <use style="stroke:#000000;stroke-width:0.8;" x="75.357738" xlink:href="#m874e42e080" y="154"/>
      </g>
     </g>
    </g>
    <g id="xtick_2">
     <g id="line2d_2">
      <g>
       <use style="stroke:#000000;stroke-width:0.8;" x="128.08869" xlink:href="#m874e42e080" y="154"/>
      </g>
     </g>
    </g>
    <g id="xtick_3">
     <g id="line2d_3">
      <g>
       <use style="stroke:#000000;stroke-width:0.8;" x="180.819643" xlink:href="#m874e42e080" y="154"/>
      </g>
     </g>
    </g>
    <g id="xtick_4">
     <g id="line2d_4">
      <g>
       <use style="stroke:#000000;stroke-width:0.8;" x="233.550595" xlink:href="#m874e42e080" y="154"/>
      </g>
     </g>
    </g>
    <g id="xtick_5">
     <g id="line2d_5">
      <g>
       <use style="stroke:#000000;stroke-width:0.8;" x="286.281548" xlink:href="#m874e42e080" y="154"/>
      </g>
     </g>
    </g>
    <g id="xtick_6">
     <g id="line2d_6">
      <g>
       <use style="stroke:#000000;stroke-width:0.8;" x="339.0125" xlink:href="#m874e42e080" y="154"/>
      </g>
     </g>
    </g>
   </g>
   <g id="matplotlib.axis_2">
    <g id="ytick_1">
     <g id="line2d_7">
      <defs>
       <path d="M 0 0 
L -3.5 0 
" id="m8f6d9c3c2f" style="stroke:#000000;stroke-width:0.8;"/>
      </defs>
      <g>
       <use style="stroke:#000000;stroke-width:0.8;" x="62.175" xlink:href="#m8f6d9c3c2f" y="154"/>
      </g>
     </g>
     <g id="text_1">
      <!-- 0.0 -->
      <g transform="translate(29.73 160.07875)scale(0.16 -0.16)">
       <defs>
        <path d="M 2034 4250 
Q 1547 4250 1301 3770 
Q 1056 3291 1056 2328 
Q 1056 1369 1301 889 
Q 1547 409 2034 409 
Q 2525 409 2770 889 
Q 3016 1369 3016 2328 
Q 3016 3291 2770 3770 
Q 2525 4250 2034 4250 
z
M 2034 4750 
Q 2819 4750 3233 4129 
Q 3647 3509 3647 2328 
Q 3647 1150 3233 529 
Q 2819 -91 2034 -91 
Q 1250 -91 836 529 
Q 422 1150 422 2328 
Q 422 3509 836 4129 
Q 1250 4750 2034 4750 
z
" id="DejaVuSans-30" transform="scale(0.015625)"/>
        <path d="M 684 794 
L 1344 794 
L 1344 0 
L 684 0 
L 684 794 
z
" id="DejaVuSans-2e" transform="scale(0.015625)"/>
       </defs>
       <use xlink:href="#DejaVuSans-30"/>
       <use x="63.623047" xlink:href="#DejaVuSans-2e"/>
       <use x="95.410156" xlink:href="#DejaVuSans-30"/>
      </g>
     </g>
    </g>
    <g id="ytick_2">
     <g id="line2d_8">
      <g>
       <use style="stroke:#000000;stroke-width:0.8;" x="62.175" xlink:href="#m8f6d9c3c2f" y="108.433694"/>
      </g>
     </g>
     <g id="text_2">
      <!-- 0.1 -->
      <g transform="translate(29.73 114.512444)scale(0.16 -0.16)">
       <defs>
        <path d="M 794 531 
L 1825 531 
L 1825 4091 
L 703 3866 
L 703 4441 
L 1819 4666 
L 2450 4666 
L 2450 531 
L 3481 531 
L 3481 0 
L 794 0 
L 794 531 
z
" id="DejaVuSans-31" transform="scale(0.015625)"/>
       </defs>
       <use xlink:href="#DejaVuSans-30"/>
       <use x="63.623047" xlink:href="#DejaVuSans-2e"/>
       <use x="95.410156" xlink:href="#DejaVuSans-31"/>
      </g>
     </g>
    </g>
    <g id="ytick_3">
     <g id="line2d_9">
      <g>
       <use style="stroke:#000000;stroke-width:0.8;" x="62.175" xlink:href="#m8f6d9c3c2f" y="62.867388"/>
      </g>
     </g>
     <g id="text_3">
      <!-- 0.2 -->
      <g transform="translate(29.73 68.946138)scale(0.16 -0.16)">
       <defs>
        <path d="M 1228 531 
L 3431 531 
L 3431 0 
L 469 0 
L 469 531 
Q 828 903 1448 1529 
Q 2069 2156 2228 2338 
Q 2531 2678 2651 2914 
Q 2772 3150 2772 3378 
Q 2772 3750 2511 3984 
Q 2250 4219 1831 4219 
Q 1534 4219 1204 4116 
Q 875 4013 500 3803 
L 500 4441 
Q 881 4594 1212 4672 
Q 1544 4750 1819 4750 
Q 2544 4750 2975 4387 
Q 3406 4025 3406 3419 
Q 3406 3131 3298 2873 
Q 3191 2616 2906 2266 
Q 2828 2175 2409 1742 
Q 1991 1309 1228 531 
z
" id="DejaVuSans-32" transform="scale(0.015625)"/>
       </defs>
       <use xlink:href="#DejaVuSans-30"/>
       <use x="63.623047" xlink:href="#DejaVuSans-2e"/>
       <use x="95.410156" xlink:href="#DejaVuSans-32"/>
      </g>
     </g>
    </g>
    <g id="ytick_4">
     <g id="line2d_10">
      <g>
       <use style="stroke:#000000;stroke-width:0.8;" x="62.175" xlink:href="#m8f6d9c3c2f" y="17.301082"/>
      </g>
     </g>
     <g id="text_4">
      <!-- 0.3 -->
      <g transform="translate(29.73 23.379832)scale(0.16 -0.16)">
       <defs>
        <path d="M 2597 2516 
Q 3050 2419 3304 2112 
Q 3559 1806 3559 1356 
Q 3559 666 3084 287 
Q 2609 -91 1734 -91 
Q 1441 -91 1130 -33 
Q 819 25 488 141 
L 488 750 
Q 750 597 1062 519 
Q 1375 441 1716 441 
Q 2309 441 2620 675 
Q 2931 909 2931 1356 
Q 2931 1769 2642 2001 
Q 2353 2234 1838 2234 
L 1294 2234 
L 1294 2753 
L 1863 2753 
Q 2328 2753 2575 2939 
Q 2822 3125 2822 3475 
Q 2822 3834 2567 4026 
Q 2313 4219 1838 4219 
Q 1578 4219 1281 4162 
Q 984 4106 628 3988 
L 628 4550 
Q 988 4650 1302 4700 
Q 1616 4750 1894 4750 
Q 2613 4750 3031 4423 
Q 3450 4097 3450 3541 
Q 3450 3153 3228 2886 
Q 3006 2619 2597 2516 
z
" id="DejaVuSans-33" transform="scale(0.015625)"/>
       </defs>
       <use xlink:href="#DejaVuSans-30"/>
       <use x="63.623047" xlink:href="#DejaVuSans-2e"/>
       <use x="95.410156" xlink:href="#DejaVuSans-33"/>
      </g>
     </g>
    </g>
    <g id="text_5">
     <!-- Frequency -->
     <g transform="translate(22.4025 123.7275)rotate(-90)scale(0.16 -0.16)">
      <defs>
       <path d="M 628 4666 
L 3309 4666 
L 3309 4134 
L 1259 4134 
L 1259 2759 
L 3109 2759 
L 3109 2228 
L 1259 2228 
L 1259 0 
L 628 0 
L 628 4666 
z
" id="DejaVuSans-46" transform="scale(0.015625)"/>
       <path d="M 2631 2963 
Q 2534 3019 2420 3045 
Q 2306 3072 2169 3072 
Q 1681 3072 1420 2755 
Q 1159 2438 1159 1844 
L 1159 0 
L 581 0 
L 581 3500 
L 1159 3500 
L 1159 2956 
Q 1341 3275 1631 3429 
Q 1922 3584 2338 3584 
Q 2397 3584 2469 3576 
Q 2541 3569 2628 3553 
L 2631 2963 
z
" id="DejaVuSans-72" transform="scale(0.015625)"/>
       <path d="M 3597 1894 
L 3597 1613 
L 953 1613 
Q 991 1019 1311 708 
Q 1631 397 2203 397 
Q 2534 397 2845 478 
Q 3156 559 3463 722 
L 3463 178 
Q 3153 47 2828 -22 
Q 2503 -91 2169 -91 
Q 1331 -91 842 396 
Q 353 884 353 1716 
Q 353 2575 817 3079 
Q 1281 3584 2069 3584 
Q 2775 3584 3186 3129 
Q 3597 2675 3597 1894 
z
M 3022 2063 
Q 3016 2534 2758 2815 
Q 2500 3097 2075 3097 
Q 1594 3097 1305 2825 
Q 1016 2553 972 2059 
L 3022 2063 
z
" id="DejaVuSans-65" transform="scale(0.015625)"/>
       <path d="M 947 1747 
Q 947 1113 1208 752 
Q 1469 391 1925 391 
Q 2381 391 2643 752 
Q 2906 1113 2906 1747 
Q 2906 2381 2643 2742 
Q 2381 3103 1925 3103 
Q 1469 3103 1208 2742 
Q 947 2381 947 1747 
z
M 2906 525 
Q 2725 213 2448 61 
Q 2172 -91 1784 -91 
Q 1150 -91 751 415 
Q 353 922 353 1747 
Q 353 2572 751 3078 
Q 1150 3584 1784 3584 
Q 2172 3584 2448 3432 
Q 2725 3281 2906 2969 
L 2906 3500 
L 3481 3500 
L 3481 -1331 
L 2906 -1331 
L 2906 525 
z
" id="DejaVuSans-71" transform="scale(0.015625)"/>
       <path d="M 544 1381 
L 544 3500 
L 1119 3500 
L 1119 1403 
Q 1119 906 1312 657 
Q 1506 409 1894 409 
Q 2359 409 2629 706 
Q 2900 1003 2900 1516 
L 2900 3500 
L 3475 3500 
L 3475 0 
L 2900 0 
L 2900 538 
Q 2691 219 2414 64 
Q 2138 -91 1772 -91 
Q 1169 -91 856 284 
Q 544 659 544 1381 
z
M 1991 3584 
L 1991 3584 
z
" id="DejaVuSans-75" transform="scale(0.015625)"/>
       <path d="M 3513 2113 
L 3513 0 
L 2938 0 
L 2938 2094 
Q 2938 2591 2744 2837 
Q 2550 3084 2163 3084 
Q 1697 3084 1428 2787 
Q 1159 2491 1159 1978 
L 1159 0 
L 581 0 
L 581 3500 
L 1159 3500 
L 1159 2956 
Q 1366 3272 1645 3428 
Q 1925 3584 2291 3584 
Q 2894 3584 3203 3211 
Q 3513 2838 3513 2113 
z
" id="DejaVuSans-6e" transform="scale(0.015625)"/>
       <path d="M 3122 3366 
L 3122 2828 
Q 2878 2963 2633 3030 
Q 2388 3097 2138 3097 
Q 1578 3097 1268 2742 
Q 959 2388 959 1747 
Q 959 1106 1268 751 
Q 1578 397 2138 397 
Q 2388 397 2633 464 
Q 2878 531 3122 666 
L 3122 134 
Q 2881 22 2623 -34 
Q 2366 -91 2075 -91 
Q 1284 -91 818 406 
Q 353 903 353 1747 
Q 353 2603 823 3093 
Q 1294 3584 2113 3584 
Q 2378 3584 2631 3529 
Q 2884 3475 3122 3366 
z
" id="DejaVuSans-63" transform="scale(0.015625)"/>
       <path d="M 2059 -325 
Q 1816 -950 1584 -1140 
Q 1353 -1331 966 -1331 
L 506 -1331 
L 506 -850 
L 844 -850 
Q 1081 -850 1212 -737 
Q 1344 -625 1503 -206 
L 1606 56 
L 191 3500 
L 800 3500 
L 1894 763 
L 2988 3500 
L 3597 3500 
L 2059 -325 
z
" id="DejaVuSans-79" transform="scale(0.015625)"/>
      </defs>
      <use xlink:href="#DejaVuSans-46"/>
      <use x="50.269531" xlink:href="#DejaVuSans-72"/>
      <use x="89.132812" xlink:href="#DejaVuSans-65"/>
      <use x="150.65625" xlink:href="#DejaVuSans-71"/>
      <use x="214.132812" xlink:href="#DejaVuSans-75"/>
      <use x="277.511719" xlink:href="#DejaVuSans-65"/>
      <use x="339.035156" xlink:href="#DejaVuSans-6e"/>
      <use x="402.414062" xlink:href="#DejaVuSans-63"/>
      <use x="457.394531" xlink:href="#DejaVuSans-79"/>
     </g>
    </g>
   </g>
   <g id="patch_23">
    <path d="M 62.175 154 
L 62.175 10.8 
" style="fill:none;stroke:#000000;stroke-linecap:square;stroke-linejoin:miter;stroke-width:0.8;"/>
   </g>
   <g id="patch_24">
    <path d="M 339.0125 154 
L 339.0125 10.8 
" style="fill:none;stroke:#000000;stroke-linecap:square;stroke-linejoin:miter;stroke-width:0.8;"/>
   </g>
   <g id="patch_25">
    <path d="M 62.175 154 
L 339.0125 154 
" style="fill:none;stroke:#000000;stroke-linecap:square;stroke-linejoin:miter;stroke-width:0.8;"/>
   </g>
   <g id="patch_26">
    <path d="M 62.175 10.8 
L 339.0125 10.8 
" style="fill:none;stroke:#000000;stroke-linecap:square;stroke-linejoin:miter;stroke-width:0.8;"/>
   </g>
   <g id="text_6">
    <!-- $\langle N \rangle_{\mathrm{rA_{30}}} = 4.9$ -->
    <g transform="translate(62.175 37.864)scale(0.13 -0.13)">
     <defs>
      <path d="M 572 2006 
L 1453 4856 
L 1984 4856 
L 1103 2006 
L 1984 -844 
L 1453 -844 
L 572 2006 
z
" id="DejaVuSans-27e8" transform="scale(0.015625)"/>
      <path d="M 1081 4666 
L 1931 4666 
L 3219 666 
L 4000 4666 
L 4616 4666 
L 3706 0 
L 2853 0 
L 1569 4025 
L 788 0 
L 172 0 
L 1081 4666 
z
" id="DejaVuSans-Oblique-4e" transform="scale(0.015625)"/>
      <path d="M 1925 2006 
L 1044 -844 
L 513 -844 
L 1394 2006 
L 513 4856 
L 1044 4856 
L 1925 2006 
z
" id="DejaVuSans-27e9" transform="scale(0.015625)"/>
      <path d="M 2188 4044 
L 1331 1722 
L 3047 1722 
L 2188 4044 
z
M 1831 4666 
L 2547 4666 
L 4325 0 
L 3669 0 
L 3244 1197 
L 1141 1197 
L 716 0 
L 50 0 
L 1831 4666 
z
" id="DejaVuSans-41" transform="scale(0.015625)"/>
      <path d="M 678 2906 
L 4684 2906 
L 4684 2381 
L 678 2381 
L 678 2906 
z
M 678 1631 
L 4684 1631 
L 4684 1100 
L 678 1100 
L 678 1631 
z
" id="DejaVuSans-3d" transform="scale(0.015625)"/>
      <path d="M 2419 4116 
L 825 1625 
L 2419 1625 
L 2419 4116 
z
M 2253 4666 
L 3047 4666 
L 3047 1625 
L 3713 1625 
L 3713 1100 
L 3047 1100 
L 3047 0 
L 2419 0 
L 2419 1100 
L 313 1100 
L 313 1709 
L 2253 4666 
z
" id="DejaVuSans-34" transform="scale(0.015625)"/>
      <path d="M 703 97 
L 703 672 
Q 941 559 1184 500 
Q 1428 441 1663 441 
Q 2288 441 2617 861 
Q 2947 1281 2994 2138 
Q 2813 1869 2534 1725 
Q 2256 1581 1919 1581 
Q 1219 1581 811 2004 
Q 403 2428 403 3163 
Q 403 3881 828 4315 
Q 1253 4750 1959 4750 
Q 2769 4750 3195 4129 
Q 3622 3509 3622 2328 
Q 3622 1225 3098 567 
Q 2575 -91 1691 -91 
Q 1453 -91 1209 -44 
Q 966 3 703 97 
z
M 1959 2075 
Q 2384 2075 2632 2365 
Q 2881 2656 2881 3163 
Q 2881 3666 2632 3958 
Q 2384 4250 1959 4250 
Q 1534 4250 1286 3958 
Q 1038 3666 1038 3163 
Q 1038 2656 1286 2365 
Q 1534 2075 1959 2075 
z
" id="DejaVuSans-39" transform="scale(0.015625)"/>
     </defs>
     <use transform="translate(0 0.125)" xlink:href="#DejaVuSans-27e8"/>
     <use transform="translate(39.013672 0.125)" xlink:href="#DejaVuSans-Oblique-4e"/>
     <use transform="translate(113.818359 0.125)" xlink:href="#DejaVuSans-27e9"/>
     <use transform="translate(153.789062 -16.28125)scale(0.7)" xlink:href="#DejaVuSans-72"/>
     <use transform="translate(182.568359 -16.28125)scale(0.7)" xlink:href="#DejaVuSans-41"/>
     <use transform="translate(231.124023 -27.765625)scale(0.49)" xlink:href="#DejaVuSans-33"/>
     <use transform="translate(262.299316 -27.765625)scale(0.49)" xlink:href="#DejaVuSans-30"/>
     <use transform="translate(317.605469 0.125)" xlink:href="#DejaVuSans-3d"/>
     <use transform="translate(420.876953 0.125)" xlink:href="#DejaVuSans-34"/>
     <use transform="translate(484.5 0.125)" xlink:href="#DejaVuSans-2e"/>
     <use transform="translate(516.287109 0.125)" xlink:href="#DejaVuSans-39"/>
    </g>
    <!-- $\langle N \rangle_{\mathrm{rU_{30}}} = 4.8$ -->
    <g transform="translate(62.175 53.49)scale(0.13 -0.13)">
     <defs>
      <path d="M 556 4666 
L 1191 4666 
L 1191 1831 
Q 1191 1081 1462 751 
Q 1734 422 2344 422 
Q 2950 422 3222 751 
Q 3494 1081 3494 1831 
L 3494 4666 
L 4128 4666 
L 4128 1753 
Q 4128 841 3676 375 
Q 3225 -91 2344 -91 
Q 1459 -91 1007 375 
Q 556 841 556 1753 
L 556 4666 
z
" id="DejaVuSans-55" transform="scale(0.015625)"/>
      <path d="M 2034 2216 
Q 1584 2216 1326 1975 
Q 1069 1734 1069 1313 
Q 1069 891 1326 650 
Q 1584 409 2034 409 
Q 2484 409 2743 651 
Q 3003 894 3003 1313 
Q 3003 1734 2745 1975 
Q 2488 2216 2034 2216 
z
M 1403 2484 
Q 997 2584 770 2862 
Q 544 3141 544 3541 
Q 544 4100 942 4425 
Q 1341 4750 2034 4750 
Q 2731 4750 3128 4425 
Q 3525 4100 3525 3541 
Q 3525 3141 3298 2862 
Q 3072 2584 2669 2484 
Q 3125 2378 3379 2068 
Q 3634 1759 3634 1313 
Q 3634 634 3220 271 
Q 2806 -91 2034 -91 
Q 1263 -91 848 271 
Q 434 634 434 1313 
Q 434 1759 690 2068 
Q 947 2378 1403 2484 
z
M 1172 3481 
Q 1172 3119 1398 2916 
Q 1625 2713 2034 2713 
Q 2441 2713 2670 2916 
Q 2900 3119 2900 3481 
Q 2900 3844 2670 4047 
Q 2441 4250 2034 4250 
Q 1625 4250 1398 4047 
Q 1172 3844 1172 3481 
z
" id="DejaVuSans-38" transform="scale(0.015625)"/>
     </defs>
     <use transform="translate(0 0.125)" xlink:href="#DejaVuSans-27e8"/>
     <use transform="translate(39.013672 0.125)" xlink:href="#DejaVuSans-Oblique-4e"/>
     <use transform="translate(113.818359 0.125)" xlink:href="#DejaVuSans-27e9"/>
     <use transform="translate(153.789062 -16.28125)scale(0.7)" xlink:href="#DejaVuSans-72"/>
     <use transform="translate(182.568359 -16.28125)scale(0.7)" xlink:href="#DejaVuSans-55"/>
     <use transform="translate(234.473633 -27.765625)scale(0.49)" xlink:href="#DejaVuSans-33"/>
     <use transform="translate(265.648926 -27.765625)scale(0.49)" xlink:href="#DejaVuSans-30"/>
     <use transform="translate(320.955078 0.125)" xlink:href="#DejaVuSans-3d"/>
     <use transform="translate(424.226562 0.125)" xlink:href="#DejaVuSans-34"/>
     <use transform="translate(487.849609 0.125)" xlink:href="#DejaVuSans-2e"/>
     <use transform="translate(517.011719 0.125)" xlink:href="#DejaVuSans-38"/>
    </g>
   </g>
   <g id="legend_1">
    <g id="patch_27">
     <path d="M 246.5325 37.3575 
L 278.5325 37.3575 
L 278.5325 26.1575 
L 246.5325 26.1575 
z
" style="fill:#4878d0;opacity:0.7;"/>
    </g>
    <g id="text_7">
     <!-- rA$_{30}$ -->
     <g transform="translate(291.3325 37.3575)scale(0.16 -0.16)">
      <use transform="translate(0 0.09375)" xlink:href="#DejaVuSans-72"/>
      <use transform="translate(41.113281 0.09375)" xlink:href="#DejaVuSans-41"/>
      <use transform="translate(110.478516 -16.3125)scale(0.7)" xlink:href="#DejaVuSans-33"/>
      <use transform="translate(155.014648 -16.3125)scale(0.7)" xlink:href="#DejaVuSans-30"/>
     </g>
    </g>
    <g id="patch_28">
     <path d="M 246.5325 60.8425 
L 278.5325 60.8425 
L 278.5325 49.6425 
L 246.5325 49.6425 
z
" style="fill:#d65f5f;opacity:0.7;"/>
    </g>
    <g id="text_8">
     <!-- rU$_{30}$ -->
     <g transform="translate(291.3325 60.8425)scale(0.16 -0.16)">
      <use transform="translate(0 0.09375)" xlink:href="#DejaVuSans-72"/>
      <use transform="translate(41.113281 0.09375)" xlink:href="#DejaVuSans-55"/>
      <use transform="translate(115.263672 -16.3125)scale(0.7)" xlink:href="#DejaVuSans-33"/>
      <use transform="translate(159.799805 -16.3125)scale(0.7)" xlink:href="#DejaVuSans-30"/>
     </g>
    </g>
   </g>
  </g>
  <g id="axes_2">
   <g id="patch_29">
    <path d="M 62.175 317 
L 339.0125 317 
L 339.0125 173.8 
L 62.175 173.8 
z
" style="fill:#ffffff;"/>
   </g>
   <g id="patch_30">
    <path clip-path="url(#p6cfe979971)" d="M 66.569246 317 
L 75.357738 317 
L 75.357738 302.459208 
L 66.569246 302.459208 
z
" style="fill:#4878d0;opacity:0.7;"/>
   </g>
   <g id="patch_31">
    <path clip-path="url(#p6cfe979971)" d="M 92.934722 317 
L 101.723214 317 
L 101.723214 261.663373 
L 92.934722 261.663373 
z
" style="fill:#4878d0;opacity:0.7;"/>
   </g>
   <g id="patch_32">
    <path clip-path="url(#p6cfe979971)" d="M 119.300198 317 
L 128.08869 317 
L 128.08869 217.645587 
L 119.300198 217.645587 
z
" style="fill:#4878d0;opacity:0.7;"/>
   </g>
   <g id="patch_33">
    <path clip-path="url(#p6cfe979971)" d="M 145.665675 317 
L 154.454167 317 
L 154.454167 202.44 
L 145.665675 202.44 
z
" style="fill:#4878d0;opacity:0.7;"/>
   </g>
   <g id="patch_34">
    <path clip-path="url(#p6cfe979971)" d="M 172.031151 317 
L 180.819643 317 
L 180.819643 227.594831 
L 172.031151 227.594831 
z
" style="fill:#4878d0;opacity:0.7;"/>
   </g>
   <g id="patch_35">
    <path clip-path="url(#p6cfe979971)" d="M 198.396627 317 
L 207.185119 317 
L 207.185119 266.115562 
L 198.396627 266.115562 
z
" style="fill:#4878d0;opacity:0.7;"/>
   </g>
   <g id="patch_36">
    <path clip-path="url(#p6cfe979971)" d="M 224.762103 317 
L 233.550595 317 
L 233.550595 295.433858 
L 224.762103 295.433858 
z
" style="fill:#4878d0;opacity:0.7;"/>
   </g>
   <g id="patch_37">
    <path clip-path="url(#p6cfe979971)" d="M 251.127579 317 
L 259.916071 317 
L 259.916071 310.042664 
L 251.127579 310.042664 
z
" style="fill:#4878d0;opacity:0.7;"/>
   </g>
   <g id="patch_38">
    <path clip-path="url(#p6cfe979971)" d="M 277.493056 317 
L 286.281548 317 
L 286.281548 315.256999 
L 277.493056 315.256999 
z
" style="fill:#4878d0;opacity:0.7;"/>
   </g>
   <g id="patch_39">
    <path clip-path="url(#p6cfe979971)" d="M 303.858532 317 
L 312.647024 317 
L 312.647024 316.609925 
L 303.858532 316.609925 
z
" style="fill:#4878d0;opacity:0.7;"/>
   </g>
   <g id="patch_40">
    <path clip-path="url(#p6cfe979971)" d="M 75.357738 317 
L 84.14623 317 
L 84.14623 309.309551 
L 75.357738 309.309551 
z
" style="fill:#d65f5f;opacity:0.7;"/>
   </g>
   <g id="patch_41">
    <path clip-path="url(#p6cfe979971)" d="M 101.723214 317 
L 110.511706 317 
L 110.511706 276.867322 
L 101.723214 276.867322 
z
" style="fill:#d65f5f;opacity:0.7;"/>
   </g>
   <g id="patch_42">
    <path clip-path="url(#p6cfe979971)" d="M 128.08869 317 
L 136.877183 317 
L 136.877183 229.763209 
L 128.08869 229.763209 
z
" style="fill:#d65f5f;opacity:0.7;"/>
   </g>
   <g id="patch_43">
    <path clip-path="url(#p6cfe979971)" d="M 154.454167 317 
L 163.242659 317 
L 163.242659 203.511431 
L 154.454167 203.511431 
z
" style="fill:#d65f5f;opacity:0.7;"/>
   </g>
   <g id="patch_44">
    <path clip-path="url(#p6cfe979971)" d="M 180.819643 317 
L 189.608135 317 
L 189.608135 217.702172 
L 180.819643 217.702172 
z
" style="fill:#d65f5f;opacity:0.7;"/>
   </g>
   <g id="patch_45">
    <path clip-path="url(#p6cfe979971)" d="M 207.185119 317 
L 215.973611 317 
L 215.973611 252.624045 
L 207.185119 252.624045 
z
" style="fill:#d65f5f;opacity:0.7;"/>
   </g>
   <g id="patch_46">
    <path clip-path="url(#p6cfe979971)" d="M 233.550595 317 
L 242.339087 317 
L 242.339087 286.762202 
L 233.550595 286.762202 
z
" style="fill:#d65f5f;opacity:0.7;"/>
   </g>
   <g id="patch_47">
    <path clip-path="url(#p6cfe979971)" d="M 259.916071 317 
L 268.704563 317 
L 268.704563 307.438655 
L 259.916071 307.438655 
z
" style="fill:#d65f5f;opacity:0.7;"/>
   </g>
   <g id="patch_48">
    <path clip-path="url(#p6cfe979971)" d="M 286.281548 317 
L 295.07004 317 
L 295.07004 314.626978 
L 286.281548 314.626978 
z
" style="fill:#d65f5f;opacity:0.7;"/>
   </g>
   <g id="patch_49">
    <path clip-path="url(#p6cfe979971)" d="M 312.647024 317 
L 321.435516 317 
L 321.435516 316.65644 
L 312.647024 316.65644 
z
" style="fill:#d65f5f;opacity:0.7;"/>
   </g>
   <g id="matplotlib.axis_3">
    <g id="xtick_7">
     <g id="line2d_11">
      <g>
       <use style="stroke:#000000;stroke-width:0.8;" x="75.357738" xlink:href="#m874e42e080" y="317"/>
      </g>
     </g>
    </g>
    <g id="xtick_8">
     <g id="line2d_12">
      <g>
       <use style="stroke:#000000;stroke-width:0.8;" x="128.08869" xlink:href="#m874e42e080" y="317"/>
      </g>
     </g>
    </g>
    <g id="xtick_9">
     <g id="line2d_13">
      <g>
       <use style="stroke:#000000;stroke-width:0.8;" x="180.819643" xlink:href="#m874e42e080" y="317"/>
      </g>
     </g>
    </g>
    <g id="xtick_10">
     <g id="line2d_14">
      <g>
       <use style="stroke:#000000;stroke-width:0.8;" x="233.550595" xlink:href="#m874e42e080" y="317"/>
      </g>
     </g>
    </g>
    <g id="xtick_11">
     <g id="line2d_15">
      <g>
       <use style="stroke:#000000;stroke-width:0.8;" x="286.281548" xlink:href="#m874e42e080" y="317"/>
      </g>
     </g>
    </g>
    <g id="xtick_12">
     <g id="line2d_16">
      <g>
       <use style="stroke:#000000;stroke-width:0.8;" x="339.0125" xlink:href="#m874e42e080" y="317"/>
      </g>
     </g>
    </g>
   </g>
   <g id="matplotlib.axis_4">
    <g id="ytick_5">
     <g id="line2d_17">
      <g>
       <use style="stroke:#000000;stroke-width:0.8;" x="62.175" xlink:href="#m8f6d9c3c2f" y="317"/>
      </g>
     </g>
     <g id="text_9">
      <!-- 0.0 -->
      <g transform="translate(29.73 323.07875)scale(0.16 -0.16)">
       <use xlink:href="#DejaVuSans-30"/>
       <use x="63.623047" xlink:href="#DejaVuSans-2e"/>
       <use x="95.410156" xlink:href="#DejaVuSans-30"/>
      </g>
     </g>
    </g>
    <g id="ytick_6">
     <g id="line2d_18">
      <g>
       <use style="stroke:#000000;stroke-width:0.8;" x="62.175" xlink:href="#m8f6d9c3c2f" y="271.526201"/>
      </g>
     </g>
     <g id="text_10">
      <!-- 0.1 -->
      <g transform="translate(29.73 277.604951)scale(0.16 -0.16)">
       <use xlink:href="#DejaVuSans-30"/>
       <use x="63.623047" xlink:href="#DejaVuSans-2e"/>
       <use x="95.410156" xlink:href="#DejaVuSans-31"/>
      </g>
     </g>
    </g>
    <g id="ytick_7">
     <g id="line2d_19">
      <g>
       <use style="stroke:#000000;stroke-width:0.8;" x="62.175" xlink:href="#m8f6d9c3c2f" y="226.052401"/>
      </g>
     </g>
     <g id="text_11">
      <!-- 0.2 -->
      <g transform="translate(29.73 232.131151)scale(0.16 -0.16)">
       <use xlink:href="#DejaVuSans-30"/>
       <use x="63.623047" xlink:href="#DejaVuSans-2e"/>
       <use x="95.410156" xlink:href="#DejaVuSans-32"/>
      </g>
     </g>
    </g>
    <g id="ytick_8">
     <g id="line2d_20">
      <g>
       <use style="stroke:#000000;stroke-width:0.8;" x="62.175" xlink:href="#m8f6d9c3c2f" y="180.578602"/>
      </g>
     </g>
     <g id="text_12">
      <!-- 0.3 -->
      <g transform="translate(29.73 186.657352)scale(0.16 -0.16)">
       <use xlink:href="#DejaVuSans-30"/>
       <use x="63.623047" xlink:href="#DejaVuSans-2e"/>
       <use x="95.410156" xlink:href="#DejaVuSans-33"/>
      </g>
     </g>
    </g>
    <g id="text_13">
     <!-- Frequency -->
     <g transform="translate(22.4025 286.7275)rotate(-90)scale(0.16 -0.16)">
      <use xlink:href="#DejaVuSans-46"/>
      <use x="50.269531" xlink:href="#DejaVuSans-72"/>
      <use x="89.132812" xlink:href="#DejaVuSans-65"/>
      <use x="150.65625" xlink:href="#DejaVuSans-71"/>
      <use x="214.132812" xlink:href="#DejaVuSans-75"/>
      <use x="277.511719" xlink:href="#DejaVuSans-65"/>
      <use x="339.035156" xlink:href="#DejaVuSans-6e"/>
      <use x="402.414062" xlink:href="#DejaVuSans-63"/>
      <use x="457.394531" xlink:href="#DejaVuSans-79"/>
     </g>
    </g>
   </g>
   <g id="patch_50">
    <path d="M 62.175 317 
L 62.175 173.8 
" style="fill:none;stroke:#000000;stroke-linecap:square;stroke-linejoin:miter;stroke-width:0.8;"/>
   </g>
   <g id="patch_51">
    <path d="M 339.0125 317 
L 339.0125 173.8 
" style="fill:none;stroke:#000000;stroke-linecap:square;stroke-linejoin:miter;stroke-width:0.8;"/>
   </g>
   <g id="patch_52">
    <path d="M 62.175 317 
L 339.0125 317 
" style="fill:none;stroke:#000000;stroke-linecap:square;stroke-linejoin:miter;stroke-width:0.8;"/>
   </g>
   <g id="patch_53">
    <path d="M 62.175 173.8 
L 339.0125 173.8 
" style="fill:none;stroke:#000000;stroke-linecap:square;stroke-linejoin:miter;stroke-width:0.8;"/>
   </g>
   <g id="text_14">
    <!-- $\langle N \rangle_{\mathrm{rA_{30}}} = 3.1$ -->
    <g transform="translate(62.175 200.864)scale(0.13 -0.13)">
     <use transform="translate(0 0.125)" xlink:href="#DejaVuSans-27e8"/>
     <use transform="translate(39.013672 0.125)" xlink:href="#DejaVuSans-Oblique-4e"/>
     <use transform="translate(113.818359 0.125)" xlink:href="#DejaVuSans-27e9"/>
     <use transform="translate(153.789062 -16.28125)scale(0.7)" xlink:href="#DejaVuSans-72"/>
     <use transform="translate(182.568359 -16.28125)scale(0.7)" xlink:href="#DejaVuSans-41"/>
     <use transform="translate(231.124023 -27.765625)scale(0.49)" xlink:href="#DejaVuSans-33"/>
     <use transform="translate(262.299316 -27.765625)scale(0.49)" xlink:href="#DejaVuSans-30"/>
     <use transform="translate(317.605469 0.125)" xlink:href="#DejaVuSans-3d"/>
     <use transform="translate(420.876953 0.125)" xlink:href="#DejaVuSans-33"/>
     <use transform="translate(484.5 0.125)" xlink:href="#DejaVuSans-2e"/>
     <use transform="translate(516.287109 0.125)" xlink:href="#DejaVuSans-31"/>
    </g>
    <!-- $\langle N \rangle_{\mathrm{rU_{30}}} = 3.4$ -->
    <g transform="translate(62.175 216.49)scale(0.13 -0.13)">
     <use transform="translate(0 0.125)" xlink:href="#DejaVuSans-27e8"/>
     <use transform="translate(39.013672 0.125)" xlink:href="#DejaVuSans-Oblique-4e"/>
     <use transform="translate(113.818359 0.125)" xlink:href="#DejaVuSans-27e9"/>
     <use transform="translate(153.789062 -16.28125)scale(0.7)" xlink:href="#DejaVuSans-72"/>
     <use transform="translate(182.568359 -16.28125)scale(0.7)" xlink:href="#DejaVuSans-55"/>
     <use transform="translate(234.473633 -27.765625)scale(0.49)" xlink:href="#DejaVuSans-33"/>
     <use transform="translate(265.648926 -27.765625)scale(0.49)" xlink:href="#DejaVuSans-30"/>
     <use transform="translate(320.955078 0.125)" xlink:href="#DejaVuSans-3d"/>
     <use transform="translate(424.226562 0.125)" xlink:href="#DejaVuSans-33"/>
     <use transform="translate(487.849609 0.125)" xlink:href="#DejaVuSans-2e"/>
     <use transform="translate(519.636719 0.125)" xlink:href="#DejaVuSans-34"/>
    </g>
   </g>
  </g>
  <g id="axes_3">
   <g id="patch_54">
    <path d="M 62.175 480 
L 339.0125 480 
L 339.0125 336.8 
L 62.175 336.8 
z
" style="fill:#ffffff;"/>
   </g>
   <g id="patch_55">
    <path clip-path="url(#pc34efdd4d0)" d="M 66.569246 480 
L 75.357738 480 
L 75.357738 462.03398 
L 66.569246 462.03398 
z
" style="fill:#4878d0;opacity:0.7;"/>
   </g>
   <g id="patch_56">
    <path clip-path="url(#pc34efdd4d0)" d="M 92.934722 480 
L 101.723214 480 
L 101.723214 414.617069 
L 92.934722 414.617069 
z
" style="fill:#4878d0;opacity:0.7;"/>
   </g>
   <g id="patch_57">
    <path clip-path="url(#pc34efdd4d0)" d="M 119.300198 480 
L 128.08869 480 
L 128.08869 371.576997 
L 119.300198 371.576997 
z
" style="fill:#4878d0;opacity:0.7;"/>
   </g>
   <g id="patch_58">
    <path clip-path="url(#pc34efdd4d0)" d="M 145.665675 480 
L 154.454167 480 
L 154.454167 370.238177 
L 145.665675 370.238177 
z
" style="fill:#4878d0;opacity:0.7;"/>
   </g>
   <g id="patch_59">
    <path clip-path="url(#pc34efdd4d0)" d="M 172.031151 480 
L 180.819643 480 
L 180.819643 405.001506 
L 172.031151 405.001506 
z
" style="fill:#4878d0;opacity:0.7;"/>
   </g>
   <g id="patch_60">
    <path clip-path="url(#pc34efdd4d0)" d="M 198.396627 480 
L 207.185119 480 
L 207.185119 443.584725 
L 198.396627 443.584725 
z
" style="fill:#4878d0;opacity:0.7;"/>
   </g>
   <g id="patch_61">
    <path clip-path="url(#pc34efdd4d0)" d="M 224.762103 480 
L 233.550595 480 
L 233.550595 467.205921 
L 224.762103 467.205921 
z
" style="fill:#4878d0;opacity:0.7;"/>
   </g>
   <g id="patch_62">
    <path clip-path="url(#pc34efdd4d0)" d="M 251.127579 480 
L 259.916071 480 
L 259.916071 476.774231 
L 251.127579 476.774231 
z
" style="fill:#4878d0;opacity:0.7;"/>
   </g>
   <g id="patch_63">
    <path clip-path="url(#pc34efdd4d0)" d="M 277.493056 480 
L 286.281548 480 
L 286.281548 479.393278 
L 277.493056 479.393278 
z
" style="fill:#4878d0;opacity:0.7;"/>
   </g>
   <g id="patch_64">
    <path clip-path="url(#pc34efdd4d0)" d="M 303.858532 480 
L 312.647024 480 
L 312.647024 479.907385 
L 303.858532 479.907385 
z
" style="fill:#4878d0;opacity:0.7;"/>
   </g>
   <g id="patch_65">
    <path clip-path="url(#pc34efdd4d0)" d="M 75.357738 480 
L 84.14623 480 
L 84.14623 457.931146 
L 75.357738 457.931146 
z
" style="fill:#d65f5f;opacity:0.7;"/>
   </g>
   <g id="patch_66">
    <path clip-path="url(#pc34efdd4d0)" d="M 101.723214 480 
L 110.511706 480 
L 110.511706 405.694348 
L 101.723214 405.694348 
z
" style="fill:#d65f5f;opacity:0.7;"/>
   </g>
   <g id="patch_67">
    <path clip-path="url(#pc34efdd4d0)" d="M 128.08869 480 
L 136.877183 480 
L 136.877183 365.44 
L 128.08869 365.44 
z
" style="fill:#d65f5f;opacity:0.7;"/>
   </g>
   <g id="patch_68">
    <path clip-path="url(#pc34efdd4d0)" d="M 154.454167 480 
L 163.242659 480 
L 163.242659 372.787387 
L 154.454167 372.787387 
z
" style="fill:#d65f5f;opacity:0.7;"/>
   </g>
   <g id="patch_69">
    <path clip-path="url(#pc34efdd4d0)" d="M 180.819643 480 
L 189.608135 480 
L 189.608135 411.778567 
L 180.819643 411.778567 
z
" style="fill:#d65f5f;opacity:0.7;"/>
   </g>
   <g id="patch_70">
    <path clip-path="url(#pc34efdd4d0)" d="M 207.185119 480 
L 215.973611 480 
L 215.973611 449.608182 
L 207.185119 449.608182 
z
" style="fill:#d65f5f;opacity:0.7;"/>
   </g>
   <g id="patch_71">
    <path clip-path="url(#pc34efdd4d0)" d="M 233.550595 480 
L 242.339087 480 
L 242.339087 470.041892 
L 233.550595 470.041892 
z
" style="fill:#d65f5f;opacity:0.7;"/>
   </g>
   <g id="patch_72">
    <path clip-path="url(#pc34efdd4d0)" d="M 259.916071 480 
L 268.704563 480 
L 268.704563 477.529632 
L 259.916071 477.529632 
z
" style="fill:#d65f5f;opacity:0.7;"/>
   </g>
   <g id="patch_73">
    <path clip-path="url(#pc34efdd4d0)" d="M 286.281548 480 
L 295.07004 480 
L 295.07004 479.58411 
L 286.281548 479.58411 
z
" style="fill:#d65f5f;opacity:0.7;"/>
   </g>
   <g id="patch_74">
    <path clip-path="url(#pc34efdd4d0)" d="M 312.647024 480 
L 321.435516 480 
L 321.435516 479.938004 
L 312.647024 479.938004 
z
" style="fill:#d65f5f;opacity:0.7;"/>
   </g>
   <g id="matplotlib.axis_5">
    <g id="xtick_13">
     <g id="line2d_21">
      <g>
       <use style="stroke:#000000;stroke-width:0.8;" x="75.357738" xlink:href="#m874e42e080" y="480"/>
      </g>
     </g>
     <g id="text_15">
      <!-- 0 -->
      <g transform="translate(70.267738 499.1575)scale(0.16 -0.16)">
       <use xlink:href="#DejaVuSans-30"/>
      </g>
     </g>
    </g>
    <g id="xtick_14">
     <g id="line2d_22">
      <g>
       <use style="stroke:#000000;stroke-width:0.8;" x="128.08869" xlink:href="#m874e42e080" y="480"/>
      </g>
     </g>
     <g id="text_16">
      <!-- 2 -->
      <g transform="translate(122.99869 499.1575)scale(0.16 -0.16)">
       <use xlink:href="#DejaVuSans-32"/>
      </g>
     </g>
    </g>
    <g id="xtick_15">
     <g id="line2d_23">
      <g>
       <use style="stroke:#000000;stroke-width:0.8;" x="180.819643" xlink:href="#m874e42e080" y="480"/>
      </g>
     </g>
     <g id="text_17">
      <!-- 4 -->
      <g transform="translate(175.729643 499.1575)scale(0.16 -0.16)">
       <use xlink:href="#DejaVuSans-34"/>
      </g>
     </g>
    </g>
    <g id="xtick_16">
     <g id="line2d_24">
      <g>
       <use style="stroke:#000000;stroke-width:0.8;" x="233.550595" xlink:href="#m874e42e080" y="480"/>
      </g>
     </g>
     <g id="text_18">
      <!-- 6 -->
      <g transform="translate(228.460595 499.1575)scale(0.16 -0.16)">
       <defs>
        <path d="M 2113 2584 
Q 1688 2584 1439 2293 
Q 1191 2003 1191 1497 
Q 1191 994 1439 701 
Q 1688 409 2113 409 
Q 2538 409 2786 701 
Q 3034 994 3034 1497 
Q 3034 2003 2786 2293 
Q 2538 2584 2113 2584 
z
M 3366 4563 
L 3366 3988 
Q 3128 4100 2886 4159 
Q 2644 4219 2406 4219 
Q 1781 4219 1451 3797 
Q 1122 3375 1075 2522 
Q 1259 2794 1537 2939 
Q 1816 3084 2150 3084 
Q 2853 3084 3261 2657 
Q 3669 2231 3669 1497 
Q 3669 778 3244 343 
Q 2819 -91 2113 -91 
Q 1303 -91 875 529 
Q 447 1150 447 2328 
Q 447 3434 972 4092 
Q 1497 4750 2381 4750 
Q 2619 4750 2861 4703 
Q 3103 4656 3366 4563 
z
" id="DejaVuSans-36" transform="scale(0.015625)"/>
       </defs>
       <use xlink:href="#DejaVuSans-36"/>
      </g>
     </g>
    </g>
    <g id="xtick_17">
     <g id="line2d_25">
      <g>
       <use style="stroke:#000000;stroke-width:0.8;" x="286.281548" xlink:href="#m874e42e080" y="480"/>
      </g>
     </g>
     <g id="text_19">
      <!-- 8 -->
      <g transform="translate(281.191548 499.1575)scale(0.16 -0.16)">
       <use xlink:href="#DejaVuSans-38"/>
      </g>
     </g>
    </g>
    <g id="xtick_18">
     <g id="line2d_26">
      <g>
       <use style="stroke:#000000;stroke-width:0.8;" x="339.0125" xlink:href="#m874e42e080" y="480"/>
      </g>
     </g>
     <g id="text_20">
      <!-- 10 -->
      <g transform="translate(328.8325 499.1575)scale(0.16 -0.16)">
       <use xlink:href="#DejaVuSans-31"/>
       <use x="63.623047" xlink:href="#DejaVuSans-30"/>
      </g>
     </g>
    </g>
    <g id="text_21">
     <!-- $N_{\mathrm{Mg^{2+}}}$ -->
     <g transform="translate(175.66375 519.625)scale(0.18 -0.18)">
      <defs>
       <path d="M 628 4666 
L 1569 4666 
L 2759 1491 
L 3956 4666 
L 4897 4666 
L 4897 0 
L 4281 0 
L 4281 4097 
L 3078 897 
L 2444 897 
L 1241 4097 
L 1241 0 
L 628 0 
L 628 4666 
z
" id="DejaVuSans-4d" transform="scale(0.015625)"/>
       <path d="M 2906 1791 
Q 2906 2416 2648 2759 
Q 2391 3103 1925 3103 
Q 1463 3103 1205 2759 
Q 947 2416 947 1791 
Q 947 1169 1205 825 
Q 1463 481 1925 481 
Q 2391 481 2648 825 
Q 2906 1169 2906 1791 
z
M 3481 434 
Q 3481 -459 3084 -895 
Q 2688 -1331 1869 -1331 
Q 1566 -1331 1297 -1286 
Q 1028 -1241 775 -1147 
L 775 -588 
Q 1028 -725 1275 -790 
Q 1522 -856 1778 -856 
Q 2344 -856 2625 -561 
Q 2906 -266 2906 331 
L 2906 616 
Q 2728 306 2450 153 
Q 2172 0 1784 0 
Q 1141 0 747 490 
Q 353 981 353 1791 
Q 353 2603 747 3093 
Q 1141 3584 1784 3584 
Q 2172 3584 2450 3431 
Q 2728 3278 2906 2969 
L 2906 3500 
L 3481 3500 
L 3481 434 
z
" id="DejaVuSans-67" transform="scale(0.015625)"/>
       <path d="M 2944 4013 
L 2944 2272 
L 4684 2272 
L 4684 1741 
L 2944 1741 
L 2944 0 
L 2419 0 
L 2419 1741 
L 678 1741 
L 678 2272 
L 2419 2272 
L 2419 4013 
L 2944 4013 
z
" id="DejaVuSans-2b" transform="scale(0.015625)"/>
      </defs>
      <use transform="translate(0 0.09375)" xlink:href="#DejaVuSans-Oblique-4e"/>
      <use transform="translate(74.804688 -16.3125)scale(0.7)" xlink:href="#DejaVuSans-4d"/>
      <use transform="translate(135.200195 -16.3125)scale(0.7)" xlink:href="#DejaVuSans-67"/>
      <use transform="translate(180.303711 10.484375)scale(0.49)" xlink:href="#DejaVuSans-32"/>
      <use transform="translate(221.025391 10.484375)scale(0.49)" xlink:href="#DejaVuSans-2b"/>
     </g>
    </g>
   </g>
   <g id="matplotlib.axis_6">
    <g id="ytick_9">
     <g id="line2d_27">
      <g>
       <use style="stroke:#000000;stroke-width:0.8;" x="62.175" xlink:href="#m8f6d9c3c2f" y="480"/>
      </g>
     </g>
     <g id="text_22">
      <!-- 0.0 -->
      <g transform="translate(29.73 486.07875)scale(0.16 -0.16)">
       <use xlink:href="#DejaVuSans-30"/>
       <use x="63.623047" xlink:href="#DejaVuSans-2e"/>
       <use x="95.410156" xlink:href="#DejaVuSans-30"/>
      </g>
     </g>
    </g>
    <g id="ytick_10">
     <g id="line2d_28">
      <g>
       <use style="stroke:#000000;stroke-width:0.8;" x="62.175" xlink:href="#m8f6d9c3c2f" y="437.033327"/>
      </g>
     </g>
     <g id="text_23">
      <!-- 0.1 -->
      <g transform="translate(29.73 443.112077)scale(0.16 -0.16)">
       <use xlink:href="#DejaVuSans-30"/>
       <use x="63.623047" xlink:href="#DejaVuSans-2e"/>
       <use x="95.410156" xlink:href="#DejaVuSans-31"/>
      </g>
     </g>
    </g>
    <g id="ytick_11">
     <g id="line2d_29">
      <g>
       <use style="stroke:#000000;stroke-width:0.8;" x="62.175" xlink:href="#m8f6d9c3c2f" y="394.066654"/>
      </g>
     </g>
     <g id="text_24">
      <!-- 0.2 -->
      <g transform="translate(29.73 400.145404)scale(0.16 -0.16)">
       <use xlink:href="#DejaVuSans-30"/>
       <use x="63.623047" xlink:href="#DejaVuSans-2e"/>
       <use x="95.410156" xlink:href="#DejaVuSans-32"/>
      </g>
     </g>
    </g>
    <g id="ytick_12">
     <g id="line2d_30">
      <g>
       <use style="stroke:#000000;stroke-width:0.8;" x="62.175" xlink:href="#m8f6d9c3c2f" y="351.09998"/>
      </g>
     </g>
     <g id="text_25">
      <!-- 0.3 -->
      <g transform="translate(29.73 357.17873)scale(0.16 -0.16)">
       <use xlink:href="#DejaVuSans-30"/>
       <use x="63.623047" xlink:href="#DejaVuSans-2e"/>
       <use x="95.410156" xlink:href="#DejaVuSans-33"/>
      </g>
     </g>
    </g>
    <g id="text_26">
     <!-- Frequency -->
     <g transform="translate(22.4025 449.7275)rotate(-90)scale(0.16 -0.16)">
      <use xlink:href="#DejaVuSans-46"/>
      <use x="50.269531" xlink:href="#DejaVuSans-72"/>
      <use x="89.132812" xlink:href="#DejaVuSans-65"/>
      <use x="150.65625" xlink:href="#DejaVuSans-71"/>
      <use x="214.132812" xlink:href="#DejaVuSans-75"/>
      <use x="277.511719" xlink:href="#DejaVuSans-65"/>
      <use x="339.035156" xlink:href="#DejaVuSans-6e"/>
      <use x="402.414062" xlink:href="#DejaVuSans-63"/>
      <use x="457.394531" xlink:href="#DejaVuSans-79"/>
     </g>
    </g>
   </g>
   <g id="patch_75">
    <path d="M 62.175 480 
L 62.175 336.8 
" style="fill:none;stroke:#000000;stroke-linecap:square;stroke-linejoin:miter;stroke-width:0.8;"/>
   </g>
   <g id="patch_76">
    <path d="M 339.0125 480 
L 339.0125 336.8 
" style="fill:none;stroke:#000000;stroke-linecap:square;stroke-linejoin:miter;stroke-width:0.8;"/>
   </g>
   <g id="patch_77">
    <path d="M 62.175 480 
L 339.0125 480 
" style="fill:none;stroke:#000000;stroke-linecap:square;stroke-linejoin:miter;stroke-width:0.8;"/>
   </g>
   <g id="patch_78">
    <path d="M 62.175 336.8 
L 339.0125 336.8 
" style="fill:none;stroke:#000000;stroke-linecap:square;stroke-linejoin:miter;stroke-width:0.8;"/>
   </g>
   <g id="text_27">
    <!-- $\langle N \rangle_{\mathrm{rA_{30}}} = 2.8$ -->
    <g transform="translate(62.175 363.864)scale(0.13 -0.13)">
     <use transform="translate(0 0.125)" xlink:href="#DejaVuSans-27e8"/>
     <use transform="translate(39.013672 0.125)" xlink:href="#DejaVuSans-Oblique-4e"/>
     <use transform="translate(113.818359 0.125)" xlink:href="#DejaVuSans-27e9"/>
     <use transform="translate(153.789062 -16.28125)scale(0.7)" xlink:href="#DejaVuSans-72"/>
     <use transform="translate(182.568359 -16.28125)scale(0.7)" xlink:href="#DejaVuSans-41"/>
     <use transform="translate(231.124023 -27.765625)scale(0.49)" xlink:href="#DejaVuSans-33"/>
     <use transform="translate(262.299316 -27.765625)scale(0.49)" xlink:href="#DejaVuSans-30"/>
     <use transform="translate(317.605469 0.125)" xlink:href="#DejaVuSans-3d"/>
     <use transform="translate(420.876953 0.125)" xlink:href="#DejaVuSans-32"/>
     <use transform="translate(484.5 0.125)" xlink:href="#DejaVuSans-2e"/>
     <use transform="translate(513.662109 0.125)" xlink:href="#DejaVuSans-38"/>
    </g>
    <!-- $\langle N \rangle_{\mathrm{rU_{30}}} = 2.6$ -->
    <g transform="translate(62.175 379.49)scale(0.13 -0.13)">
     <use transform="translate(0 0.125)" xlink:href="#DejaVuSans-27e8"/>
     <use transform="translate(39.013672 0.125)" xlink:href="#DejaVuSans-Oblique-4e"/>
     <use transform="translate(113.818359 0.125)" xlink:href="#DejaVuSans-27e9"/>
     <use transform="translate(153.789062 -16.28125)scale(0.7)" xlink:href="#DejaVuSans-72"/>
     <use transform="translate(182.568359 -16.28125)scale(0.7)" xlink:href="#DejaVuSans-55"/>
     <use transform="translate(234.473633 -27.765625)scale(0.49)" xlink:href="#DejaVuSans-33"/>
     <use transform="translate(265.648926 -27.765625)scale(0.49)" xlink:href="#DejaVuSans-30"/>
     <use transform="translate(320.955078 0.125)" xlink:href="#DejaVuSans-3d"/>
     <use transform="translate(424.226562 0.125)" xlink:href="#DejaVuSans-32"/>
     <use transform="translate(487.849609 0.125)" xlink:href="#DejaVuSans-2e"/>
     <use transform="translate(519.636719 0.125)" xlink:href="#DejaVuSans-36"/>
    </g>
   </g>
  </g>
 </g>
 <defs>
  <clipPath id="p764153d2a3">
   <rect height="143.2" width="276.8375" x="62.175" y="10.8"/>
  </clipPath>
  <clipPath id="p6cfe979971">
   <rect height="143.2" width="276.8375" x="62.175" y="173.8"/>
  </clipPath>
  <clipPath id="pc34efdd4d0">
   <rect height="143.2" width="276.8375" x="62.175" y="336.8"/>
  </clipPath>
 </defs>
</svg>
