<?xml version="1.0" encoding="utf-8" standalone="no"?>
<!DOCTYPE svg PUBLIC "-//W3C//DTD SVG 1.1//EN"
  "http://www.w3.org/Graphics/SVG/1.1/DTD/svg11.dtd">
<svg height="360pt" version="1.1" viewBox="0 0 720 360" width="720pt" xmlns="http://www.w3.org/2000/svg" xmlns:xlink="http://www.w3.org/1999/xlink">
 <metadata>
  <rdf:RDF xmlns:cc="http://creativecommons.org/ns#" xmlns:dc="http://purl.org/dc/elements/1.1/" xmlns:rdf="http://www.w3.org/1999/02/22-rdf-syntax-ns#">
   <cc:Work>
    <dc:type rdf:resource="http://purl.org/dc/dcmitype/StillImage"/>
    <dc:date>2026-04-25T21:09:43.302486</dc:date>
    <dc:format>image/svg+xml</dc:format>
    <dc:creator>
     <cc:Agent>
      <dc:title>Matplotlib v3.4.3, https://matplotlib.org/</dc:title>
     </cc:Agent>
    </dc:creator>
   </cc:Work>
  </rdf:RDF>
 </metadata>
 <defs>
  <style type="text/css">*{stroke-linecap:butt;stroke-linejoin:round;}</style>
 </defs>
 <g id="figure_1">
  <g id="patch_1">
   <path d="M 0 360 
L 720 360 
L 720 0 
L 0 0 
z
" style="fill:none;"/>
  </g>
  <g id="axes_1">
   <g id="patch_2">
    <path d="M 73 302.2 
L 378.541426 302.2 
L 378.541426 31.8 
L 73 31.8 
z
" style="fill:#ffffff;"/>
   </g>
   <g id="matplotlib.axis_1">
    <g id="xtick_1">
     <g id="line2d_1">
      <defs>
       <path d="M 0 0 
L 0 3.5 
" id="mfee1cf014b" style="stroke:#000000;stroke-width:0.8;"/>
      </defs>
      <g>
       <use style="stroke:#000000;stroke-width:0.8;" x="86.888247" xlink:href="#mfee1cf014b" y="302.2"/>
      </g>
     </g>
     <g id="text_1">
      <!-- 0 -->
      <g transform="translate(81.161997 322.877187)scale(0.18 -0.18)">
       <defs>
        <path d="M 2034 4250 
Q 1547 4250 1301 3770 
Q 1056 3291 1056 2328 
Q 1056 1369 1301 889 
Q 1547 409 2034 409 
Q 2525 409 2770 889 
Q 3016 1369 3016 2328 
Q 3016 3291 2770 3770 
Q 2525 4250 2034 4250 
z
M 2034 4750 
Q 2819 4750 3233 4129 
Q 3647 3509 3647 2328 
Q 3647 1150 3233 529 
Q 2819 -91 2034 -91 
Q 1250 -91 836 529 
Q 422 1150 422 2328 
Q 422 3509 836 4129 
Q 1250 4750 2034 4750 
z
" id="DejaVuSans-30" transform="scale(0.015625)"/>
       </defs>
       <use xlink:href="#DejaVuSans-30"/>
      </g>
     </g>
    </g>
    <g id="xtick_2">
     <g id="line2d_2">
      <g>
       <use style="stroke:#000000;stroke-width:0.8;" x="142.441233" xlink:href="#mfee1cf014b" y="302.2"/>
      </g>
     </g>
     <g id="text_2">
      <!-- 20 -->
      <g transform="translate(130.988733 322.877187)scale(0.18 -0.18)">
       <defs>
        <path d="M 1228 531 
L 3431 531 
L 3431 0 
L 469 0 
L 469 531 
Q 828 903 1448 1529 
Q 2069 2156 2228 2338 
Q 2531 2678 2651 2914 
Q 2772 3150 2772 3378 
Q 2772 3750 2511 3984 
Q 2250 4219 1831 4219 
Q 1534 4219 1204 4116 
Q 875 4013 500 3803 
L 500 4441 
Q 881 4594 1212 4672 
Q 1544 4750 1819 4750 
Q 2544 4750 2975 4387 
Q 3406 4025 3406 3419 
Q 3406 3131 3298 2873 
Q 3191 2616 2906 2266 
Q 2828 2175 2409 1742 
Q 1991 1309 1228 531 
z
" id="DejaVuSans-32" transform="scale(0.015625)"/>
       </defs>
       <use xlink:href="#DejaVuSans-32"/>
       <use x="63.623047" xlink:href="#DejaVuSans-30"/>
      </g>
     </g>
    </g>
    <g id="xtick_3">
     <g id="line2d_3">
      <g>
       <use style="stroke:#000000;stroke-width:0.8;" x="197.99422" xlink:href="#mfee1cf014b" y="302.2"/>
      </g>
     </g>
     <g id="text_3">
      <!-- 40 -->
      <g transform="translate(186.54172 322.877187)scale(0.18 -0.18)">
       <defs>
        <path d="M 2419 4116 
L 825 1625 
L 2419 1625 
L 2419 4116 
z
M 2253 4666 
L 3047 4666 
L 3047 1625 
L 3713 1625 
L 3713 1100 
L 3047 1100 
L 3047 0 
L 2419 0 
L 2419 1100 
L 313 1100 
L 313 1709 
L 2253 4666 
z
" id="DejaVuSans-34" transform="scale(0.015625)"/>
       </defs>
       <use xlink:href="#DejaVuSans-34"/>
       <use x="63.623047" xlink:href="#DejaVuSans-30"/>
      </g>
     </g>
    </g>
    <g id="xtick_4">
     <g id="line2d_4">
      <g>
       <use style="stroke:#000000;stroke-width:0.8;" x="253.547206" xlink:href="#mfee1cf014b" y="302.2"/>
      </g>
     </g>
     <g id="text_4">
      <!-- 60 -->
      <g transform="translate(242.094706 322.877187)scale(0.18 -0.18)">
       <defs>
        <path d="M 2113 2584 
Q 1688 2584 1439 2293 
Q 1191 2003 1191 1497 
Q 1191 994 1439 701 
Q 1688 409 2113 409 
Q 2538 409 2786 701 
Q 3034 994 3034 1497 
Q 3034 2003 2786 2293 
Q 2538 2584 2113 2584 
z
M 3366 4563 
L 3366 3988 
Q 3128 4100 2886 4159 
Q 2644 4219 2406 4219 
Q 1781 4219 1451 3797 
Q 1122 3375 1075 2522 
Q 1259 2794 1537 2939 
Q 1816 3084 2150 3084 
Q 2853 3084 3261 2657 
Q 3669 2231 3669 1497 
Q 3669 778 3244 343 
Q 2819 -91 2113 -91 
Q 1303 -91 875 529 
Q 447 1150 447 2328 
Q 447 3434 972 4092 
Q 1497 4750 2381 4750 
Q 2619 4750 2861 4703 
Q 3103 4656 3366 4563 
z
" id="DejaVuSans-36" transform="scale(0.015625)"/>
       </defs>
       <use xlink:href="#DejaVuSans-36"/>
       <use x="63.623047" xlink:href="#DejaVuSans-30"/>
      </g>
     </g>
    </g>
    <g id="xtick_5">
     <g id="line2d_5">
      <g>
       <use style="stroke:#000000;stroke-width:0.8;" x="309.100193" xlink:href="#mfee1cf014b" y="302.2"/>
      </g>
     </g>
     <g id="text_5">
      <!-- 80 -->
      <g transform="translate(297.647693 322.877187)scale(0.18 -0.18)">
       <defs>
        <path d="M 2034 2216 
Q 1584 2216 1326 1975 
Q 1069 1734 1069 1313 
Q 1069 891 1326 650 
Q 1584 409 2034 409 
Q 2484 409 2743 651 
Q 3003 894 3003 1313 
Q 3003 1734 2745 1975 
Q 2488 2216 2034 2216 
z
M 1403 2484 
Q 997 2584 770 2862 
Q 544 3141 544 3541 
Q 544 4100 942 4425 
Q 1341 4750 2034 4750 
Q 2731 4750 3128 4425 
Q 3525 4100 3525 3541 
Q 3525 3141 3298 2862 
Q 3072 2584 2669 2484 
Q 3125 2378 3379 2068 
Q 3634 1759 3634 1313 
Q 3634 634 3220 271 
Q 2806 -91 2034 -91 
Q 1263 -91 848 271 
Q 434 634 434 1313 
Q 434 1759 690 2068 
Q 947 2378 1403 2484 
z
M 1172 3481 
Q 1172 3119 1398 2916 
Q 1625 2713 2034 2713 
Q 2441 2713 2670 2916 
Q 2900 3119 2900 3481 
Q 2900 3844 2670 4047 
Q 2441 4250 2034 4250 
Q 1625 4250 1398 4047 
Q 1172 3844 1172 3481 
z
" id="DejaVuSans-38" transform="scale(0.015625)"/>
       </defs>
       <use xlink:href="#DejaVuSans-38"/>
       <use x="63.623047" xlink:href="#DejaVuSans-30"/>
      </g>
     </g>
    </g>
    <g id="xtick_6">
     <g id="line2d_6">
      <g>
       <use style="stroke:#000000;stroke-width:0.8;" x="364.653179" xlink:href="#mfee1cf014b" y="302.2"/>
      </g>
     </g>
     <g id="text_6">
      <!-- 100 -->
      <g transform="translate(347.474429 322.877187)scale(0.18 -0.18)">
       <defs>
        <path d="M 794 531 
L 1825 531 
L 1825 4091 
L 703 3866 
L 703 4441 
L 1819 4666 
L 2450 4666 
L 2450 531 
L 3481 531 
L 3481 0 
L 794 0 
L 794 531 
z
" id="DejaVuSans-31" transform="scale(0.015625)"/>
       </defs>
       <use xlink:href="#DejaVuSans-31"/>
       <use x="63.623047" xlink:href="#DejaVuSans-30"/>
       <use x="127.246094" xlink:href="#DejaVuSans-30"/>
      </g>
     </g>
    </g>
    <g id="text_7">
     <!-- Temperature (°C) -->
     <g transform="translate(148.0979 344.297812)scale(0.18 -0.18)">
      <defs>
       <path d="M -19 4666 
L 3928 4666 
L 3928 4134 
L 2272 4134 
L 2272 0 
L 1638 0 
L 1638 4134 
L -19 4134 
L -19 4666 
z
" id="DejaVuSans-54" transform="scale(0.015625)"/>
       <path d="M 3597 1894 
L 3597 1613 
L 953 1613 
Q 991 1019 1311 708 
Q 1631 397 2203 397 
Q 2534 397 2845 478 
Q 3156 559 3463 722 
L 3463 178 
Q 3153 47 2828 -22 
Q 2503 -91 2169 -91 
Q 1331 -91 842 396 
Q 353 884 353 1716 
Q 353 2575 817 3079 
Q 1281 3584 2069 3584 
Q 2775 3584 3186 3129 
Q 3597 2675 3597 1894 
z
M 3022 2063 
Q 3016 2534 2758 2815 
Q 2500 3097 2075 3097 
Q 1594 3097 1305 2825 
Q 1016 2553 972 2059 
L 3022 2063 
z
" id="DejaVuSans-65" transform="scale(0.015625)"/>
       <path d="M 3328 2828 
Q 3544 3216 3844 3400 
Q 4144 3584 4550 3584 
Q 5097 3584 5394 3201 
Q 5691 2819 5691 2113 
L 5691 0 
L 5113 0 
L 5113 2094 
Q 5113 2597 4934 2840 
Q 4756 3084 4391 3084 
Q 3944 3084 3684 2787 
Q 3425 2491 3425 1978 
L 3425 0 
L 2847 0 
L 2847 2094 
Q 2847 2600 2669 2842 
Q 2491 3084 2119 3084 
Q 1678 3084 1418 2786 
Q 1159 2488 1159 1978 
L 1159 0 
L 581 0 
L 581 3500 
L 1159 3500 
L 1159 2956 
Q 1356 3278 1631 3431 
Q 1906 3584 2284 3584 
Q 2666 3584 2933 3390 
Q 3200 3197 3328 2828 
z
" id="DejaVuSans-6d" transform="scale(0.015625)"/>
       <path d="M 1159 525 
L 1159 -1331 
L 581 -1331 
L 581 3500 
L 1159 3500 
L 1159 2969 
Q 1341 3281 1617 3432 
Q 1894 3584 2278 3584 
Q 2916 3584 3314 3078 
Q 3713 2572 3713 1747 
Q 3713 922 3314 415 
Q 2916 -91 2278 -91 
Q 1894 -91 1617 61 
Q 1341 213 1159 525 
z
M 3116 1747 
Q 3116 2381 2855 2742 
Q 2594 3103 2138 3103 
Q 1681 3103 1420 2742 
Q 1159 2381 1159 1747 
Q 1159 1113 1420 752 
Q 1681 391 2138 391 
Q 2594 391 2855 752 
Q 3116 1113 3116 1747 
z
" id="DejaVuSans-70" transform="scale(0.015625)"/>
       <path d="M 2631 2963 
Q 2534 3019 2420 3045 
Q 2306 3072 2169 3072 
Q 1681 3072 1420 2755 
Q 1159 2438 1159 1844 
L 1159 0 
L 581 0 
L 581 3500 
L 1159 3500 
L 1159 2956 
Q 1341 3275 1631 3429 
Q 1922 3584 2338 3584 
Q 2397 3584 2469 3576 
Q 2541 3569 2628 3553 
L 2631 2963 
z
" id="DejaVuSans-72" transform="scale(0.015625)"/>
       <path d="M 2194 1759 
Q 1497 1759 1228 1600 
Q 959 1441 959 1056 
Q 959 750 1161 570 
Q 1363 391 1709 391 
Q 2188 391 2477 730 
Q 2766 1069 2766 1631 
L 2766 1759 
L 2194 1759 
z
M 3341 1997 
L 3341 0 
L 2766 0 
L 2766 531 
Q 2569 213 2275 61 
Q 1981 -91 1556 -91 
Q 1019 -91 701 211 
Q 384 513 384 1019 
Q 384 1609 779 1909 
Q 1175 2209 1959 2209 
L 2766 2209 
L 2766 2266 
Q 2766 2663 2505 2880 
Q 2244 3097 1772 3097 
Q 1472 3097 1187 3025 
Q 903 2953 641 2809 
L 641 3341 
Q 956 3463 1253 3523 
Q 1550 3584 1831 3584 
Q 2591 3584 2966 3190 
Q 3341 2797 3341 1997 
z
" id="DejaVuSans-61" transform="scale(0.015625)"/>
       <path d="M 1172 4494 
L 1172 3500 
L 2356 3500 
L 2356 3053 
L 1172 3053 
L 1172 1153 
Q 1172 725 1289 603 
Q 1406 481 1766 481 
L 2356 481 
L 2356 0 
L 1766 0 
Q 1100 0 847 248 
Q 594 497 594 1153 
L 594 3053 
L 172 3053 
L 172 3500 
L 594 3500 
L 594 4494 
L 1172 4494 
z
" id="DejaVuSans-74" transform="scale(0.015625)"/>
       <path d="M 544 1381 
L 544 3500 
L 1119 3500 
L 1119 1403 
Q 1119 906 1312 657 
Q 1506 409 1894 409 
Q 2359 409 2629 706 
Q 2900 1003 2900 1516 
L 2900 3500 
L 3475 3500 
L 3475 0 
L 2900 0 
L 2900 538 
Q 2691 219 2414 64 
Q 2138 -91 1772 -91 
Q 1169 -91 856 284 
Q 544 659 544 1381 
z
M 1991 3584 
L 1991 3584 
z
" id="DejaVuSans-75" transform="scale(0.015625)"/>
       <path id="DejaVuSans-20" transform="scale(0.015625)"/>
       <path d="M 1984 4856 
Q 1566 4138 1362 3434 
Q 1159 2731 1159 2009 
Q 1159 1288 1364 580 
Q 1569 -128 1984 -844 
L 1484 -844 
Q 1016 -109 783 600 
Q 550 1309 550 2009 
Q 550 2706 781 3412 
Q 1013 4119 1484 4856 
L 1984 4856 
z
" id="DejaVuSans-28" transform="scale(0.015625)"/>
       <path d="M 1600 4347 
Q 1350 4347 1178 4173 
Q 1006 4000 1006 3750 
Q 1006 3503 1178 3333 
Q 1350 3163 1600 3163 
Q 1850 3163 2022 3333 
Q 2194 3503 2194 3750 
Q 2194 3997 2020 4172 
Q 1847 4347 1600 4347 
z
M 1600 4750 
Q 1800 4750 1984 4673 
Q 2169 4597 2303 4453 
Q 2447 4313 2519 4134 
Q 2591 3956 2591 3750 
Q 2591 3338 2302 3052 
Q 2013 2766 1594 2766 
Q 1172 2766 890 3047 
Q 609 3328 609 3750 
Q 609 4169 896 4459 
Q 1184 4750 1600 4750 
z
" id="DejaVuSans-b0" transform="scale(0.015625)"/>
       <path d="M 4122 4306 
L 4122 3641 
Q 3803 3938 3442 4084 
Q 3081 4231 2675 4231 
Q 1875 4231 1450 3742 
Q 1025 3253 1025 2328 
Q 1025 1406 1450 917 
Q 1875 428 2675 428 
Q 3081 428 3442 575 
Q 3803 722 4122 1019 
L 4122 359 
Q 3791 134 3420 21 
Q 3050 -91 2638 -91 
Q 1578 -91 968 557 
Q 359 1206 359 2328 
Q 359 3453 968 4101 
Q 1578 4750 2638 4750 
Q 3056 4750 3426 4639 
Q 3797 4528 4122 4306 
z
" id="DejaVuSans-43" transform="scale(0.015625)"/>
       <path d="M 513 4856 
L 1013 4856 
Q 1481 4119 1714 3412 
Q 1947 2706 1947 2009 
Q 1947 1309 1714 600 
Q 1481 -109 1013 -844 
L 513 -844 
Q 928 -128 1133 580 
Q 1338 1288 1338 2009 
Q 1338 2731 1133 3434 
Q 928 4138 513 4856 
z
" id="DejaVuSans-29" transform="scale(0.015625)"/>
      </defs>
      <use xlink:href="#DejaVuSans-54"/>
      <use x="44.083984" xlink:href="#DejaVuSans-65"/>
      <use x="105.607422" xlink:href="#DejaVuSans-6d"/>
      <use x="203.019531" xlink:href="#DejaVuSans-70"/>
      <use x="266.496094" xlink:href="#DejaVuSans-65"/>
      <use x="328.019531" xlink:href="#DejaVuSans-72"/>
      <use x="369.132812" xlink:href="#DejaVuSans-61"/>
      <use x="430.412109" xlink:href="#DejaVuSans-74"/>
      <use x="469.621094" xlink:href="#DejaVuSans-75"/>
      <use x="533" xlink:href="#DejaVuSans-72"/>
      <use x="571.863281" xlink:href="#DejaVuSans-65"/>
      <use x="633.386719" xlink:href="#DejaVuSans-20"/>
      <use x="665.173828" xlink:href="#DejaVuSans-28"/>
      <use x="704.1875" xlink:href="#DejaVuSans-b0"/>
      <use x="754.1875" xlink:href="#DejaVuSans-43"/>
      <use x="824.011719" xlink:href="#DejaVuSans-29"/>
     </g>
    </g>
   </g>
   <g id="matplotlib.axis_2">
    <g id="ytick_1">
     <g id="line2d_7">
      <defs>
       <path d="M 0 0 
L -3.5 0 
" id="m312ccadbd8" style="stroke:#000000;stroke-width:0.8;"/>
      </defs>
      <g>
       <use style="stroke:#000000;stroke-width:0.8;" x="73" xlink:href="#m312ccadbd8" y="302.2"/>
      </g>
     </g>
     <g id="text_8">
      <!-- 22 -->
      <g transform="translate(43.095 309.038594)scale(0.18 -0.18)">
       <use xlink:href="#DejaVuSans-32"/>
       <use x="63.623047" xlink:href="#DejaVuSans-32"/>
      </g>
     </g>
    </g>
    <g id="ytick_2">
     <g id="line2d_8">
      <g>
       <use style="stroke:#000000;stroke-width:0.8;" x="73" xlink:href="#m312ccadbd8" y="234.6"/>
      </g>
     </g>
     <g id="text_9">
      <!-- 24 -->
      <g transform="translate(43.095 241.438594)scale(0.18 -0.18)">
       <use xlink:href="#DejaVuSans-32"/>
       <use x="63.623047" xlink:href="#DejaVuSans-34"/>
      </g>
     </g>
    </g>
    <g id="ytick_3">
     <g id="line2d_9">
      <g>
       <use style="stroke:#000000;stroke-width:0.8;" x="73" xlink:href="#m312ccadbd8" y="167"/>
      </g>
     </g>
     <g id="text_10">
      <!-- 26 -->
      <g transform="translate(43.095 173.838594)scale(0.18 -0.18)">
       <use xlink:href="#DejaVuSans-32"/>
       <use x="63.623047" xlink:href="#DejaVuSans-36"/>
      </g>
     </g>
    </g>
    <g id="ytick_4">
     <g id="line2d_10">
      <g>
       <use style="stroke:#000000;stroke-width:0.8;" x="73" xlink:href="#m312ccadbd8" y="99.4"/>
      </g>
     </g>
     <g id="text_11">
      <!-- 28 -->
      <g transform="translate(43.095 106.238594)scale(0.18 -0.18)">
       <use xlink:href="#DejaVuSans-32"/>
       <use x="63.623047" xlink:href="#DejaVuSans-38"/>
      </g>
     </g>
    </g>
    <g id="ytick_5">
     <g id="line2d_11">
      <g>
       <use style="stroke:#000000;stroke-width:0.8;" x="73" xlink:href="#m312ccadbd8" y="31.8"/>
      </g>
     </g>
     <g id="text_12">
      <!-- 30 -->
      <g transform="translate(43.095 38.638594)scale(0.18 -0.18)">
       <defs>
        <path d="M 2597 2516 
Q 3050 2419 3304 2112 
Q 3559 1806 3559 1356 
Q 3559 666 3084 287 
Q 2609 -91 1734 -91 
Q 1441 -91 1130 -33 
Q 819 25 488 141 
L 488 750 
Q 750 597 1062 519 
Q 1375 441 1716 441 
Q 2309 441 2620 675 
Q 2931 909 2931 1356 
Q 2931 1769 2642 2001 
Q 2353 2234 1838 2234 
L 1294 2234 
L 1294 2753 
L 1863 2753 
Q 2328 2753 2575 2939 
Q 2822 3125 2822 3475 
Q 2822 3834 2567 4026 
Q 2313 4219 1838 4219 
Q 1578 4219 1281 4162 
Q 984 4106 628 3988 
L 628 4550 
Q 988 4650 1302 4700 
Q 1616 4750 1894 4750 
Q 2613 4750 3031 4423 
Q 3450 4097 3450 3541 
Q 3450 3153 3228 2886 
Q 3006 2619 2597 2516 
z
" id="DejaVuSans-33" transform="scale(0.015625)"/>
       </defs>
       <use xlink:href="#DejaVuSans-33"/>
       <use x="63.623047" xlink:href="#DejaVuSans-30"/>
      </g>
     </g>
    </g>
    <g id="text_13">
     <!-- R$_\mathrm{g}$ ($\mathrm{\AA}$) -->
     <g transform="translate(33.515 193.64)rotate(-90)scale(0.18 -0.18)">
      <defs>
       <path d="M 2841 2188 
Q 3044 2119 3236 1894 
Q 3428 1669 3622 1275 
L 4263 0 
L 3584 0 
L 2988 1197 
Q 2756 1666 2539 1819 
Q 2322 1972 1947 1972 
L 1259 1972 
L 1259 0 
L 628 0 
L 628 4666 
L 2053 4666 
Q 2853 4666 3247 4331 
Q 3641 3997 3641 3322 
Q 3641 2881 3436 2590 
Q 3231 2300 2841 2188 
z
M 1259 4147 
L 1259 2491 
L 2053 2491 
Q 2509 2491 2742 2702 
Q 2975 2913 2975 3322 
Q 2975 3731 2742 3939 
Q 2509 4147 2053 4147 
L 1259 4147 
z
" id="DejaVuSans-52" transform="scale(0.015625)"/>
       <path d="M 2906 1791 
Q 2906 2416 2648 2759 
Q 2391 3103 1925 3103 
Q 1463 3103 1205 2759 
Q 947 2416 947 1791 
Q 947 1169 1205 825 
Q 1463 481 1925 481 
Q 2391 481 2648 825 
Q 2906 1169 2906 1791 
z
M 3481 434 
Q 3481 -459 3084 -895 
Q 2688 -1331 1869 -1331 
Q 1566 -1331 1297 -1286 
Q 1028 -1241 775 -1147 
L 775 -588 
Q 1028 -725 1275 -790 
Q 1522 -856 1778 -856 
Q 2344 -856 2625 -561 
Q 2906 -266 2906 331 
L 2906 616 
Q 2728 306 2450 153 
Q 2172 0 1784 0 
Q 1141 0 747 490 
Q 353 981 353 1791 
Q 353 2603 747 3093 
Q 1141 3584 1784 3584 
Q 2172 3584 2450 3431 
Q 2728 3278 2906 2969 
L 2906 3500 
L 3481 3500 
L 3481 434 
z
" id="DejaVuSans-67" transform="scale(0.015625)"/>
       <path d="M 2663 5081 
Q 2663 5278 2523 5417 
Q 2384 5556 2188 5556 
Q 1988 5556 1852 5420 
Q 1716 5284 1716 5081 
Q 1716 4884 1853 4746 
Q 1991 4609 2188 4609 
Q 2384 4609 2523 4746 
Q 2663 4884 2663 5081 
z
M 2188 4044 
L 1338 1722 
L 3041 1722 
L 2188 4044 
z
M 1716 4366 
Q 1525 4494 1428 4673 
Q 1331 4853 1331 5081 
Q 1331 5441 1579 5691 
Q 1828 5941 2188 5941 
Q 2544 5941 2795 5689 
Q 3047 5438 3047 5081 
Q 3047 4863 2948 4678 
Q 2850 4494 2663 4366 
L 4325 0 
L 3669 0 
L 3244 1197 
L 1141 1197 
L 716 0 
L 50 0 
L 1716 4366 
z
" id="DejaVuSans-c5" transform="scale(0.015625)"/>
      </defs>
      <use transform="translate(0 0.171875)" xlink:href="#DejaVuSans-52"/>
      <use transform="translate(70.439453 -16.234375)scale(0.7)" xlink:href="#DejaVuSans-67"/>
      <use transform="translate(117.607422 0.171875)" xlink:href="#DejaVuSans-20"/>
      <use transform="translate(149.394531 0.171875)" xlink:href="#DejaVuSans-28"/>
      <use transform="translate(188.408203 0.171875)" xlink:href="#DejaVuSans-c5"/>
      <use transform="translate(256.816406 0.171875)" xlink:href="#DejaVuSans-29"/>
     </g>
    </g>
   </g>
   <g id="LineCollection_1">
    <path clip-path="url(#p7a2772c2ff)" d="M 86.888247 127.920049 
L 86.888247 125.705552 
" style="fill:none;stroke:#000000;stroke-width:1.5;"/>
    <path clip-path="url(#p7a2772c2ff)" d="M 142.441233 94.755009 
L 142.441233 92.424966 
" style="fill:none;stroke:#000000;stroke-width:1.5;"/>
    <path clip-path="url(#p7a2772c2ff)" d="M 197.99422 68.8141 
L 197.99422 66.415607 
" style="fill:none;stroke:#000000;stroke-width:1.5;"/>
    <path clip-path="url(#p7a2772c2ff)" d="M 253.547206 57.509007 
L 253.547206 55.148057 
" style="fill:none;stroke:#000000;stroke-width:1.5;"/>
    <path clip-path="url(#p7a2772c2ff)" d="M 309.100193 53.803604 
L 309.100193 51.329742 
" style="fill:none;stroke:#000000;stroke-width:1.5;"/>
    <path clip-path="url(#p7a2772c2ff)" d="M 364.653179 60.29106 
L 364.653179 57.958394 
" style="fill:none;stroke:#000000;stroke-width:1.5;"/>
   </g>
   <g id="LineCollection_2">
    <path clip-path="url(#p7a2772c2ff)" d="M 86.888247 214.270558 
L 86.888247 213.171638 
" style="fill:none;stroke:#000000;stroke-width:1.5;"/>
    <path clip-path="url(#p7a2772c2ff)" d="M 142.441233 190.976217 
L 142.441233 189.737387 
" style="fill:none;stroke:#000000;stroke-width:1.5;"/>
    <path clip-path="url(#p7a2772c2ff)" d="M 197.99422 174.298009 
L 197.99422 172.920625 
" style="fill:none;stroke:#000000;stroke-width:1.5;"/>
    <path clip-path="url(#p7a2772c2ff)" d="M 253.547206 171.616653 
L 253.547206 170.182323 
" style="fill:none;stroke:#000000;stroke-width:1.5;"/>
    <path clip-path="url(#p7a2772c2ff)" d="M 309.100193 174.467311 
L 309.100193 173.029978 
" style="fill:none;stroke:#000000;stroke-width:1.5;"/>
    <path clip-path="url(#p7a2772c2ff)" d="M 364.653179 193.673588 
L 364.653179 192.271324 
" style="fill:none;stroke:#000000;stroke-width:1.5;"/>
   </g>
   <g id="LineCollection_3">
    <path clip-path="url(#p7a2772c2ff)" d="M 86.888247 243.699366 
L 86.888247 241.973473 
" style="fill:none;stroke:#000000;stroke-width:1.5;"/>
    <path clip-path="url(#p7a2772c2ff)" d="M 142.441233 226.661807 
L 142.441233 224.583411 
" style="fill:none;stroke:#000000;stroke-width:1.5;"/>
    <path clip-path="url(#p7a2772c2ff)" d="M 197.99422 213.51264 
L 197.99422 211.299286 
" style="fill:none;stroke:#000000;stroke-width:1.5;"/>
    <path clip-path="url(#p7a2772c2ff)" d="M 253.547206 211.952205 
L 253.547206 209.70213 
" style="fill:none;stroke:#000000;stroke-width:1.5;"/>
    <path clip-path="url(#p7a2772c2ff)" d="M 309.100193 217.432802 
L 309.100193 215.157479 
" style="fill:none;stroke:#000000;stroke-width:1.5;"/>
    <path clip-path="url(#p7a2772c2ff)" d="M 364.653179 235.896692 
L 364.653179 233.545151 
" style="fill:none;stroke:#000000;stroke-width:1.5;"/>
   </g>
   <g id="LineCollection_4">
    <path clip-path="url(#p7a2772c2ff)" d="M 86.888247 254.686379 
L 86.888247 252.986442 
" style="fill:none;stroke:#000000;stroke-width:1.5;"/>
    <path clip-path="url(#p7a2772c2ff)" d="M 142.441233 241.711974 
L 142.441233 239.635702 
" style="fill:none;stroke:#000000;stroke-width:1.5;"/>
    <path clip-path="url(#p7a2772c2ff)" d="M 197.99422 229.486224 
L 197.99422 227.356854 
" style="fill:none;stroke:#000000;stroke-width:1.5;"/>
    <path clip-path="url(#p7a2772c2ff)" d="M 253.547206 227.608734 
L 253.547206 225.424081 
" style="fill:none;stroke:#000000;stroke-width:1.5;"/>
    <path clip-path="url(#p7a2772c2ff)" d="M 309.100193 233.128497 
L 309.100193 230.828961 
" style="fill:none;stroke:#000000;stroke-width:1.5;"/>
    <path clip-path="url(#p7a2772c2ff)" d="M 364.653179 247.012781 
L 364.653179 244.712912 
" style="fill:none;stroke:#000000;stroke-width:1.5;"/>
   </g>
   <g id="LineCollection_5">
    <path clip-path="url(#p7a2772c2ff)" d="M 86.888247 265.444237 
L 86.888247 264.654622 
" style="fill:none;stroke:#000000;stroke-width:1.5;"/>
    <path clip-path="url(#p7a2772c2ff)" d="M 142.441233 254.033769 
L 142.441233 253.091664 
" style="fill:none;stroke:#000000;stroke-width:1.5;"/>
    <path clip-path="url(#p7a2772c2ff)" d="M 197.99422 242.721775 
L 197.99422 241.682793 
" style="fill:none;stroke:#000000;stroke-width:1.5;"/>
    <path clip-path="url(#p7a2772c2ff)" d="M 253.547206 239.250599 
L 253.547206 238.186167 
" style="fill:none;stroke:#000000;stroke-width:1.5;"/>
    <path clip-path="url(#p7a2772c2ff)" d="M 309.100193 245.205712 
L 309.100193 244.138368 
" style="fill:none;stroke:#000000;stroke-width:1.5;"/>
    <path clip-path="url(#p7a2772c2ff)" d="M 364.653179 267.432715 
L 364.653179 264.58107 
" style="fill:none;stroke:#000000;stroke-width:1.5;"/>
   </g>
   <g id="line2d_12">
    <defs>
     <path d="M 5 0 
L -5 -0 
" id="mcd12c8ffe4" style="stroke:#000000;"/>
    </defs>
    <g clip-path="url(#p7a2772c2ff)">
     <use style="stroke:#000000;" x="86.888247" xlink:href="#mcd12c8ffe4" y="127.920049"/>
     <use style="stroke:#000000;" x="142.441233" xlink:href="#mcd12c8ffe4" y="94.755009"/>
     <use style="stroke:#000000;" x="197.99422" xlink:href="#mcd12c8ffe4" y="68.8141"/>
     <use style="stroke:#000000;" x="253.547206" xlink:href="#mcd12c8ffe4" y="57.509007"/>
     <use style="stroke:#000000;" x="309.100193" xlink:href="#mcd12c8ffe4" y="53.803604"/>
     <use style="stroke:#000000;" x="364.653179" xlink:href="#mcd12c8ffe4" y="60.29106"/>
    </g>
   </g>
   <g id="line2d_13">
    <g clip-path="url(#p7a2772c2ff)">
     <use style="stroke:#000000;" x="86.888247" xlink:href="#mcd12c8ffe4" y="125.705552"/>
     <use style="stroke:#000000;" x="142.441233" xlink:href="#mcd12c8ffe4" y="92.424966"/>
     <use style="stroke:#000000;" x="197.99422" xlink:href="#mcd12c8ffe4" y="66.415607"/>
     <use style="stroke:#000000;" x="253.547206" xlink:href="#mcd12c8ffe4" y="55.148057"/>
     <use style="stroke:#000000;" x="309.100193" xlink:href="#mcd12c8ffe4" y="51.329742"/>
     <use style="stroke:#000000;" x="364.653179" xlink:href="#mcd12c8ffe4" y="57.958394"/>
    </g>
   </g>
   <g id="line2d_14">
    <path clip-path="url(#p7a2772c2ff)" d="M 86.888247 126.903751 
L 95.938232 120.657118 
L 104.988217 114.682972 
L 114.038202 108.981312 
L 123.088188 103.552139 
L 132.138173 98.395452 
L 141.188158 93.511252 
L 149.541991 89.244611 
L 157.895823 85.210149 
L 166.249656 81.407864 
L 174.603488 77.837757 
L 182.957321 74.499828 
L 191.311154 71.394077 
L 199.664986 68.520504 
L 208.018819 65.879108 
L 216.372651 63.469891 
L 224.726484 61.292851 
L 233.080316 59.34799 
L 241.434149 57.635306 
L 249.787981 56.1548 
L 258.141814 54.906472 
L 266.495647 53.890322 
L 274.849479 53.10635 
L 283.203312 52.554555 
L 291.557144 52.234939 
L 299.910977 52.1475 
L 308.264809 52.292239 
L 316.618642 52.669156 
L 324.972474 53.278251 
L 333.326307 54.119524 
L 341.680139 55.192975 
L 350.033972 56.498604 
L 358.387805 58.03641 
L 364.653179 59.342132 
L 364.653179 59.342132 
" style="fill:none;stroke:#fee2bb;stroke-linecap:square;stroke-width:2;"/>
   </g>
   <g id="line2d_15">
    <path clip-path="url(#p7a2772c2ff)" d="M 298.88013 302.2 
L 298.88013 31.8 
" style="fill:none;stroke:#fee2bb;stroke-dasharray:9.25,4;stroke-dashoffset:0;stroke-opacity:0.9;stroke-width:2.5;"/>
   </g>
   <g id="line2d_16">
    <g clip-path="url(#p7a2772c2ff)">
     <use style="stroke:#000000;" x="86.888247" xlink:href="#mcd12c8ffe4" y="214.270558"/>
     <use style="stroke:#000000;" x="142.441233" xlink:href="#mcd12c8ffe4" y="190.976217"/>
     <use style="stroke:#000000;" x="197.99422" xlink:href="#mcd12c8ffe4" y="174.298009"/>
     <use style="stroke:#000000;" x="253.547206" xlink:href="#mcd12c8ffe4" y="171.616653"/>
     <use style="stroke:#000000;" x="309.100193" xlink:href="#mcd12c8ffe4" y="174.467311"/>
     <use style="stroke:#000000;" x="364.653179" xlink:href="#mcd12c8ffe4" y="193.673588"/>
    </g>
   </g>
   <g id="line2d_17">
    <g clip-path="url(#p7a2772c2ff)">
     <use style="stroke:#000000;" x="86.888247" xlink:href="#mcd12c8ffe4" y="213.171638"/>
     <use style="stroke:#000000;" x="142.441233" xlink:href="#mcd12c8ffe4" y="189.737387"/>
     <use style="stroke:#000000;" x="197.99422" xlink:href="#mcd12c8ffe4" y="172.920625"/>
     <use style="stroke:#000000;" x="253.547206" xlink:href="#mcd12c8ffe4" y="170.182323"/>
     <use style="stroke:#000000;" x="309.100193" xlink:href="#mcd12c8ffe4" y="173.029978"/>
     <use style="stroke:#000000;" x="364.653179" xlink:href="#mcd12c8ffe4" y="192.271324"/>
    </g>
   </g>
   <g id="line2d_18">
    <path clip-path="url(#p7a2772c2ff)" d="M 86.888247 214.232818 
L 95.242079 209.794189 
L 103.595912 205.589405 
L 111.949744 201.618466 
L 120.303577 197.881373 
L 128.657409 194.378126 
L 137.011242 191.108724 
L 145.365074 188.073167 
L 153.718907 185.271456 
L 162.07274 182.70359 
L 170.426572 180.369569 
L 178.780405 178.269395 
L 187.134237 176.403065 
L 195.48807 174.770581 
L 203.841902 173.371943 
L 212.195735 172.207149 
L 220.549567 171.276202 
L 228.9034 170.5791 
L 237.257233 170.115843 
L 245.611065 169.886432 
L 253.964898 169.890866 
L 262.31873 170.129145 
L 270.672563 170.60127 
L 279.026395 171.307241 
L 287.380228 172.247057 
L 295.73406 173.420718 
L 304.087893 174.828225 
L 312.441726 176.469577 
L 320.795558 178.344775 
L 329.149391 180.453819 
L 337.503223 182.796707 
L 345.857056 185.373441 
L 354.210888 188.184021 
L 362.564721 191.228446 
L 364.653179 192.026091 
L 364.653179 192.026091 
" style="fill:none;stroke:#fdc38d;stroke-linecap:square;stroke-width:2;"/>
   </g>
   <g id="line2d_19">
    <path clip-path="url(#p7a2772c2ff)" d="M 249.629577 302.2 
L 249.629577 31.8 
" style="fill:none;stroke:#fdc38d;stroke-dasharray:9.25,4;stroke-dashoffset:0;stroke-opacity:0.9;stroke-width:2.5;"/>
   </g>
   <g id="line2d_20">
    <g clip-path="url(#p7a2772c2ff)">
     <use style="stroke:#000000;" x="86.888247" xlink:href="#mcd12c8ffe4" y="243.699366"/>
     <use style="stroke:#000000;" x="142.441233" xlink:href="#mcd12c8ffe4" y="226.661807"/>
     <use style="stroke:#000000;" x="197.99422" xlink:href="#mcd12c8ffe4" y="213.51264"/>
     <use style="stroke:#000000;" x="253.547206" xlink:href="#mcd12c8ffe4" y="211.952205"/>
     <use style="stroke:#000000;" x="309.100193" xlink:href="#mcd12c8ffe4" y="217.432802"/>
     <use style="stroke:#000000;" x="364.653179" xlink:href="#mcd12c8ffe4" y="235.896692"/>
    </g>
   </g>
   <g id="line2d_21">
    <g clip-path="url(#p7a2772c2ff)">
     <use style="stroke:#000000;" x="86.888247" xlink:href="#mcd12c8ffe4" y="241.973473"/>
     <use style="stroke:#000000;" x="142.441233" xlink:href="#mcd12c8ffe4" y="224.583411"/>
     <use style="stroke:#000000;" x="197.99422" xlink:href="#mcd12c8ffe4" y="211.299286"/>
     <use style="stroke:#000000;" x="253.547206" xlink:href="#mcd12c8ffe4" y="209.70213"/>
     <use style="stroke:#000000;" x="309.100193" xlink:href="#mcd12c8ffe4" y="215.157479"/>
     <use style="stroke:#000000;" x="364.653179" xlink:href="#mcd12c8ffe4" y="233.545151"/>
    </g>
   </g>
   <g id="line2d_22">
    <path clip-path="url(#p7a2772c2ff)" d="M 86.888247 243.538543 
L 95.938232 239.703265 
L 104.988217 236.104694 
L 114.038202 232.742832 
L 123.088188 229.617677 
L 132.138173 226.72923 
L 141.188158 224.077491 
L 150.238143 221.66246 
L 159.288129 219.484136 
L 168.338114 217.542521 
L 177.388099 215.837613 
L 186.438085 214.369413 
L 195.48807 213.137921 
L 204.538055 212.143136 
L 213.58804 211.38506 
L 222.638026 210.863691 
L 231.688011 210.57903 
L 240.737996 210.531077 
L 249.787981 210.719832 
L 258.837967 211.145295 
L 267.887952 211.807465 
L 276.937937 212.706344 
L 285.987922 213.84193 
L 295.037908 215.214224 
L 304.087893 216.823225 
L 313.137878 218.668935 
L 322.187864 220.751352 
L 331.237849 223.070478 
L 340.287834 225.626311 
L 349.337819 228.418852 
L 358.387805 231.448101 
L 364.653179 233.683936 
L 364.653179 233.683936 
" style="fill:none;stroke:#fc8c59;stroke-linecap:square;stroke-width:2;"/>
   </g>
   <g id="line2d_23">
    <path clip-path="url(#p7a2772c2ff)" d="M 238.046378 302.2 
L 238.046378 31.8 
" style="fill:none;stroke:#fc8c59;stroke-dasharray:9.25,4;stroke-dashoffset:0;stroke-opacity:0.9;stroke-width:2.5;"/>
   </g>
   <g id="line2d_24">
    <g clip-path="url(#p7a2772c2ff)">
     <use style="stroke:#000000;" x="86.888247" xlink:href="#mcd12c8ffe4" y="254.686379"/>
     <use style="stroke:#000000;" x="142.441233" xlink:href="#mcd12c8ffe4" y="241.711974"/>
     <use style="stroke:#000000;" x="197.99422" xlink:href="#mcd12c8ffe4" y="229.486224"/>
     <use style="stroke:#000000;" x="253.547206" xlink:href="#mcd12c8ffe4" y="227.608734"/>
     <use style="stroke:#000000;" x="309.100193" xlink:href="#mcd12c8ffe4" y="233.128497"/>
     <use style="stroke:#000000;" x="364.653179" xlink:href="#mcd12c8ffe4" y="247.012781"/>
    </g>
   </g>
   <g id="line2d_25">
    <g clip-path="url(#p7a2772c2ff)">
     <use style="stroke:#000000;" x="86.888247" xlink:href="#mcd12c8ffe4" y="252.986442"/>
     <use style="stroke:#000000;" x="142.441233" xlink:href="#mcd12c8ffe4" y="239.635702"/>
     <use style="stroke:#000000;" x="197.99422" xlink:href="#mcd12c8ffe4" y="227.356854"/>
     <use style="stroke:#000000;" x="253.547206" xlink:href="#mcd12c8ffe4" y="225.424081"/>
     <use style="stroke:#000000;" x="309.100193" xlink:href="#mcd12c8ffe4" y="230.828961"/>
     <use style="stroke:#000000;" x="364.653179" xlink:href="#mcd12c8ffe4" y="244.712912"/>
    </g>
   </g>
   <g id="line2d_26">
    <path clip-path="url(#p7a2772c2ff)" d="M 86.888247 254.637448 
L 96.634385 251.237954 
L 106.380523 248.061582 
L 116.126661 245.108333 
L 125.872799 242.378206 
L 135.618937 239.871202 
L 145.365074 237.587321 
L 155.111212 235.526563 
L 164.85735 233.688928 
L 174.603488 232.074415 
L 184.349626 230.683025 
L 194.095764 229.514757 
L 203.841902 228.569613 
L 213.58804 227.847591 
L 223.334178 227.348692 
L 233.080316 227.072915 
L 242.826454 227.020262 
L 252.572592 227.190731 
L 262.31873 227.584323 
L 272.064868 228.201037 
L 281.811006 229.040874 
L 291.557144 230.103834 
L 301.303282 231.389917 
L 311.04942 232.899123 
L 320.795558 234.631451 
L 330.541696 236.586902 
L 340.287834 238.765475 
L 350.033972 241.167172 
L 359.78011 243.791991 
L 364.653179 245.188071 
L 364.653179 245.188071 
" style="fill:none;stroke:#e7533a;stroke-linecap:square;stroke-width:2;"/>
   </g>
   <g id="line2d_27">
    <path clip-path="url(#p7a2772c2ff)" d="M 240.25333 302.2 
L 240.25333 31.8 
" style="fill:none;stroke:#e7533a;stroke-dasharray:9.25,4;stroke-dashoffset:0;stroke-opacity:0.9;stroke-width:2.5;"/>
   </g>
   <g id="line2d_28">
    <g clip-path="url(#p7a2772c2ff)">
     <use style="stroke:#000000;" x="86.888247" xlink:href="#mcd12c8ffe4" y="265.444237"/>
     <use style="stroke:#000000;" x="142.441233" xlink:href="#mcd12c8ffe4" y="254.033769"/>
     <use style="stroke:#000000;" x="197.99422" xlink:href="#mcd12c8ffe4" y="242.721775"/>
     <use style="stroke:#000000;" x="253.547206" xlink:href="#mcd12c8ffe4" y="239.250599"/>
     <use style="stroke:#000000;" x="309.100193" xlink:href="#mcd12c8ffe4" y="245.205712"/>
     <use style="stroke:#000000;" x="364.653179" xlink:href="#mcd12c8ffe4" y="267.432715"/>
    </g>
   </g>
   <g id="line2d_29">
    <g clip-path="url(#p7a2772c2ff)">
     <use style="stroke:#000000;" x="86.888247" xlink:href="#mcd12c8ffe4" y="264.654622"/>
     <use style="stroke:#000000;" x="142.441233" xlink:href="#mcd12c8ffe4" y="253.091664"/>
     <use style="stroke:#000000;" x="197.99422" xlink:href="#mcd12c8ffe4" y="241.682793"/>
     <use style="stroke:#000000;" x="253.547206" xlink:href="#mcd12c8ffe4" y="238.186167"/>
     <use style="stroke:#000000;" x="309.100193" xlink:href="#mcd12c8ffe4" y="244.138368"/>
     <use style="stroke:#000000;" x="364.653179" xlink:href="#mcd12c8ffe4" y="264.58107"/>
    </g>
   </g>
   <g id="line2d_30">
    <path clip-path="url(#p7a2772c2ff)" d="M 86.888247 266.156532 
L 97.330537 262.729599 
L 107.772828 259.54584 
L 118.215119 256.605256 
L 128.657409 253.907847 
L 139.0997 251.453613 
L 149.541991 249.242554 
L 159.288129 247.398296 
L 169.034267 245.765871 
L 178.780405 244.345278 
L 188.526543 243.136517 
L 198.272681 242.139588 
L 208.018819 241.354492 
L 217.764957 240.781228 
L 227.511095 240.419797 
L 237.257233 240.270197 
L 247.003371 240.33243 
L 256.749509 240.606496 
L 266.495647 241.092393 
L 276.241784 241.790123 
L 285.987922 242.699685 
L 295.73406 243.82108 
L 305.480198 245.154306 
L 315.226336 246.699365 
L 324.972474 248.456257 
L 334.718612 250.42498 
L 345.160903 252.769396 
L 355.603194 255.356987 
L 364.653179 257.796267 
L 364.653179 257.796267 
" style="fill:none;stroke:#be0f0a;stroke-linecap:square;stroke-width:2;"/>
   </g>
   <g id="line2d_31">
    <path clip-path="url(#p7a2772c2ff)" d="M 239.26704 302.2 
L 239.26704 31.8 
" style="fill:none;stroke:#be0f0a;stroke-dasharray:9.25,4;stroke-dashoffset:0;stroke-opacity:0.9;stroke-width:2.5;"/>
   </g>
   <g id="line2d_32">
    <defs>
     <path d="M 0 4 
C 1.060812 4 2.078319 3.578535 2.828427 2.828427 
C 3.578535 2.078319 4 1.060812 4 0 
C 4 -1.060812 3.578535 -2.078319 2.828427 -2.828427 
C 2.078319 -3.578535 1.060812 -4 0 -4 
C -1.060812 -4 -2.078319 -3.578535 -2.828427 -2.828427 
C -3.578535 -2.078319 -4 -1.060812 -4 0 
C -4 1.060812 -3.578535 2.078319 -2.828427 2.828427 
C -2.078319 3.578535 -1.060812 4 0 4 
z
" id="m522b250094" style="stroke:#000000;"/>
    </defs>
    <g clip-path="url(#p7a2772c2ff)">
     <use style="fill:#fee2bb;stroke:#000000;" x="86.888247" xlink:href="#m522b250094" y="126.812801"/>
     <use style="fill:#fee2bb;stroke:#000000;" x="142.441233" xlink:href="#m522b250094" y="93.589987"/>
     <use style="fill:#fee2bb;stroke:#000000;" x="197.99422" xlink:href="#m522b250094" y="67.614853"/>
     <use style="fill:#fee2bb;stroke:#000000;" x="253.547206" xlink:href="#m522b250094" y="56.328532"/>
     <use style="fill:#fee2bb;stroke:#000000;" x="309.100193" xlink:href="#m522b250094" y="52.566673"/>
     <use style="fill:#fee2bb;stroke:#000000;" x="364.653179" xlink:href="#m522b250094" y="59.124727"/>
    </g>
   </g>
   <g id="line2d_33">
    <defs>
     <path d="M 0 4 
C 1.060812 4 2.078319 3.578535 2.828427 2.828427 
C 3.578535 2.078319 4 1.060812 4 0 
C 4 -1.060812 3.578535 -2.078319 2.828427 -2.828427 
C 2.078319 -3.578535 1.060812 -4 0 -4 
C -1.060812 -4 -2.078319 -3.578535 -2.828427 -2.828427 
C -3.578535 -2.078319 -4 -1.060812 -4 0 
C -4 1.060812 -3.578535 2.078319 -2.828427 2.828427 
C -2.078319 3.578535 -1.060812 4 0 4 
z
" id="mf499ce6bfb" style="stroke:#000000;"/>
    </defs>
    <g clip-path="url(#p7a2772c2ff)">
     <use style="fill:#fdc38d;stroke:#000000;" x="86.888247" xlink:href="#mf499ce6bfb" y="213.721098"/>
     <use style="fill:#fdc38d;stroke:#000000;" x="142.441233" xlink:href="#mf499ce6bfb" y="190.356802"/>
     <use style="fill:#fdc38d;stroke:#000000;" x="197.99422" xlink:href="#mf499ce6bfb" y="173.609317"/>
     <use style="fill:#fdc38d;stroke:#000000;" x="253.547206" xlink:href="#mf499ce6bfb" y="170.899488"/>
     <use style="fill:#fdc38d;stroke:#000000;" x="309.100193" xlink:href="#mf499ce6bfb" y="173.748645"/>
     <use style="fill:#fdc38d;stroke:#000000;" x="364.653179" xlink:href="#mf499ce6bfb" y="192.972456"/>
    </g>
   </g>
   <g id="line2d_34">
    <defs>
     <path d="M 0 4 
C 1.060812 4 2.078319 3.578535 2.828427 2.828427 
C 3.578535 2.078319 4 1.060812 4 0 
C 4 -1.060812 3.578535 -2.078319 2.828427 -2.828427 
C 2.078319 -3.578535 1.060812 -4 0 -4 
C -1.060812 -4 -2.078319 -3.578535 -2.828427 -2.828427 
C -3.578535 -2.078319 -4 -1.060812 -4 0 
C -4 1.060812 -3.578535 2.078319 -2.828427 2.828427 
C -2.078319 3.578535 -1.060812 4 0 4 
z
" id="m07812238dc" style="stroke:#000000;"/>
    </defs>
    <g clip-path="url(#p7a2772c2ff)">
     <use style="fill:#fc8c59;stroke:#000000;" x="86.888247" xlink:href="#m07812238dc" y="242.836419"/>
     <use style="fill:#fc8c59;stroke:#000000;" x="142.441233" xlink:href="#m07812238dc" y="225.622609"/>
     <use style="fill:#fc8c59;stroke:#000000;" x="197.99422" xlink:href="#m07812238dc" y="212.405963"/>
     <use style="fill:#fc8c59;stroke:#000000;" x="253.547206" xlink:href="#m07812238dc" y="210.827168"/>
     <use style="fill:#fc8c59;stroke:#000000;" x="309.100193" xlink:href="#m07812238dc" y="216.295141"/>
     <use style="fill:#fc8c59;stroke:#000000;" x="364.653179" xlink:href="#m07812238dc" y="234.720921"/>
    </g>
   </g>
   <g id="line2d_35">
    <defs>
     <path d="M 0 4 
C 1.060812 4 2.078319 3.578535 2.828427 2.828427 
C 3.578535 2.078319 4 1.060812 4 0 
C 4 -1.060812 3.578535 -2.078319 2.828427 -2.828427 
C 2.078319 -3.578535 1.060812 -4 0 -4 
C -1.060812 -4 -2.078319 -3.578535 -2.828427 -2.828427 
C -3.578535 -2.078319 -4 -1.060812 -4 0 
C -4 1.060812 -3.578535 2.078319 -2.828427 2.828427 
C -2.078319 3.578535 -1.060812 4 0 4 
z
" id="m4d671b2343" style="stroke:#000000;"/>
    </defs>
    <g clip-path="url(#p7a2772c2ff)">
     <use style="fill:#e7533a;stroke:#000000;" x="86.888247" xlink:href="#m4d671b2343" y="253.836411"/>
     <use style="fill:#e7533a;stroke:#000000;" x="142.441233" xlink:href="#m4d671b2343" y="240.673838"/>
     <use style="fill:#e7533a;stroke:#000000;" x="197.99422" xlink:href="#m4d671b2343" y="228.421539"/>
     <use style="fill:#e7533a;stroke:#000000;" x="253.547206" xlink:href="#m4d671b2343" y="226.516408"/>
     <use style="fill:#e7533a;stroke:#000000;" x="309.100193" xlink:href="#m4d671b2343" y="231.978729"/>
     <use style="fill:#e7533a;stroke:#000000;" x="364.653179" xlink:href="#m4d671b2343" y="245.862846"/>
    </g>
   </g>
   <g id="line2d_36">
    <defs>
     <path d="M 0 4 
C 1.060812 4 2.078319 3.578535 2.828427 2.828427 
C 3.578535 2.078319 4 1.060812 4 0 
C 4 -1.060812 3.578535 -2.078319 2.828427 -2.828427 
C 2.078319 -3.578535 1.060812 -4 0 -4 
C -1.060812 -4 -2.078319 -3.578535 -2.828427 -2.828427 
C -3.578535 -2.078319 -4 -1.060812 -4 0 
C -4 1.060812 -3.578535 2.078319 -2.828427 2.828427 
C -2.078319 3.578535 -1.060812 4 0 4 
z
" id="m31e9575210" style="stroke:#000000;"/>
    </defs>
    <g clip-path="url(#p7a2772c2ff)">
     <use style="fill:#be0f0a;stroke:#000000;" x="86.888247" xlink:href="#m31e9575210" y="265.04943"/>
     <use style="fill:#be0f0a;stroke:#000000;" x="142.441233" xlink:href="#m31e9575210" y="253.562716"/>
     <use style="fill:#be0f0a;stroke:#000000;" x="197.99422" xlink:href="#m31e9575210" y="242.202284"/>
     <use style="fill:#be0f0a;stroke:#000000;" x="253.547206" xlink:href="#m31e9575210" y="238.718383"/>
     <use style="fill:#be0f0a;stroke:#000000;" x="309.100193" xlink:href="#m31e9575210" y="244.67204"/>
     <use style="fill:#be0f0a;stroke:#000000;" x="364.653179" xlink:href="#m31e9575210" y="266.006892"/>
    </g>
   </g>
   <g id="patch_3">
    <path d="M 73 302.2 
L 73 31.8 
" style="fill:none;stroke:#000000;stroke-linecap:square;stroke-linejoin:miter;stroke-width:0.8;"/>
   </g>
   <g id="patch_4">
    <path d="M 378.541426 302.2 
L 378.541426 31.8 
" style="fill:none;stroke:#000000;stroke-linecap:square;stroke-linejoin:miter;stroke-width:0.8;"/>
   </g>
   <g id="patch_5">
    <path d="M 73 302.2 
L 378.541426 302.2 
" style="fill:none;stroke:#000000;stroke-linecap:square;stroke-linejoin:miter;stroke-width:0.8;"/>
   </g>
   <g id="patch_6">
    <path d="M 73 31.8 
L 378.541426 31.8 
" style="fill:none;stroke:#000000;stroke-linecap:square;stroke-linejoin:miter;stroke-width:0.8;"/>
   </g>
   <g id="text_14">
    <!-- rA$_{30}$ -->
    <g transform="translate(207.500713 25.8)scale(0.18 -0.18)">
     <defs>
      <path d="M 2188 4044 
L 1331 1722 
L 3047 1722 
L 2188 4044 
z
M 1831 4666 
L 2547 4666 
L 4325 0 
L 3669 0 
L 3244 1197 
L 1141 1197 
L 716 0 
L 50 0 
L 1831 4666 
z
" id="DejaVuSans-41" transform="scale(0.015625)"/>
     </defs>
     <use transform="translate(0 0.09375)" xlink:href="#DejaVuSans-72"/>
     <use transform="translate(41.113281 0.09375)" xlink:href="#DejaVuSans-41"/>
     <use transform="translate(110.478516 -16.3125)scale(0.7)" xlink:href="#DejaVuSans-33"/>
     <use transform="translate(155.014648 -16.3125)scale(0.7)" xlink:href="#DejaVuSans-30"/>
    </g>
   </g>
  </g>
  <g id="axes_2">
   <g id="patch_7">
    <path d="M 398.25 302.2 
L 703.791426 302.2 
L 703.791426 31.8 
L 398.25 31.8 
z
" style="fill:#ffffff;"/>
   </g>
   <g id="matplotlib.axis_3">
    <g id="xtick_7">
     <g id="line2d_37">
      <g>
       <use style="stroke:#000000;stroke-width:0.8;" x="412.138247" xlink:href="#mfee1cf014b" y="302.2"/>
      </g>
     </g>
     <g id="text_15">
      <!-- 0 -->
      <g transform="translate(406.411997 322.877187)scale(0.18 -0.18)">
       <use xlink:href="#DejaVuSans-30"/>
      </g>
     </g>
    </g>
    <g id="xtick_8">
     <g id="line2d_38">
      <g>
       <use style="stroke:#000000;stroke-width:0.8;" x="467.691233" xlink:href="#mfee1cf014b" y="302.2"/>
      </g>
     </g>
     <g id="text_16">
      <!-- 20 -->
      <g transform="translate(456.238733 322.877187)scale(0.18 -0.18)">
       <use xlink:href="#DejaVuSans-32"/>
       <use x="63.623047" xlink:href="#DejaVuSans-30"/>
      </g>
     </g>
    </g>
    <g id="xtick_9">
     <g id="line2d_39">
      <g>
       <use style="stroke:#000000;stroke-width:0.8;" x="523.24422" xlink:href="#mfee1cf014b" y="302.2"/>
      </g>
     </g>
     <g id="text_17">
      <!-- 40 -->
      <g transform="translate(511.79172 322.877187)scale(0.18 -0.18)">
       <use xlink:href="#DejaVuSans-34"/>
       <use x="63.623047" xlink:href="#DejaVuSans-30"/>
      </g>
     </g>
    </g>
    <g id="xtick_10">
     <g id="line2d_40">
      <g>
       <use style="stroke:#000000;stroke-width:0.8;" x="578.797206" xlink:href="#mfee1cf014b" y="302.2"/>
      </g>
     </g>
     <g id="text_18">
      <!-- 60 -->
      <g transform="translate(567.344706 322.877187)scale(0.18 -0.18)">
       <use xlink:href="#DejaVuSans-36"/>
       <use x="63.623047" xlink:href="#DejaVuSans-30"/>
      </g>
     </g>
    </g>
    <g id="xtick_11">
     <g id="line2d_41">
      <g>
       <use style="stroke:#000000;stroke-width:0.8;" x="634.350193" xlink:href="#mfee1cf014b" y="302.2"/>
      </g>
     </g>
     <g id="text_19">
      <!-- 80 -->
      <g transform="translate(622.897693 322.877187)scale(0.18 -0.18)">
       <use xlink:href="#DejaVuSans-38"/>
       <use x="63.623047" xlink:href="#DejaVuSans-30"/>
      </g>
     </g>
    </g>
    <g id="xtick_12">
     <g id="line2d_42">
      <g>
       <use style="stroke:#000000;stroke-width:0.8;" x="689.903179" xlink:href="#mfee1cf014b" y="302.2"/>
      </g>
     </g>
     <g id="text_20">
      <!-- 100 -->
      <g transform="translate(672.724429 322.877187)scale(0.18 -0.18)">
       <use xlink:href="#DejaVuSans-31"/>
       <use x="63.623047" xlink:href="#DejaVuSans-30"/>
       <use x="127.246094" xlink:href="#DejaVuSans-30"/>
      </g>
     </g>
    </g>
    <g id="text_21">
     <!-- Temperature (°C) -->
     <g transform="translate(473.3479 344.297812)scale(0.18 -0.18)">
      <use xlink:href="#DejaVuSans-54"/>
      <use x="44.083984" xlink:href="#DejaVuSans-65"/>
      <use x="105.607422" xlink:href="#DejaVuSans-6d"/>
      <use x="203.019531" xlink:href="#DejaVuSans-70"/>
      <use x="266.496094" xlink:href="#DejaVuSans-65"/>
      <use x="328.019531" xlink:href="#DejaVuSans-72"/>
      <use x="369.132812" xlink:href="#DejaVuSans-61"/>
      <use x="430.412109" xlink:href="#DejaVuSans-74"/>
      <use x="469.621094" xlink:href="#DejaVuSans-75"/>
      <use x="533" xlink:href="#DejaVuSans-72"/>
      <use x="571.863281" xlink:href="#DejaVuSans-65"/>
      <use x="633.386719" xlink:href="#DejaVuSans-20"/>
      <use x="665.173828" xlink:href="#DejaVuSans-28"/>
      <use x="704.1875" xlink:href="#DejaVuSans-b0"/>
      <use x="754.1875" xlink:href="#DejaVuSans-43"/>
      <use x="824.011719" xlink:href="#DejaVuSans-29"/>
     </g>
    </g>
   </g>
   <g id="matplotlib.axis_4">
    <g id="ytick_6">
     <g id="line2d_43">
      <g>
       <use style="stroke:#000000;stroke-width:0.8;" x="398.25" xlink:href="#m312ccadbd8" y="302.2"/>
      </g>
     </g>
    </g>
    <g id="ytick_7">
     <g id="line2d_44">
      <g>
       <use style="stroke:#000000;stroke-width:0.8;" x="398.25" xlink:href="#m312ccadbd8" y="234.6"/>
      </g>
     </g>
    </g>
    <g id="ytick_8">
     <g id="line2d_45">
      <g>
       <use style="stroke:#000000;stroke-width:0.8;" x="398.25" xlink:href="#m312ccadbd8" y="167"/>
      </g>
     </g>
    </g>
    <g id="ytick_9">
     <g id="line2d_46">
      <g>
       <use style="stroke:#000000;stroke-width:0.8;" x="398.25" xlink:href="#m312ccadbd8" y="99.4"/>
      </g>
     </g>
    </g>
    <g id="ytick_10">
     <g id="line2d_47">
      <g>
       <use style="stroke:#000000;stroke-width:0.8;" x="398.25" xlink:href="#m312ccadbd8" y="31.8"/>
      </g>
     </g>
    </g>
   </g>
   <g id="LineCollection_6">
    <path clip-path="url(#pae6f5d9ec3)" d="M 412.138247 65.236312 
L 412.138247 62.892493 
" style="fill:none;stroke:#000000;stroke-width:1.5;"/>
    <path clip-path="url(#pae6f5d9ec3)" d="M 467.691233 53.994137 
L 467.691233 51.556466 
" style="fill:none;stroke:#000000;stroke-width:1.5;"/>
    <path clip-path="url(#pae6f5d9ec3)" d="M 523.24422 51.6484 
L 523.24422 49.227924 
" style="fill:none;stroke:#000000;stroke-width:1.5;"/>
    <path clip-path="url(#pae6f5d9ec3)" d="M 578.797206 53.531709 
L 578.797206 51.036791 
" style="fill:none;stroke:#000000;stroke-width:1.5;"/>
    <path clip-path="url(#pae6f5d9ec3)" d="M 634.350193 59.276776 
L 634.350193 56.784005 
" style="fill:none;stroke:#000000;stroke-width:1.5;"/>
    <path clip-path="url(#pae6f5d9ec3)" d="M 689.903179 64.305557 
L 689.903179 61.741872 
" style="fill:none;stroke:#000000;stroke-width:1.5;"/>
   </g>
   <g id="LineCollection_7">
    <path clip-path="url(#pae6f5d9ec3)" d="M 412.138247 165.760278 
L 412.138247 164.422435 
" style="fill:none;stroke:#000000;stroke-width:1.5;"/>
    <path clip-path="url(#pae6f5d9ec3)" d="M 467.691233 161.119758 
L 467.691233 159.795094 
" style="fill:none;stroke:#000000;stroke-width:1.5;"/>
    <path clip-path="url(#pae6f5d9ec3)" d="M 523.24422 167.284902 
L 523.24422 165.861411 
" style="fill:none;stroke:#000000;stroke-width:1.5;"/>
    <path clip-path="url(#pae6f5d9ec3)" d="M 578.797206 176.01776 
L 578.797206 174.630416 
" style="fill:none;stroke:#000000;stroke-width:1.5;"/>
    <path clip-path="url(#pae6f5d9ec3)" d="M 634.350193 192.367293 
L 634.350193 190.986628 
" style="fill:none;stroke:#000000;stroke-width:1.5;"/>
    <path clip-path="url(#pae6f5d9ec3)" d="M 689.903179 208.136328 
L 689.903179 206.690437 
" style="fill:none;stroke:#000000;stroke-width:1.5;"/>
   </g>
   <g id="LineCollection_8">
    <path clip-path="url(#pae6f5d9ec3)" d="M 412.138247 197.509098 
L 412.138247 194.865497 
" style="fill:none;stroke:#000000;stroke-width:1.5;"/>
    <path clip-path="url(#pae6f5d9ec3)" d="M 467.691233 195.013659 
L 467.691233 192.378487 
" style="fill:none;stroke:#000000;stroke-width:1.5;"/>
    <path clip-path="url(#pae6f5d9ec3)" d="M 523.24422 197.650649 
L 523.24422 194.91712 
" style="fill:none;stroke:#000000;stroke-width:1.5;"/>
    <path clip-path="url(#pae6f5d9ec3)" d="M 578.797206 210.776433 
L 578.797206 207.973652 
" style="fill:none;stroke:#000000;stroke-width:1.5;"/>
    <path clip-path="url(#pae6f5d9ec3)" d="M 634.350193 222.504044 
L 634.350193 219.678727 
" style="fill:none;stroke:#000000;stroke-width:1.5;"/>
    <path clip-path="url(#pae6f5d9ec3)" d="M 689.903179 241.65273 
L 689.903179 238.644613 
" style="fill:none;stroke:#000000;stroke-width:1.5;"/>
   </g>
   <g id="LineCollection_9">
    <path clip-path="url(#pae6f5d9ec3)" d="M 412.138247 213.751751 
L 412.138247 211.152351 
" style="fill:none;stroke:#000000;stroke-width:1.5;"/>
    <path clip-path="url(#pae6f5d9ec3)" d="M 467.691233 212.230372 
L 467.691233 209.44055 
" style="fill:none;stroke:#000000;stroke-width:1.5;"/>
    <path clip-path="url(#pae6f5d9ec3)" d="M 523.24422 215.629537 
L 523.24422 212.855532 
" style="fill:none;stroke:#000000;stroke-width:1.5;"/>
    <path clip-path="url(#pae6f5d9ec3)" d="M 578.797206 227.153016 
L 578.797206 224.359512 
" style="fill:none;stroke:#000000;stroke-width:1.5;"/>
    <path clip-path="url(#pae6f5d9ec3)" d="M 634.350193 239.966675 
L 634.350193 236.99169 
" style="fill:none;stroke:#000000;stroke-width:1.5;"/>
    <path clip-path="url(#pae6f5d9ec3)" d="M 689.903179 254.146563 
L 689.903179 251.324355 
" style="fill:none;stroke:#000000;stroke-width:1.5;"/>
   </g>
   <g id="LineCollection_10">
    <path clip-path="url(#pae6f5d9ec3)" d="M 412.138247 233.07556 
L 412.138247 231.910055 
" style="fill:none;stroke:#000000;stroke-width:1.5;"/>
    <path clip-path="url(#pae6f5d9ec3)" d="M 467.691233 229.333059 
L 467.691233 228.088212 
" style="fill:none;stroke:#000000;stroke-width:1.5;"/>
    <path clip-path="url(#pae6f5d9ec3)" d="M 523.24422 235.716503 
L 523.24422 234.485175 
" style="fill:none;stroke:#000000;stroke-width:1.5;"/>
    <path clip-path="url(#pae6f5d9ec3)" d="M 578.797206 244.185421 
L 578.797206 242.960581 
" style="fill:none;stroke:#000000;stroke-width:1.5;"/>
    <path clip-path="url(#pae6f5d9ec3)" d="M 634.350193 255.755172 
L 634.350193 254.493144 
" style="fill:none;stroke:#000000;stroke-width:1.5;"/>
    <path clip-path="url(#pae6f5d9ec3)" d="M 689.903179 270.537286 
L 689.903179 269.240331 
" style="fill:none;stroke:#000000;stroke-width:1.5;"/>
   </g>
   <g id="line2d_48">
    <g clip-path="url(#pae6f5d9ec3)">
     <use style="stroke:#000000;" x="412.138247" xlink:href="#mcd12c8ffe4" y="65.236312"/>
     <use style="stroke:#000000;" x="467.691233" xlink:href="#mcd12c8ffe4" y="53.994137"/>
     <use style="stroke:#000000;" x="523.24422" xlink:href="#mcd12c8ffe4" y="51.6484"/>
     <use style="stroke:#000000;" x="578.797206" xlink:href="#mcd12c8ffe4" y="53.531709"/>
     <use style="stroke:#000000;" x="634.350193" xlink:href="#mcd12c8ffe4" y="59.276776"/>
     <use style="stroke:#000000;" x="689.903179" xlink:href="#mcd12c8ffe4" y="64.305557"/>
    </g>
   </g>
   <g id="line2d_49">
    <g clip-path="url(#pae6f5d9ec3)">
     <use style="stroke:#000000;" x="412.138247" xlink:href="#mcd12c8ffe4" y="62.892493"/>
     <use style="stroke:#000000;" x="467.691233" xlink:href="#mcd12c8ffe4" y="51.556466"/>
     <use style="stroke:#000000;" x="523.24422" xlink:href="#mcd12c8ffe4" y="49.227924"/>
     <use style="stroke:#000000;" x="578.797206" xlink:href="#mcd12c8ffe4" y="51.036791"/>
     <use style="stroke:#000000;" x="634.350193" xlink:href="#mcd12c8ffe4" y="56.784005"/>
     <use style="stroke:#000000;" x="689.903179" xlink:href="#mcd12c8ffe4" y="61.741872"/>
    </g>
   </g>
   <g id="line2d_50">
    <path clip-path="url(#pae6f5d9ec3)" d="M 412.138247 62.770916 
L 425.365148 60.520769 
L 438.59205 58.504005 
L 451.818951 56.720622 
L 465.045853 55.170622 
L 478.272754 53.854004 
L 491.499656 52.770768 
L 504.726557 51.920914 
L 517.953459 51.304442 
L 531.18036 50.921352 
L 544.407262 50.771644 
L 557.634164 50.855319 
L 570.861065 51.172375 
L 584.087967 51.722814 
L 597.314868 52.506634 
L 610.54177 53.523837 
L 623.768671 54.774422 
L 636.995573 56.258389 
L 650.222474 57.975738 
L 663.449376 59.926469 
L 676.676277 62.110582 
L 689.903179 64.528077 
L 689.903179 64.528077 
" style="fill:none;stroke:#fee2bb;stroke-linecap:square;stroke-width:2;"/>
   </g>
   <g id="line2d_51">
    <path clip-path="url(#pae6f5d9ec3)" d="M 546.278478 302.2 
L 546.278478 31.8 
" style="fill:none;stroke:#fee2bb;stroke-dasharray:9.25,4;stroke-dashoffset:0;stroke-opacity:0.9;stroke-width:2.5;"/>
   </g>
   <g id="line2d_52">
    <g clip-path="url(#pae6f5d9ec3)">
     <use style="stroke:#000000;" x="412.138247" xlink:href="#mcd12c8ffe4" y="165.760278"/>
     <use style="stroke:#000000;" x="467.691233" xlink:href="#mcd12c8ffe4" y="161.119758"/>
     <use style="stroke:#000000;" x="523.24422" xlink:href="#mcd12c8ffe4" y="167.284902"/>
     <use style="stroke:#000000;" x="578.797206" xlink:href="#mcd12c8ffe4" y="176.01776"/>
     <use style="stroke:#000000;" x="634.350193" xlink:href="#mcd12c8ffe4" y="192.367293"/>
     <use style="stroke:#000000;" x="689.903179" xlink:href="#mcd12c8ffe4" y="208.136328"/>
    </g>
   </g>
   <g id="line2d_53">
    <g clip-path="url(#pae6f5d9ec3)">
     <use style="stroke:#000000;" x="412.138247" xlink:href="#mcd12c8ffe4" y="164.422435"/>
     <use style="stroke:#000000;" x="467.691233" xlink:href="#mcd12c8ffe4" y="159.795094"/>
     <use style="stroke:#000000;" x="523.24422" xlink:href="#mcd12c8ffe4" y="165.861411"/>
     <use style="stroke:#000000;" x="578.797206" xlink:href="#mcd12c8ffe4" y="174.630416"/>
     <use style="stroke:#000000;" x="634.350193" xlink:href="#mcd12c8ffe4" y="190.986628"/>
     <use style="stroke:#000000;" x="689.903179" xlink:href="#mcd12c8ffe4" y="206.690437"/>
    </g>
   </g>
   <g id="line2d_54">
    <path clip-path="url(#pae6f5d9ec3)" d="M 412.138247 163.847573 
L 423.972843 163.140509 
L 435.807439 162.666912 
L 447.642035 162.426782 
L 459.476631 162.420118 
L 471.311227 162.64692 
L 483.145823 163.107189 
L 494.980419 163.800924 
L 506.815016 164.728126 
L 518.649612 165.888795 
L 530.484208 167.28293 
L 542.318804 168.910531 
L 554.1534 170.771599 
L 565.987996 172.866134 
L 577.822592 175.194135 
L 589.657188 177.755602 
L 601.491784 180.550536 
L 613.326381 183.578937 
L 625.160977 186.840804 
L 636.995573 190.336137 
L 648.830169 194.064937 
L 660.664765 198.027204 
L 672.499361 202.222937 
L 684.333957 206.652136 
L 689.903179 208.81725 
L 689.903179 208.81725 
" style="fill:none;stroke:#fdc38d;stroke-linecap:square;stroke-width:2;"/>
   </g>
   <g id="line2d_55">
    <path clip-path="url(#pae6f5d9ec3)" d="M 453.897142 302.2 
L 453.897142 31.8 
" style="fill:none;stroke:#fdc38d;stroke-dasharray:9.25,4;stroke-dashoffset:0;stroke-opacity:0.9;stroke-width:2.5;"/>
   </g>
   <g id="line2d_56">
    <g clip-path="url(#pae6f5d9ec3)">
     <use style="stroke:#000000;" x="412.138247" xlink:href="#mcd12c8ffe4" y="197.509098"/>
     <use style="stroke:#000000;" x="467.691233" xlink:href="#mcd12c8ffe4" y="195.013659"/>
     <use style="stroke:#000000;" x="523.24422" xlink:href="#mcd12c8ffe4" y="197.650649"/>
     <use style="stroke:#000000;" x="578.797206" xlink:href="#mcd12c8ffe4" y="210.776433"/>
     <use style="stroke:#000000;" x="634.350193" xlink:href="#mcd12c8ffe4" y="222.504044"/>
     <use style="stroke:#000000;" x="689.903179" xlink:href="#mcd12c8ffe4" y="241.65273"/>
    </g>
   </g>
   <g id="line2d_57">
    <g clip-path="url(#pae6f5d9ec3)">
     <use style="stroke:#000000;" x="412.138247" xlink:href="#mcd12c8ffe4" y="194.865497"/>
     <use style="stroke:#000000;" x="467.691233" xlink:href="#mcd12c8ffe4" y="192.378487"/>
     <use style="stroke:#000000;" x="523.24422" xlink:href="#mcd12c8ffe4" y="194.91712"/>
     <use style="stroke:#000000;" x="578.797206" xlink:href="#mcd12c8ffe4" y="207.973652"/>
     <use style="stroke:#000000;" x="634.350193" xlink:href="#mcd12c8ffe4" y="219.678727"/>
     <use style="stroke:#000000;" x="689.903179" xlink:href="#mcd12c8ffe4" y="238.644613"/>
    </g>
   </g>
   <g id="line2d_58">
    <path clip-path="url(#pae6f5d9ec3)" d="M 412.138247 195.590028 
L 423.972843 194.862051 
L 435.807439 194.3697 
L 447.642035 194.112976 
L 459.476631 194.091877 
L 471.311227 194.306404 
L 483.145823 194.756557 
L 494.980419 195.442337 
L 506.815016 196.363742 
L 518.649612 197.520774 
L 530.484208 198.913431 
L 542.318804 200.541714 
L 554.1534 202.405624 
L 565.987996 204.505159 
L 577.822592 206.840321 
L 589.657188 209.411108 
L 601.491784 212.217522 
L 613.326381 215.259561 
L 625.160977 218.537227 
L 636.995573 222.050519 
L 648.830169 225.799436 
L 660.664765 229.78398 
L 672.499361 234.00415 
L 684.333957 238.459945 
L 689.903179 240.638322 
L 689.903179 240.638322 
" style="fill:none;stroke:#fc8c59;stroke-linecap:square;stroke-width:2;"/>
   </g>
   <g id="line2d_59">
    <path clip-path="url(#pae6f5d9ec3)" d="M 454.619043 302.2 
L 454.619043 31.8 
" style="fill:none;stroke:#fc8c59;stroke-dasharray:9.25,4;stroke-dashoffset:0;stroke-opacity:0.9;stroke-width:2.5;"/>
   </g>
   <g id="line2d_60">
    <g clip-path="url(#pae6f5d9ec3)">
     <use style="stroke:#000000;" x="412.138247" xlink:href="#mcd12c8ffe4" y="213.751751"/>
     <use style="stroke:#000000;" x="467.691233" xlink:href="#mcd12c8ffe4" y="212.230372"/>
     <use style="stroke:#000000;" x="523.24422" xlink:href="#mcd12c8ffe4" y="215.629537"/>
     <use style="stroke:#000000;" x="578.797206" xlink:href="#mcd12c8ffe4" y="227.153016"/>
     <use style="stroke:#000000;" x="634.350193" xlink:href="#mcd12c8ffe4" y="239.966675"/>
     <use style="stroke:#000000;" x="689.903179" xlink:href="#mcd12c8ffe4" y="254.146563"/>
    </g>
   </g>
   <g id="line2d_61">
    <g clip-path="url(#pae6f5d9ec3)">
     <use style="stroke:#000000;" x="412.138247" xlink:href="#mcd12c8ffe4" y="211.152351"/>
     <use style="stroke:#000000;" x="467.691233" xlink:href="#mcd12c8ffe4" y="209.44055"/>
     <use style="stroke:#000000;" x="523.24422" xlink:href="#mcd12c8ffe4" y="212.855532"/>
     <use style="stroke:#000000;" x="578.797206" xlink:href="#mcd12c8ffe4" y="224.359512"/>
     <use style="stroke:#000000;" x="634.350193" xlink:href="#mcd12c8ffe4" y="236.99169"/>
     <use style="stroke:#000000;" x="689.903179" xlink:href="#mcd12c8ffe4" y="251.324355"/>
    </g>
   </g>
   <g id="line2d_62">
    <path clip-path="url(#pae6f5d9ec3)" d="M 412.138247 211.678363 
L 424.668995 211.316927 
L 437.199744 211.169201 
L 449.730493 211.235186 
L 462.261242 211.514881 
L 474.791991 212.008286 
L 487.32274 212.715401 
L 499.853488 213.636227 
L 512.384237 214.770764 
L 524.914986 216.11901 
L 537.445735 217.680967 
L 549.976484 219.456634 
L 562.507233 221.446012 
L 575.037981 223.6491 
L 588.264883 226.206431 
L 601.491784 229.001878 
L 614.718686 232.03544 
L 627.945588 235.307118 
L 641.172489 238.816911 
L 654.399391 242.56482 
L 667.626292 246.550844 
L 680.853194 250.774984 
L 689.903179 253.802381 
L 689.903179 253.802381 
" style="fill:none;stroke:#e7533a;stroke-linecap:square;stroke-width:2;"/>
   </g>
   <g id="line2d_63">
    <path clip-path="url(#pae6f5d9ec3)" d="M 439.596162 302.2 
L 439.596162 31.8 
" style="fill:none;stroke:#e7533a;stroke-dasharray:9.25,4;stroke-dashoffset:0;stroke-opacity:0.9;stroke-width:2.5;"/>
   </g>
   <g id="line2d_64">
    <g clip-path="url(#pae6f5d9ec3)">
     <use style="stroke:#000000;" x="412.138247" xlink:href="#mcd12c8ffe4" y="233.07556"/>
     <use style="stroke:#000000;" x="467.691233" xlink:href="#mcd12c8ffe4" y="229.333059"/>
     <use style="stroke:#000000;" x="523.24422" xlink:href="#mcd12c8ffe4" y="235.716503"/>
     <use style="stroke:#000000;" x="578.797206" xlink:href="#mcd12c8ffe4" y="244.185421"/>
     <use style="stroke:#000000;" x="634.350193" xlink:href="#mcd12c8ffe4" y="255.755172"/>
     <use style="stroke:#000000;" x="689.903179" xlink:href="#mcd12c8ffe4" y="270.537286"/>
    </g>
   </g>
   <g id="line2d_65">
    <g clip-path="url(#pae6f5d9ec3)">
     <use style="stroke:#000000;" x="412.138247" xlink:href="#mcd12c8ffe4" y="231.910055"/>
     <use style="stroke:#000000;" x="467.691233" xlink:href="#mcd12c8ffe4" y="228.088212"/>
     <use style="stroke:#000000;" x="523.24422" xlink:href="#mcd12c8ffe4" y="234.485175"/>
     <use style="stroke:#000000;" x="578.797206" xlink:href="#mcd12c8ffe4" y="242.960581"/>
     <use style="stroke:#000000;" x="634.350193" xlink:href="#mcd12c8ffe4" y="254.493144"/>
     <use style="stroke:#000000;" x="689.903179" xlink:href="#mcd12c8ffe4" y="269.240331"/>
    </g>
   </g>
   <g id="line2d_66">
    <path clip-path="url(#pae6f5d9ec3)" d="M 412.138247 231.405017 
L 425.365148 230.956352 
L 438.59205 230.739068 
L 451.818951 230.753165 
L 465.045853 230.998643 
L 478.272754 231.475501 
L 491.499656 232.18374 
L 504.726557 233.123359 
L 517.953459 234.29436 
L 531.18036 235.696741 
L 544.407262 237.330502 
L 557.634164 239.195645 
L 570.861065 241.292168 
L 584.087967 243.620072 
L 597.314868 246.179356 
L 610.54177 248.970021 
L 623.768671 251.992067 
L 636.995573 255.245494 
L 650.222474 258.730301 
L 663.449376 262.446489 
L 676.676277 266.394058 
L 689.903179 270.573007 
L 689.903179 270.573007 
" style="fill:none;stroke:#be0f0a;stroke-linecap:square;stroke-width:2;"/>
   </g>
   <g id="line2d_67">
    <path clip-path="url(#pae6f5d9ec3)" d="M 444.399659 302.2 
L 444.399659 31.8 
" style="fill:none;stroke:#be0f0a;stroke-dasharray:9.25,4;stroke-dashoffset:0;stroke-opacity:0.9;stroke-width:2.5;"/>
   </g>
   <g id="line2d_68">
    <g clip-path="url(#pae6f5d9ec3)">
     <use style="fill:#fee2bb;stroke:#000000;" x="412.138247" xlink:href="#m522b250094" y="64.064402"/>
     <use style="fill:#fee2bb;stroke:#000000;" x="467.691233" xlink:href="#m522b250094" y="52.775302"/>
     <use style="fill:#fee2bb;stroke:#000000;" x="523.24422" xlink:href="#m522b250094" y="50.438162"/>
     <use style="fill:#fee2bb;stroke:#000000;" x="578.797206" xlink:href="#m522b250094" y="52.28425"/>
     <use style="fill:#fee2bb;stroke:#000000;" x="634.350193" xlink:href="#m522b250094" y="58.03039"/>
     <use style="fill:#fee2bb;stroke:#000000;" x="689.903179" xlink:href="#m522b250094" y="63.023715"/>
    </g>
   </g>
   <g id="line2d_69">
    <g clip-path="url(#pae6f5d9ec3)">
     <use style="fill:#fdc38d;stroke:#000000;" x="412.138247" xlink:href="#mf499ce6bfb" y="165.091357"/>
     <use style="fill:#fdc38d;stroke:#000000;" x="467.691233" xlink:href="#mf499ce6bfb" y="160.457426"/>
     <use style="fill:#fdc38d;stroke:#000000;" x="523.24422" xlink:href="#mf499ce6bfb" y="166.573157"/>
     <use style="fill:#fdc38d;stroke:#000000;" x="578.797206" xlink:href="#mf499ce6bfb" y="175.324088"/>
     <use style="fill:#fdc38d;stroke:#000000;" x="634.350193" xlink:href="#mf499ce6bfb" y="191.67696"/>
     <use style="fill:#fdc38d;stroke:#000000;" x="689.903179" xlink:href="#mf499ce6bfb" y="207.413382"/>
    </g>
   </g>
   <g id="line2d_70">
    <g clip-path="url(#pae6f5d9ec3)">
     <use style="fill:#fc8c59;stroke:#000000;" x="412.138247" xlink:href="#m07812238dc" y="196.187297"/>
     <use style="fill:#fc8c59;stroke:#000000;" x="467.691233" xlink:href="#m07812238dc" y="193.696073"/>
     <use style="fill:#fc8c59;stroke:#000000;" x="523.24422" xlink:href="#m07812238dc" y="196.283885"/>
     <use style="fill:#fc8c59;stroke:#000000;" x="578.797206" xlink:href="#m07812238dc" y="209.375043"/>
     <use style="fill:#fc8c59;stroke:#000000;" x="634.350193" xlink:href="#m07812238dc" y="221.091386"/>
     <use style="fill:#fc8c59;stroke:#000000;" x="689.903179" xlink:href="#m07812238dc" y="240.148672"/>
    </g>
   </g>
   <g id="line2d_71">
    <g clip-path="url(#pae6f5d9ec3)">
     <use style="fill:#e7533a;stroke:#000000;" x="412.138247" xlink:href="#m4d671b2343" y="212.452051"/>
     <use style="fill:#e7533a;stroke:#000000;" x="467.691233" xlink:href="#m4d671b2343" y="210.835461"/>
     <use style="fill:#e7533a;stroke:#000000;" x="523.24422" xlink:href="#m4d671b2343" y="214.242535"/>
     <use style="fill:#e7533a;stroke:#000000;" x="578.797206" xlink:href="#m4d671b2343" y="225.756264"/>
     <use style="fill:#e7533a;stroke:#000000;" x="634.350193" xlink:href="#m4d671b2343" y="238.479183"/>
     <use style="fill:#e7533a;stroke:#000000;" x="689.903179" xlink:href="#m4d671b2343" y="252.735459"/>
    </g>
   </g>
   <g id="line2d_72">
    <g clip-path="url(#pae6f5d9ec3)">
     <use style="fill:#be0f0a;stroke:#000000;" x="412.138247" xlink:href="#m31e9575210" y="232.492807"/>
     <use style="fill:#be0f0a;stroke:#000000;" x="467.691233" xlink:href="#m31e9575210" y="228.710636"/>
     <use style="fill:#be0f0a;stroke:#000000;" x="523.24422" xlink:href="#m31e9575210" y="235.100839"/>
     <use style="fill:#be0f0a;stroke:#000000;" x="578.797206" xlink:href="#m31e9575210" y="243.573001"/>
     <use style="fill:#be0f0a;stroke:#000000;" x="634.350193" xlink:href="#m31e9575210" y="255.124158"/>
     <use style="fill:#be0f0a;stroke:#000000;" x="689.903179" xlink:href="#m31e9575210" y="269.888809"/>
    </g>
   </g>
   <g id="patch_8">
    <path d="M 398.25 302.2 
L 398.25 31.8 
" style="fill:none;stroke:#000000;stroke-linecap:square;stroke-linejoin:miter;stroke-width:0.8;"/>
   </g>
   <g id="patch_9">
    <path d="M 703.791426 302.2 
L 703.791426 31.8 
" style="fill:none;stroke:#000000;stroke-linecap:square;stroke-linejoin:miter;stroke-width:0.8;"/>
   </g>
   <g id="patch_10">
    <path d="M 398.25 302.2 
L 703.791426 302.2 
" style="fill:none;stroke:#000000;stroke-linecap:square;stroke-linejoin:miter;stroke-width:0.8;"/>
   </g>
   <g id="patch_11">
    <path d="M 398.25 31.8 
L 703.791426 31.8 
" style="fill:none;stroke:#000000;stroke-linecap:square;stroke-linejoin:miter;stroke-width:0.8;"/>
   </g>
   <g id="text_22">
    <!-- rU$_{30}$ -->
    <g transform="translate(532.300713 25.8)scale(0.18 -0.18)">
     <defs>
      <path d="M 556 4666 
L 1191 4666 
L 1191 1831 
Q 1191 1081 1462 751 
Q 1734 422 2344 422 
Q 2950 422 3222 751 
Q 3494 1081 3494 1831 
L 3494 4666 
L 4128 4666 
L 4128 1753 
Q 4128 841 3676 375 
Q 3225 -91 2344 -91 
Q 1459 -91 1007 375 
Q 556 841 556 1753 
L 556 4666 
z
" id="DejaVuSans-55" transform="scale(0.015625)"/>
     </defs>
     <use transform="translate(0 0.09375)" xlink:href="#DejaVuSans-72"/>
     <use transform="translate(41.113281 0.09375)" xlink:href="#DejaVuSans-55"/>
     <use transform="translate(115.263672 -16.3125)scale(0.7)" xlink:href="#DejaVuSans-33"/>
     <use transform="translate(159.799805 -16.3125)scale(0.7)" xlink:href="#DejaVuSans-30"/>
    </g>
   </g>
   <g id="legend_1">
    <g id="line2d_73">
     <path d="M 578.341426 50.78 
L 604.341426 50.78 
" style="fill:none;stroke:#fee2bb;stroke-linecap:square;stroke-width:2;"/>
    </g>
    <g id="line2d_74"/>
    <g id="text_23">
     <!-- 0 mM Mg$^{2+}$ -->
     <g transform="translate(614.741426 55.33)scale(0.13 -0.13)">
      <defs>
       <path d="M 628 4666 
L 1569 4666 
L 2759 1491 
L 3956 4666 
L 4897 4666 
L 4897 0 
L 4281 0 
L 4281 4097 
L 3078 897 
L 2444 897 
L 1241 4097 
L 1241 0 
L 628 0 
L 628 4666 
z
" id="DejaVuSans-4d" transform="scale(0.015625)"/>
       <path d="M 2944 4013 
L 2944 2272 
L 4684 2272 
L 4684 1741 
L 2944 1741 
L 2944 0 
L 2419 0 
L 2419 1741 
L 678 1741 
L 678 2272 
L 2419 2272 
L 2419 4013 
L 2944 4013 
z
" id="DejaVuSans-2b" transform="scale(0.015625)"/>
      </defs>
      <use transform="translate(0 0.765625)" xlink:href="#DejaVuSans-30"/>
      <use transform="translate(63.623047 0.765625)" xlink:href="#DejaVuSans-20"/>
      <use transform="translate(95.410156 0.765625)" xlink:href="#DejaVuSans-6d"/>
      <use transform="translate(192.822266 0.765625)" xlink:href="#DejaVuSans-4d"/>
      <use transform="translate(279.101562 0.765625)" xlink:href="#DejaVuSans-20"/>
      <use transform="translate(310.888672 0.765625)" xlink:href="#DejaVuSans-4d"/>
      <use transform="translate(397.167969 0.765625)" xlink:href="#DejaVuSans-67"/>
      <use transform="translate(461.601562 39.046875)scale(0.7)" xlink:href="#DejaVuSans-32"/>
      <use transform="translate(519.775391 39.046875)scale(0.7)" xlink:href="#DejaVuSans-2b"/>
     </g>
    </g>
    <g id="line2d_75">
     <path d="M 578.341426 71.84 
L 604.341426 71.84 
" style="fill:none;stroke:#fdc38d;stroke-linecap:square;stroke-width:2;"/>
    </g>
    <g id="line2d_76"/>
    <g id="text_24">
     <!-- 1 mM Mg$^{2+}$ -->
     <g transform="translate(614.741426 76.39)scale(0.13 -0.13)">
      <use transform="translate(0 0.765625)" xlink:href="#DejaVuSans-31"/>
      <use transform="translate(63.623047 0.765625)" xlink:href="#DejaVuSans-20"/>
      <use transform="translate(95.410156 0.765625)" xlink:href="#DejaVuSans-6d"/>
      <use transform="translate(192.822266 0.765625)" xlink:href="#DejaVuSans-4d"/>
      <use transform="translate(279.101562 0.765625)" xlink:href="#DejaVuSans-20"/>
      <use transform="translate(310.888672 0.765625)" xlink:href="#DejaVuSans-4d"/>
      <use transform="translate(397.167969 0.765625)" xlink:href="#DejaVuSans-67"/>
      <use transform="translate(461.601562 39.046875)scale(0.7)" xlink:href="#DejaVuSans-32"/>
      <use transform="translate(519.775391 39.046875)scale(0.7)" xlink:href="#DejaVuSans-2b"/>
     </g>
    </g>
    <g id="line2d_77">
     <path d="M 578.341426 92.9 
L 604.341426 92.9 
" style="fill:none;stroke:#fc8c59;stroke-linecap:square;stroke-width:2;"/>
    </g>
    <g id="line2d_78"/>
    <g id="text_25">
     <!-- 2 mM Mg$^{2+}$ -->
     <g transform="translate(614.741426 97.45)scale(0.13 -0.13)">
      <use transform="translate(0 0.765625)" xlink:href="#DejaVuSans-32"/>
      <use transform="translate(63.623047 0.765625)" xlink:href="#DejaVuSans-20"/>
      <use transform="translate(95.410156 0.765625)" xlink:href="#DejaVuSans-6d"/>
      <use transform="translate(192.822266 0.765625)" xlink:href="#DejaVuSans-4d"/>
      <use transform="translate(279.101562 0.765625)" xlink:href="#DejaVuSans-20"/>
      <use transform="translate(310.888672 0.765625)" xlink:href="#DejaVuSans-4d"/>
      <use transform="translate(397.167969 0.765625)" xlink:href="#DejaVuSans-67"/>
      <use transform="translate(461.601562 39.046875)scale(0.7)" xlink:href="#DejaVuSans-32"/>
      <use transform="translate(519.775391 39.046875)scale(0.7)" xlink:href="#DejaVuSans-2b"/>
     </g>
    </g>
    <g id="line2d_79">
     <path d="M 578.341426 113.96 
L 604.341426 113.96 
" style="fill:none;stroke:#e7533a;stroke-linecap:square;stroke-width:2;"/>
    </g>
    <g id="line2d_80"/>
    <g id="text_26">
     <!-- 3 mM Mg$^{2+}$ -->
     <g transform="translate(614.741426 118.51)scale(0.13 -0.13)">
      <use transform="translate(0 0.765625)" xlink:href="#DejaVuSans-33"/>
      <use transform="translate(63.623047 0.765625)" xlink:href="#DejaVuSans-20"/>
      <use transform="translate(95.410156 0.765625)" xlink:href="#DejaVuSans-6d"/>
      <use transform="translate(192.822266 0.765625)" xlink:href="#DejaVuSans-4d"/>
      <use transform="translate(279.101562 0.765625)" xlink:href="#DejaVuSans-20"/>
      <use transform="translate(310.888672 0.765625)" xlink:href="#DejaVuSans-4d"/>
      <use transform="translate(397.167969 0.765625)" xlink:href="#DejaVuSans-67"/>
      <use transform="translate(461.601562 39.046875)scale(0.7)" xlink:href="#DejaVuSans-32"/>
      <use transform="translate(519.775391 39.046875)scale(0.7)" xlink:href="#DejaVuSans-2b"/>
     </g>
    </g>
    <g id="line2d_81">
     <path d="M 578.341426 135.02 
L 604.341426 135.02 
" style="fill:none;stroke:#be0f0a;stroke-linecap:square;stroke-width:2;"/>
    </g>
    <g id="line2d_82"/>
    <g id="text_27">
     <!-- 5 mM Mg$^{2+}$ -->
     <g transform="translate(614.741426 139.57)scale(0.13 -0.13)">
      <defs>
       <path d="M 691 4666 
L 3169 4666 
L 3169 4134 
L 1269 4134 
L 1269 2991 
Q 1406 3038 1543 3061 
Q 1681 3084 1819 3084 
Q 2600 3084 3056 2656 
Q 3513 2228 3513 1497 
Q 3513 744 3044 326 
Q 2575 -91 1722 -91 
Q 1428 -91 1123 -41 
Q 819 9 494 109 
L 494 744 
Q 775 591 1075 516 
Q 1375 441 1709 441 
Q 2250 441 2565 725 
Q 2881 1009 2881 1497 
Q 2881 1984 2565 2268 
Q 2250 2553 1709 2553 
Q 1456 2553 1204 2497 
Q 953 2441 691 2322 
L 691 4666 
z
" id="DejaVuSans-35" transform="scale(0.015625)"/>
      </defs>
      <use transform="translate(0 0.765625)" xlink:href="#DejaVuSans-35"/>
      <use transform="translate(63.623047 0.765625)" xlink:href="#DejaVuSans-20"/>
      <use transform="translate(95.410156 0.765625)" xlink:href="#DejaVuSans-6d"/>
      <use transform="translate(192.822266 0.765625)" xlink:href="#DejaVuSans-4d"/>
      <use transform="translate(279.101562 0.765625)" xlink:href="#DejaVuSans-20"/>
      <use transform="translate(310.888672 0.765625)" xlink:href="#DejaVuSans-4d"/>
      <use transform="translate(397.167969 0.765625)" xlink:href="#DejaVuSans-67"/>
      <use transform="translate(461.601562 39.046875)scale(0.7)" xlink:href="#DejaVuSans-32"/>
      <use transform="translate(519.775391 39.046875)scale(0.7)" xlink:href="#DejaVuSans-2b"/>
     </g>
    </g>
   </g>
  </g>
 </g>
 <defs>
  <clipPath id="p7a2772c2ff">
   <rect height="270.4" width="305.541426" x="73" y="31.8"/>
  </clipPath>
  <clipPath id="pae6f5d9ec3">
   <rect height="270.4" width="305.541426" x="398.25" y="31.8"/>
  </clipPath>
 </defs>
</svg>
