<?xml version="1.0" encoding="utf-8" standalone="no"?>
<!DOCTYPE svg PUBLIC "-//W3C//DTD SVG 1.1//EN"
  "http://www.w3.org/Graphics/SVG/1.1/DTD/svg11.dtd">
<svg height="360pt" version="1.1" viewBox="0 0 360 360" width="360pt" xmlns="http://www.w3.org/2000/svg" xmlns:xlink="http://www.w3.org/1999/xlink">
 <metadata>
  <rdf:RDF xmlns:cc="http://creativecommons.org/ns#" xmlns:dc="http://purl.org/dc/elements/1.1/" xmlns:rdf="http://www.w3.org/1999/02/22-rdf-syntax-ns#">
   <cc:Work>
    <dc:type rdf:resource="http://purl.org/dc/dcmitype/StillImage"/>
    <dc:date>2026-04-25T18:39:50.121974</dc:date>
    <dc:format>image/svg+xml</dc:format>
    <dc:creator>
     <cc:Agent>
      <dc:title>Matplotlib v3.4.3, https://matplotlib.org/</dc:title>
     </cc:Agent>
    </dc:creator>
   </cc:Work>
  </rdf:RDF>
 </metadata>
 <defs>
  <style type="text/css">*{stroke-linecap:butt;stroke-linejoin:round;}</style>
 </defs>
 <g id="figure_1">
  <g id="patch_1">
   <path d="M 0 360 
L 360 360 
L 360 0 
L 0 0 
z
" style="fill:none;"/>
  </g>
  <g id="axes_1">
   <g id="patch_2">
    <path d="M 68.3 302.2 
L 342.868269 302.2 
L 342.868269 17.8 
L 68.3 17.8 
z
" style="fill:#ffffff;"/>
   </g>
   <g id="matplotlib.axis_1">
    <g id="xtick_1">
     <g id="line2d_1">
      <defs>
       <path d="M 0 0 
L 0 3.5 
" id="mb3f8a44fbc" style="stroke:#000000;stroke-width:0.8;"/>
      </defs>
      <g>
       <use style="stroke:#000000;stroke-width:0.8;" x="78.860318" xlink:href="#mb3f8a44fbc" y="302.2"/>
      </g>
     </g>
     <g id="text_1">
      <!-- 0 -->
      <g transform="translate(73.134068 322.877187)scale(0.18 -0.18)">
       <defs>
        <path d="M 2034 4250 
Q 1547 4250 1301 3770 
Q 1056 3291 1056 2328 
Q 1056 1369 1301 889 
Q 1547 409 2034 409 
Q 2525 409 2770 889 
Q 3016 1369 3016 2328 
Q 3016 3291 2770 3770 
Q 2525 4250 2034 4250 
z
M 2034 4750 
Q 2819 4750 3233 4129 
Q 3647 3509 3647 2328 
Q 3647 1150 3233 529 
Q 2819 -91 2034 -91 
Q 1250 -91 836 529 
Q 422 1150 422 2328 
Q 422 3509 836 4129 
Q 1250 4750 2034 4750 
z
" id="DejaVuSans-30" transform="scale(0.015625)"/>
       </defs>
       <use xlink:href="#DejaVuSans-30"/>
      </g>
     </g>
    </g>
    <g id="xtick_2">
     <g id="line2d_2">
      <g>
       <use style="stroke:#000000;stroke-width:0.8;" x="121.10159" xlink:href="#mb3f8a44fbc" y="302.2"/>
      </g>
     </g>
     <g id="text_2">
      <!-- 20 -->
      <g transform="translate(109.64909 322.877187)scale(0.18 -0.18)">
       <defs>
        <path d="M 1228 531 
L 3431 531 
L 3431 0 
L 469 0 
L 469 531 
Q 828 903 1448 1529 
Q 2069 2156 2228 2338 
Q 2531 2678 2651 2914 
Q 2772 3150 2772 3378 
Q 2772 3750 2511 3984 
Q 2250 4219 1831 4219 
Q 1534 4219 1204 4116 
Q 875 4013 500 3803 
L 500 4441 
Q 881 4594 1212 4672 
Q 1544 4750 1819 4750 
Q 2544 4750 2975 4387 
Q 3406 4025 3406 3419 
Q 3406 3131 3298 2873 
Q 3191 2616 2906 2266 
Q 2828 2175 2409 1742 
Q 1991 1309 1228 531 
z
" id="DejaVuSans-32" transform="scale(0.015625)"/>
       </defs>
       <use xlink:href="#DejaVuSans-32"/>
       <use x="63.623047" xlink:href="#DejaVuSans-30"/>
      </g>
     </g>
    </g>
    <g id="xtick_3">
     <g id="line2d_3">
      <g>
       <use style="stroke:#000000;stroke-width:0.8;" x="163.342862" xlink:href="#mb3f8a44fbc" y="302.2"/>
      </g>
     </g>
     <g id="text_3">
      <!-- 40 -->
      <g transform="translate(151.890362 322.877187)scale(0.18 -0.18)">
       <defs>
        <path d="M 2419 4116 
L 825 1625 
L 2419 1625 
L 2419 4116 
z
M 2253 4666 
L 3047 4666 
L 3047 1625 
L 3713 1625 
L 3713 1100 
L 3047 1100 
L 3047 0 
L 2419 0 
L 2419 1100 
L 313 1100 
L 313 1709 
L 2253 4666 
z
" id="DejaVuSans-34" transform="scale(0.015625)"/>
       </defs>
       <use xlink:href="#DejaVuSans-34"/>
       <use x="63.623047" xlink:href="#DejaVuSans-30"/>
      </g>
     </g>
    </g>
    <g id="xtick_4">
     <g id="line2d_4">
      <g>
       <use style="stroke:#000000;stroke-width:0.8;" x="205.584135" xlink:href="#mb3f8a44fbc" y="302.2"/>
      </g>
     </g>
     <g id="text_4">
      <!-- 60 -->
      <g transform="translate(194.131635 322.877187)scale(0.18 -0.18)">
       <defs>
        <path d="M 2113 2584 
Q 1688 2584 1439 2293 
Q 1191 2003 1191 1497 
Q 1191 994 1439 701 
Q 1688 409 2113 409 
Q 2538 409 2786 701 
Q 3034 994 3034 1497 
Q 3034 2003 2786 2293 
Q 2538 2584 2113 2584 
z
M 3366 4563 
L 3366 3988 
Q 3128 4100 2886 4159 
Q 2644 4219 2406 4219 
Q 1781 4219 1451 3797 
Q 1122 3375 1075 2522 
Q 1259 2794 1537 2939 
Q 1816 3084 2150 3084 
Q 2853 3084 3261 2657 
Q 3669 2231 3669 1497 
Q 3669 778 3244 343 
Q 2819 -91 2113 -91 
Q 1303 -91 875 529 
Q 447 1150 447 2328 
Q 447 3434 972 4092 
Q 1497 4750 2381 4750 
Q 2619 4750 2861 4703 
Q 3103 4656 3366 4563 
z
" id="DejaVuSans-36" transform="scale(0.015625)"/>
       </defs>
       <use xlink:href="#DejaVuSans-36"/>
       <use x="63.623047" xlink:href="#DejaVuSans-30"/>
      </g>
     </g>
    </g>
    <g id="xtick_5">
     <g id="line2d_5">
      <g>
       <use style="stroke:#000000;stroke-width:0.8;" x="247.825407" xlink:href="#mb3f8a44fbc" y="302.2"/>
      </g>
     </g>
     <g id="text_5">
      <!-- 80 -->
      <g transform="translate(236.372907 322.877187)scale(0.18 -0.18)">
       <defs>
        <path d="M 2034 2216 
Q 1584 2216 1326 1975 
Q 1069 1734 1069 1313 
Q 1069 891 1326 650 
Q 1584 409 2034 409 
Q 2484 409 2743 651 
Q 3003 894 3003 1313 
Q 3003 1734 2745 1975 
Q 2488 2216 2034 2216 
z
M 1403 2484 
Q 997 2584 770 2862 
Q 544 3141 544 3541 
Q 544 4100 942 4425 
Q 1341 4750 2034 4750 
Q 2731 4750 3128 4425 
Q 3525 4100 3525 3541 
Q 3525 3141 3298 2862 
Q 3072 2584 2669 2484 
Q 3125 2378 3379 2068 
Q 3634 1759 3634 1313 
Q 3634 634 3220 271 
Q 2806 -91 2034 -91 
Q 1263 -91 848 271 
Q 434 634 434 1313 
Q 434 1759 690 2068 
Q 947 2378 1403 2484 
z
M 1172 3481 
Q 1172 3119 1398 2916 
Q 1625 2713 2034 2713 
Q 2441 2713 2670 2916 
Q 2900 3119 2900 3481 
Q 2900 3844 2670 4047 
Q 2441 4250 2034 4250 
Q 1625 4250 1398 4047 
Q 1172 3844 1172 3481 
z
" id="DejaVuSans-38" transform="scale(0.015625)"/>
       </defs>
       <use xlink:href="#DejaVuSans-38"/>
       <use x="63.623047" xlink:href="#DejaVuSans-30"/>
      </g>
     </g>
    </g>
    <g id="xtick_6">
     <g id="line2d_6">
      <g>
       <use style="stroke:#000000;stroke-width:0.8;" x="290.066679" xlink:href="#mb3f8a44fbc" y="302.2"/>
      </g>
     </g>
     <g id="text_6">
      <!-- 100 -->
      <g transform="translate(272.887929 322.877187)scale(0.18 -0.18)">
       <defs>
        <path d="M 794 531 
L 1825 531 
L 1825 4091 
L 703 3866 
L 703 4441 
L 1819 4666 
L 2450 4666 
L 2450 531 
L 3481 531 
L 3481 0 
L 794 0 
L 794 531 
z
" id="DejaVuSans-31" transform="scale(0.015625)"/>
       </defs>
       <use xlink:href="#DejaVuSans-31"/>
       <use x="63.623047" xlink:href="#DejaVuSans-30"/>
       <use x="127.246094" xlink:href="#DejaVuSans-30"/>
      </g>
     </g>
    </g>
    <g id="xtick_7">
     <g id="line2d_7">
      <g>
       <use style="stroke:#000000;stroke-width:0.8;" x="332.307951" xlink:href="#mb3f8a44fbc" y="302.2"/>
      </g>
     </g>
     <g id="text_7">
      <!-- 120 -->
      <g transform="translate(315.129201 322.877187)scale(0.18 -0.18)">
       <use xlink:href="#DejaVuSans-31"/>
       <use x="63.623047" xlink:href="#DejaVuSans-32"/>
       <use x="127.246094" xlink:href="#DejaVuSans-30"/>
      </g>
     </g>
    </g>
    <g id="text_8">
     <!-- Temperature (°C) -->
     <g transform="translate(127.911322 344.297812)scale(0.18 -0.18)">
      <defs>
       <path d="M -19 4666 
L 3928 4666 
L 3928 4134 
L 2272 4134 
L 2272 0 
L 1638 0 
L 1638 4134 
L -19 4134 
L -19 4666 
z
" id="DejaVuSans-54" transform="scale(0.015625)"/>
       <path d="M 3597 1894 
L 3597 1613 
L 953 1613 
Q 991 1019 1311 708 
Q 1631 397 2203 397 
Q 2534 397 2845 478 
Q 3156 559 3463 722 
L 3463 178 
Q 3153 47 2828 -22 
Q 2503 -91 2169 -91 
Q 1331 -91 842 396 
Q 353 884 353 1716 
Q 353 2575 817 3079 
Q 1281 3584 2069 3584 
Q 2775 3584 3186 3129 
Q 3597 2675 3597 1894 
z
M 3022 2063 
Q 3016 2534 2758 2815 
Q 2500 3097 2075 3097 
Q 1594 3097 1305 2825 
Q 1016 2553 972 2059 
L 3022 2063 
z
" id="DejaVuSans-65" transform="scale(0.015625)"/>
       <path d="M 3328 2828 
Q 3544 3216 3844 3400 
Q 4144 3584 4550 3584 
Q 5097 3584 5394 3201 
Q 5691 2819 5691 2113 
L 5691 0 
L 5113 0 
L 5113 2094 
Q 5113 2597 4934 2840 
Q 4756 3084 4391 3084 
Q 3944 3084 3684 2787 
Q 3425 2491 3425 1978 
L 3425 0 
L 2847 0 
L 2847 2094 
Q 2847 2600 2669 2842 
Q 2491 3084 2119 3084 
Q 1678 3084 1418 2786 
Q 1159 2488 1159 1978 
L 1159 0 
L 581 0 
L 581 3500 
L 1159 3500 
L 1159 2956 
Q 1356 3278 1631 3431 
Q 1906 3584 2284 3584 
Q 2666 3584 2933 3390 
Q 3200 3197 3328 2828 
z
" id="DejaVuSans-6d" transform="scale(0.015625)"/>
       <path d="M 1159 525 
L 1159 -1331 
L 581 -1331 
L 581 3500 
L 1159 3500 
L 1159 2969 
Q 1341 3281 1617 3432 
Q 1894 3584 2278 3584 
Q 2916 3584 3314 3078 
Q 3713 2572 3713 1747 
Q 3713 922 3314 415 
Q 2916 -91 2278 -91 
Q 1894 -91 1617 61 
Q 1341 213 1159 525 
z
M 3116 1747 
Q 3116 2381 2855 2742 
Q 2594 3103 2138 3103 
Q 1681 3103 1420 2742 
Q 1159 2381 1159 1747 
Q 1159 1113 1420 752 
Q 1681 391 2138 391 
Q 2594 391 2855 752 
Q 3116 1113 3116 1747 
z
" id="DejaVuSans-70" transform="scale(0.015625)"/>
       <path d="M 2631 2963 
Q 2534 3019 2420 3045 
Q 2306 3072 2169 3072 
Q 1681 3072 1420 2755 
Q 1159 2438 1159 1844 
L 1159 0 
L 581 0 
L 581 3500 
L 1159 3500 
L 1159 2956 
Q 1341 3275 1631 3429 
Q 1922 3584 2338 3584 
Q 2397 3584 2469 3576 
Q 2541 3569 2628 3553 
L 2631 2963 
z
" id="DejaVuSans-72" transform="scale(0.015625)"/>
       <path d="M 2194 1759 
Q 1497 1759 1228 1600 
Q 959 1441 959 1056 
Q 959 750 1161 570 
Q 1363 391 1709 391 
Q 2188 391 2477 730 
Q 2766 1069 2766 1631 
L 2766 1759 
L 2194 1759 
z
M 3341 1997 
L 3341 0 
L 2766 0 
L 2766 531 
Q 2569 213 2275 61 
Q 1981 -91 1556 -91 
Q 1019 -91 701 211 
Q 384 513 384 1019 
Q 384 1609 779 1909 
Q 1175 2209 1959 2209 
L 2766 2209 
L 2766 2266 
Q 2766 2663 2505 2880 
Q 2244 3097 1772 3097 
Q 1472 3097 1187 3025 
Q 903 2953 641 2809 
L 641 3341 
Q 956 3463 1253 3523 
Q 1550 3584 1831 3584 
Q 2591 3584 2966 3190 
Q 3341 2797 3341 1997 
z
" id="DejaVuSans-61" transform="scale(0.015625)"/>
       <path d="M 1172 4494 
L 1172 3500 
L 2356 3500 
L 2356 3053 
L 1172 3053 
L 1172 1153 
Q 1172 725 1289 603 
Q 1406 481 1766 481 
L 2356 481 
L 2356 0 
L 1766 0 
Q 1100 0 847 248 
Q 594 497 594 1153 
L 594 3053 
L 172 3053 
L 172 3500 
L 594 3500 
L 594 4494 
L 1172 4494 
z
" id="DejaVuSans-74" transform="scale(0.015625)"/>
       <path d="M 544 1381 
L 544 3500 
L 1119 3500 
L 1119 1403 
Q 1119 906 1312 657 
Q 1506 409 1894 409 
Q 2359 409 2629 706 
Q 2900 1003 2900 1516 
L 2900 3500 
L 3475 3500 
L 3475 0 
L 2900 0 
L 2900 538 
Q 2691 219 2414 64 
Q 2138 -91 1772 -91 
Q 1169 -91 856 284 
Q 544 659 544 1381 
z
M 1991 3584 
L 1991 3584 
z
" id="DejaVuSans-75" transform="scale(0.015625)"/>
       <path id="DejaVuSans-20" transform="scale(0.015625)"/>
       <path d="M 1984 4856 
Q 1566 4138 1362 3434 
Q 1159 2731 1159 2009 
Q 1159 1288 1364 580 
Q 1569 -128 1984 -844 
L 1484 -844 
Q 1016 -109 783 600 
Q 550 1309 550 2009 
Q 550 2706 781 3412 
Q 1013 4119 1484 4856 
L 1984 4856 
z
" id="DejaVuSans-28" transform="scale(0.015625)"/>
       <path d="M 1600 4347 
Q 1350 4347 1178 4173 
Q 1006 4000 1006 3750 
Q 1006 3503 1178 3333 
Q 1350 3163 1600 3163 
Q 1850 3163 2022 3333 
Q 2194 3503 2194 3750 
Q 2194 3997 2020 4172 
Q 1847 4347 1600 4347 
z
M 1600 4750 
Q 1800 4750 1984 4673 
Q 2169 4597 2303 4453 
Q 2447 4313 2519 4134 
Q 2591 3956 2591 3750 
Q 2591 3338 2302 3052 
Q 2013 2766 1594 2766 
Q 1172 2766 890 3047 
Q 609 3328 609 3750 
Q 609 4169 896 4459 
Q 1184 4750 1600 4750 
z
" id="DejaVuSans-b0" transform="scale(0.015625)"/>
       <path d="M 4122 4306 
L 4122 3641 
Q 3803 3938 3442 4084 
Q 3081 4231 2675 4231 
Q 1875 4231 1450 3742 
Q 1025 3253 1025 2328 
Q 1025 1406 1450 917 
Q 1875 428 2675 428 
Q 3081 428 3442 575 
Q 3803 722 4122 1019 
L 4122 359 
Q 3791 134 3420 21 
Q 3050 -91 2638 -91 
Q 1578 -91 968 557 
Q 359 1206 359 2328 
Q 359 3453 968 4101 
Q 1578 4750 2638 4750 
Q 3056 4750 3426 4639 
Q 3797 4528 4122 4306 
z
" id="DejaVuSans-43" transform="scale(0.015625)"/>
       <path d="M 513 4856 
L 1013 4856 
Q 1481 4119 1714 3412 
Q 1947 2706 1947 2009 
Q 1947 1309 1714 600 
Q 1481 -109 1013 -844 
L 513 -844 
Q 928 -128 1133 580 
Q 1338 1288 1338 2009 
Q 1338 2731 1133 3434 
Q 928 4138 513 4856 
z
" id="DejaVuSans-29" transform="scale(0.015625)"/>
      </defs>
      <use xlink:href="#DejaVuSans-54"/>
      <use x="44.083984" xlink:href="#DejaVuSans-65"/>
      <use x="105.607422" xlink:href="#DejaVuSans-6d"/>
      <use x="203.019531" xlink:href="#DejaVuSans-70"/>
      <use x="266.496094" xlink:href="#DejaVuSans-65"/>
      <use x="328.019531" xlink:href="#DejaVuSans-72"/>
      <use x="369.132812" xlink:href="#DejaVuSans-61"/>
      <use x="430.412109" xlink:href="#DejaVuSans-74"/>
      <use x="469.621094" xlink:href="#DejaVuSans-75"/>
      <use x="533" xlink:href="#DejaVuSans-72"/>
      <use x="571.863281" xlink:href="#DejaVuSans-65"/>
      <use x="633.386719" xlink:href="#DejaVuSans-20"/>
      <use x="665.173828" xlink:href="#DejaVuSans-28"/>
      <use x="704.1875" xlink:href="#DejaVuSans-b0"/>
      <use x="754.1875" xlink:href="#DejaVuSans-43"/>
      <use x="824.011719" xlink:href="#DejaVuSans-29"/>
     </g>
    </g>
   </g>
   <g id="matplotlib.axis_2">
    <g id="ytick_1">
     <g id="line2d_8">
      <defs>
       <path d="M 0 0 
L -3.5 0 
" id="m151404741d" style="stroke:#000000;stroke-width:0.8;"/>
      </defs>
      <g>
       <use style="stroke:#000000;stroke-width:0.8;" x="68.3" xlink:href="#m151404741d" y="302.2"/>
      </g>
     </g>
     <g id="text_9">
      <!-- 0.1 -->
      <g transform="translate(32.674375 309.038594)scale(0.18 -0.18)">
       <defs>
        <path d="M 684 794 
L 1344 794 
L 1344 0 
L 684 0 
L 684 794 
z
" id="DejaVuSans-2e" transform="scale(0.015625)"/>
       </defs>
       <use xlink:href="#DejaVuSans-30"/>
       <use x="63.623047" xlink:href="#DejaVuSans-2e"/>
       <use x="95.410156" xlink:href="#DejaVuSans-31"/>
      </g>
     </g>
    </g>
    <g id="ytick_2">
     <g id="line2d_9">
      <g>
       <use style="stroke:#000000;stroke-width:0.8;" x="68.3" xlink:href="#m151404741d" y="261.571429"/>
      </g>
     </g>
     <g id="text_10">
      <!-- 0.2 -->
      <g transform="translate(32.674375 268.410022)scale(0.18 -0.18)">
       <use xlink:href="#DejaVuSans-30"/>
       <use x="63.623047" xlink:href="#DejaVuSans-2e"/>
       <use x="95.410156" xlink:href="#DejaVuSans-32"/>
      </g>
     </g>
    </g>
    <g id="ytick_3">
     <g id="line2d_10">
      <g>
       <use style="stroke:#000000;stroke-width:0.8;" x="68.3" xlink:href="#m151404741d" y="220.942857"/>
      </g>
     </g>
     <g id="text_11">
      <!-- 0.3 -->
      <g transform="translate(32.674375 227.781451)scale(0.18 -0.18)">
       <defs>
        <path d="M 2597 2516 
Q 3050 2419 3304 2112 
Q 3559 1806 3559 1356 
Q 3559 666 3084 287 
Q 2609 -91 1734 -91 
Q 1441 -91 1130 -33 
Q 819 25 488 141 
L 488 750 
Q 750 597 1062 519 
Q 1375 441 1716 441 
Q 2309 441 2620 675 
Q 2931 909 2931 1356 
Q 2931 1769 2642 2001 
Q 2353 2234 1838 2234 
L 1294 2234 
L 1294 2753 
L 1863 2753 
Q 2328 2753 2575 2939 
Q 2822 3125 2822 3475 
Q 2822 3834 2567 4026 
Q 2313 4219 1838 4219 
Q 1578 4219 1281 4162 
Q 984 4106 628 3988 
L 628 4550 
Q 988 4650 1302 4700 
Q 1616 4750 1894 4750 
Q 2613 4750 3031 4423 
Q 3450 4097 3450 3541 
Q 3450 3153 3228 2886 
Q 3006 2619 2597 2516 
z
" id="DejaVuSans-33" transform="scale(0.015625)"/>
       </defs>
       <use xlink:href="#DejaVuSans-30"/>
       <use x="63.623047" xlink:href="#DejaVuSans-2e"/>
       <use x="95.410156" xlink:href="#DejaVuSans-33"/>
      </g>
     </g>
    </g>
    <g id="ytick_4">
     <g id="line2d_11">
      <g>
       <use style="stroke:#000000;stroke-width:0.8;" x="68.3" xlink:href="#m151404741d" y="180.314286"/>
      </g>
     </g>
     <g id="text_12">
      <!-- 0.4 -->
      <g transform="translate(32.674375 187.152879)scale(0.18 -0.18)">
       <use xlink:href="#DejaVuSans-30"/>
       <use x="63.623047" xlink:href="#DejaVuSans-2e"/>
       <use x="95.410156" xlink:href="#DejaVuSans-34"/>
      </g>
     </g>
    </g>
    <g id="ytick_5">
     <g id="line2d_12">
      <g>
       <use style="stroke:#000000;stroke-width:0.8;" x="68.3" xlink:href="#m151404741d" y="139.685714"/>
      </g>
     </g>
     <g id="text_13">
      <!-- 0.5 -->
      <g transform="translate(32.674375 146.524308)scale(0.18 -0.18)">
       <defs>
        <path d="M 691 4666 
L 3169 4666 
L 3169 4134 
L 1269 4134 
L 1269 2991 
Q 1406 3038 1543 3061 
Q 1681 3084 1819 3084 
Q 2600 3084 3056 2656 
Q 3513 2228 3513 1497 
Q 3513 744 3044 326 
Q 2575 -91 1722 -91 
Q 1428 -91 1123 -41 
Q 819 9 494 109 
L 494 744 
Q 775 591 1075 516 
Q 1375 441 1709 441 
Q 2250 441 2565 725 
Q 2881 1009 2881 1497 
Q 2881 1984 2565 2268 
Q 2250 2553 1709 2553 
Q 1456 2553 1204 2497 
Q 953 2441 691 2322 
L 691 4666 
z
" id="DejaVuSans-35" transform="scale(0.015625)"/>
       </defs>
       <use xlink:href="#DejaVuSans-30"/>
       <use x="63.623047" xlink:href="#DejaVuSans-2e"/>
       <use x="95.410156" xlink:href="#DejaVuSans-35"/>
      </g>
     </g>
    </g>
    <g id="ytick_6">
     <g id="line2d_13">
      <g>
       <use style="stroke:#000000;stroke-width:0.8;" x="68.3" xlink:href="#m151404741d" y="99.057143"/>
      </g>
     </g>
     <g id="text_14">
      <!-- 0.6 -->
      <g transform="translate(32.674375 105.895737)scale(0.18 -0.18)">
       <use xlink:href="#DejaVuSans-30"/>
       <use x="63.623047" xlink:href="#DejaVuSans-2e"/>
       <use x="95.410156" xlink:href="#DejaVuSans-36"/>
      </g>
     </g>
    </g>
    <g id="ytick_7">
     <g id="line2d_14">
      <g>
       <use style="stroke:#000000;stroke-width:0.8;" x="68.3" xlink:href="#m151404741d" y="58.428571"/>
      </g>
     </g>
     <g id="text_15">
      <!-- 0.7 -->
      <g transform="translate(32.674375 65.267165)scale(0.18 -0.18)">
       <defs>
        <path d="M 525 4666 
L 3525 4666 
L 3525 4397 
L 1831 0 
L 1172 0 
L 2766 4134 
L 525 4134 
L 525 4666 
z
" id="DejaVuSans-37" transform="scale(0.015625)"/>
       </defs>
       <use xlink:href="#DejaVuSans-30"/>
       <use x="63.623047" xlink:href="#DejaVuSans-2e"/>
       <use x="95.410156" xlink:href="#DejaVuSans-37"/>
      </g>
     </g>
    </g>
    <g id="ytick_8">
     <g id="line2d_15">
      <g>
       <use style="stroke:#000000;stroke-width:0.8;" x="68.3" xlink:href="#m151404741d" y="17.8"/>
      </g>
     </g>
     <g id="text_16">
      <!-- 0.8 -->
      <g transform="translate(32.674375 24.638594)scale(0.18 -0.18)">
       <use xlink:href="#DejaVuSans-30"/>
       <use x="63.623047" xlink:href="#DejaVuSans-2e"/>
       <use x="95.410156" xlink:href="#DejaVuSans-38"/>
      </g>
     </g>
    </g>
    <g id="text_17">
     <!-- Stacking propensity -->
     <g transform="translate(24.930938 249.412188)rotate(-90)scale(0.18 -0.18)">
      <defs>
       <path d="M 3425 4513 
L 3425 3897 
Q 3066 4069 2747 4153 
Q 2428 4238 2131 4238 
Q 1616 4238 1336 4038 
Q 1056 3838 1056 3469 
Q 1056 3159 1242 3001 
Q 1428 2844 1947 2747 
L 2328 2669 
Q 3034 2534 3370 2195 
Q 3706 1856 3706 1288 
Q 3706 609 3251 259 
Q 2797 -91 1919 -91 
Q 1588 -91 1214 -16 
Q 841 59 441 206 
L 441 856 
Q 825 641 1194 531 
Q 1563 422 1919 422 
Q 2459 422 2753 634 
Q 3047 847 3047 1241 
Q 3047 1584 2836 1778 
Q 2625 1972 2144 2069 
L 1759 2144 
Q 1053 2284 737 2584 
Q 422 2884 422 3419 
Q 422 4038 858 4394 
Q 1294 4750 2059 4750 
Q 2388 4750 2728 4690 
Q 3069 4631 3425 4513 
z
" id="DejaVuSans-53" transform="scale(0.015625)"/>
       <path d="M 3122 3366 
L 3122 2828 
Q 2878 2963 2633 3030 
Q 2388 3097 2138 3097 
Q 1578 3097 1268 2742 
Q 959 2388 959 1747 
Q 959 1106 1268 751 
Q 1578 397 2138 397 
Q 2388 397 2633 464 
Q 2878 531 3122 666 
L 3122 134 
Q 2881 22 2623 -34 
Q 2366 -91 2075 -91 
Q 1284 -91 818 406 
Q 353 903 353 1747 
Q 353 2603 823 3093 
Q 1294 3584 2113 3584 
Q 2378 3584 2631 3529 
Q 2884 3475 3122 3366 
z
" id="DejaVuSans-63" transform="scale(0.015625)"/>
       <path d="M 581 4863 
L 1159 4863 
L 1159 1991 
L 2875 3500 
L 3609 3500 
L 1753 1863 
L 3688 0 
L 2938 0 
L 1159 1709 
L 1159 0 
L 581 0 
L 581 4863 
z
" id="DejaVuSans-6b" transform="scale(0.015625)"/>
       <path d="M 603 3500 
L 1178 3500 
L 1178 0 
L 603 0 
L 603 3500 
z
M 603 4863 
L 1178 4863 
L 1178 4134 
L 603 4134 
L 603 4863 
z
" id="DejaVuSans-69" transform="scale(0.015625)"/>
       <path d="M 3513 2113 
L 3513 0 
L 2938 0 
L 2938 2094 
Q 2938 2591 2744 2837 
Q 2550 3084 2163 3084 
Q 1697 3084 1428 2787 
Q 1159 2491 1159 1978 
L 1159 0 
L 581 0 
L 581 3500 
L 1159 3500 
L 1159 2956 
Q 1366 3272 1645 3428 
Q 1925 3584 2291 3584 
Q 2894 3584 3203 3211 
Q 3513 2838 3513 2113 
z
" id="DejaVuSans-6e" transform="scale(0.015625)"/>
       <path d="M 2906 1791 
Q 2906 2416 2648 2759 
Q 2391 3103 1925 3103 
Q 1463 3103 1205 2759 
Q 947 2416 947 1791 
Q 947 1169 1205 825 
Q 1463 481 1925 481 
Q 2391 481 2648 825 
Q 2906 1169 2906 1791 
z
M 3481 434 
Q 3481 -459 3084 -895 
Q 2688 -1331 1869 -1331 
Q 1566 -1331 1297 -1286 
Q 1028 -1241 775 -1147 
L 775 -588 
Q 1028 -725 1275 -790 
Q 1522 -856 1778 -856 
Q 2344 -856 2625 -561 
Q 2906 -266 2906 331 
L 2906 616 
Q 2728 306 2450 153 
Q 2172 0 1784 0 
Q 1141 0 747 490 
Q 353 981 353 1791 
Q 353 2603 747 3093 
Q 1141 3584 1784 3584 
Q 2172 3584 2450 3431 
Q 2728 3278 2906 2969 
L 2906 3500 
L 3481 3500 
L 3481 434 
z
" id="DejaVuSans-67" transform="scale(0.015625)"/>
       <path d="M 1959 3097 
Q 1497 3097 1228 2736 
Q 959 2375 959 1747 
Q 959 1119 1226 758 
Q 1494 397 1959 397 
Q 2419 397 2687 759 
Q 2956 1122 2956 1747 
Q 2956 2369 2687 2733 
Q 2419 3097 1959 3097 
z
M 1959 3584 
Q 2709 3584 3137 3096 
Q 3566 2609 3566 1747 
Q 3566 888 3137 398 
Q 2709 -91 1959 -91 
Q 1206 -91 779 398 
Q 353 888 353 1747 
Q 353 2609 779 3096 
Q 1206 3584 1959 3584 
z
" id="DejaVuSans-6f" transform="scale(0.015625)"/>
       <path d="M 2834 3397 
L 2834 2853 
Q 2591 2978 2328 3040 
Q 2066 3103 1784 3103 
Q 1356 3103 1142 2972 
Q 928 2841 928 2578 
Q 928 2378 1081 2264 
Q 1234 2150 1697 2047 
L 1894 2003 
Q 2506 1872 2764 1633 
Q 3022 1394 3022 966 
Q 3022 478 2636 193 
Q 2250 -91 1575 -91 
Q 1294 -91 989 -36 
Q 684 19 347 128 
L 347 722 
Q 666 556 975 473 
Q 1284 391 1588 391 
Q 1994 391 2212 530 
Q 2431 669 2431 922 
Q 2431 1156 2273 1281 
Q 2116 1406 1581 1522 
L 1381 1569 
Q 847 1681 609 1914 
Q 372 2147 372 2553 
Q 372 3047 722 3315 
Q 1072 3584 1716 3584 
Q 2034 3584 2315 3537 
Q 2597 3491 2834 3397 
z
" id="DejaVuSans-73" transform="scale(0.015625)"/>
       <path d="M 2059 -325 
Q 1816 -950 1584 -1140 
Q 1353 -1331 966 -1331 
L 506 -1331 
L 506 -850 
L 844 -850 
Q 1081 -850 1212 -737 
Q 1344 -625 1503 -206 
L 1606 56 
L 191 3500 
L 800 3500 
L 1894 763 
L 2988 3500 
L 3597 3500 
L 2059 -325 
z
" id="DejaVuSans-79" transform="scale(0.015625)"/>
      </defs>
      <use xlink:href="#DejaVuSans-53"/>
      <use x="63.476562" xlink:href="#DejaVuSans-74"/>
      <use x="102.685547" xlink:href="#DejaVuSans-61"/>
      <use x="163.964844" xlink:href="#DejaVuSans-63"/>
      <use x="218.945312" xlink:href="#DejaVuSans-6b"/>
      <use x="276.855469" xlink:href="#DejaVuSans-69"/>
      <use x="304.638672" xlink:href="#DejaVuSans-6e"/>
      <use x="368.017578" xlink:href="#DejaVuSans-67"/>
      <use x="431.494141" xlink:href="#DejaVuSans-20"/>
      <use x="463.28125" xlink:href="#DejaVuSans-70"/>
      <use x="526.757812" xlink:href="#DejaVuSans-72"/>
      <use x="565.621094" xlink:href="#DejaVuSans-6f"/>
      <use x="626.802734" xlink:href="#DejaVuSans-70"/>
      <use x="690.279297" xlink:href="#DejaVuSans-65"/>
      <use x="751.802734" xlink:href="#DejaVuSans-6e"/>
      <use x="815.181641" xlink:href="#DejaVuSans-73"/>
      <use x="867.28125" xlink:href="#DejaVuSans-69"/>
      <use x="895.064453" xlink:href="#DejaVuSans-74"/>
      <use x="934.273438" xlink:href="#DejaVuSans-79"/>
     </g>
    </g>
   </g>
   <g id="LineCollection_1">
    <path clip-path="url(#pc081b65d7d)" d="M 78.860318 71.205623 
L 78.860318 70.608297 
" style="fill:none;stroke:#4878d0;stroke-width:1.5;"/>
    <path clip-path="url(#pc081b65d7d)" d="M 121.10159 120.883192 
L 121.10159 120.218831 
" style="fill:none;stroke:#4878d0;stroke-width:1.5;"/>
    <path clip-path="url(#pc081b65d7d)" d="M 163.342862 175.873478 
L 163.342862 175.194513 
" style="fill:none;stroke:#4878d0;stroke-width:1.5;"/>
    <path clip-path="url(#pc081b65d7d)" d="M 205.584135 224.210659 
L 205.584135 223.571615 
" style="fill:none;stroke:#4878d0;stroke-width:1.5;"/>
    <path clip-path="url(#pc081b65d7d)" d="M 247.825407 264.695903 
L 247.825407 264.132246 
" style="fill:none;stroke:#4878d0;stroke-width:1.5;"/>
    <path clip-path="url(#pc081b65d7d)" d="M 290.066679 291.952644 
L 290.066679 291.476242 
" style="fill:none;stroke:#4878d0;stroke-width:1.5;"/>
   </g>
   <g id="LineCollection_2">
    <path clip-path="url(#pc081b65d7d)" d="M 78.860318 167.517151 
L 78.860318 166.834892 
" style="fill:none;stroke:#d65f5f;stroke-width:1.5;"/>
    <path clip-path="url(#pc081b65d7d)" d="M 121.10159 201.535153 
L 121.10159 200.866362 
" style="fill:none;stroke:#d65f5f;stroke-width:1.5;"/>
    <path clip-path="url(#pc081b65d7d)" d="M 163.342862 229.681987 
L 163.342862 229.048333 
" style="fill:none;stroke:#d65f5f;stroke-width:1.5;"/>
    <path clip-path="url(#pc081b65d7d)" d="M 205.584135 252.423402 
L 205.584135 251.828524 
" style="fill:none;stroke:#d65f5f;stroke-width:1.5;"/>
    <path clip-path="url(#pc081b65d7d)" d="M 247.825407 271.475802 
L 247.825407 270.931092 
" style="fill:none;stroke:#d65f5f;stroke-width:1.5;"/>
    <path clip-path="url(#pc081b65d7d)" d="M 290.066679 287.196528 
L 290.066679 286.699541 
" style="fill:none;stroke:#d65f5f;stroke-width:1.5;"/>
   </g>
   <g id="line2d_16">
    <defs>
     <path d="M 5 0 
L -5 -0 
" id="m90e3e8efc4" style="stroke:#4878d0;"/>
    </defs>
    <g clip-path="url(#pc081b65d7d)">
     <use style="fill:#4878d0;stroke:#4878d0;" x="78.860318" xlink:href="#m90e3e8efc4" y="71.205623"/>
     <use style="fill:#4878d0;stroke:#4878d0;" x="121.10159" xlink:href="#m90e3e8efc4" y="120.883192"/>
     <use style="fill:#4878d0;stroke:#4878d0;" x="163.342862" xlink:href="#m90e3e8efc4" y="175.873478"/>
     <use style="fill:#4878d0;stroke:#4878d0;" x="205.584135" xlink:href="#m90e3e8efc4" y="224.210659"/>
     <use style="fill:#4878d0;stroke:#4878d0;" x="247.825407" xlink:href="#m90e3e8efc4" y="264.695903"/>
     <use style="fill:#4878d0;stroke:#4878d0;" x="290.066679" xlink:href="#m90e3e8efc4" y="291.952644"/>
    </g>
   </g>
   <g id="line2d_17">
    <g clip-path="url(#pc081b65d7d)">
     <use style="fill:#4878d0;stroke:#4878d0;" x="78.860318" xlink:href="#m90e3e8efc4" y="70.608297"/>
     <use style="fill:#4878d0;stroke:#4878d0;" x="121.10159" xlink:href="#m90e3e8efc4" y="120.218831"/>
     <use style="fill:#4878d0;stroke:#4878d0;" x="163.342862" xlink:href="#m90e3e8efc4" y="175.194513"/>
     <use style="fill:#4878d0;stroke:#4878d0;" x="205.584135" xlink:href="#m90e3e8efc4" y="223.571615"/>
     <use style="fill:#4878d0;stroke:#4878d0;" x="247.825407" xlink:href="#m90e3e8efc4" y="264.132246"/>
     <use style="fill:#4878d0;stroke:#4878d0;" x="290.066679" xlink:href="#m90e3e8efc4" y="291.476242"/>
    </g>
   </g>
   <g id="line2d_18">
    <defs>
     <path d="M 5 0 
L -5 -0 
" id="m2d04ad7f05" style="stroke:#d65f5f;"/>
    </defs>
    <g clip-path="url(#pc081b65d7d)">
     <use style="fill:#d65f5f;stroke:#d65f5f;" x="78.860318" xlink:href="#m2d04ad7f05" y="167.517151"/>
     <use style="fill:#d65f5f;stroke:#d65f5f;" x="121.10159" xlink:href="#m2d04ad7f05" y="201.535153"/>
     <use style="fill:#d65f5f;stroke:#d65f5f;" x="163.342862" xlink:href="#m2d04ad7f05" y="229.681987"/>
     <use style="fill:#d65f5f;stroke:#d65f5f;" x="205.584135" xlink:href="#m2d04ad7f05" y="252.423402"/>
     <use style="fill:#d65f5f;stroke:#d65f5f;" x="247.825407" xlink:href="#m2d04ad7f05" y="271.475802"/>
     <use style="fill:#d65f5f;stroke:#d65f5f;" x="290.066679" xlink:href="#m2d04ad7f05" y="287.196528"/>
    </g>
   </g>
   <g id="line2d_19">
    <g clip-path="url(#pc081b65d7d)">
     <use style="fill:#d65f5f;stroke:#d65f5f;" x="78.860318" xlink:href="#m2d04ad7f05" y="166.834892"/>
     <use style="fill:#d65f5f;stroke:#d65f5f;" x="121.10159" xlink:href="#m2d04ad7f05" y="200.866362"/>
     <use style="fill:#d65f5f;stroke:#d65f5f;" x="163.342862" xlink:href="#m2d04ad7f05" y="229.048333"/>
     <use style="fill:#d65f5f;stroke:#d65f5f;" x="205.584135" xlink:href="#m2d04ad7f05" y="251.828524"/>
     <use style="fill:#d65f5f;stroke:#d65f5f;" x="247.825407" xlink:href="#m2d04ad7f05" y="270.931092"/>
     <use style="fill:#d65f5f;stroke:#d65f5f;" x="290.066679" xlink:href="#m2d04ad7f05" y="286.699541"/>
    </g>
   </g>
   <g id="line2d_20">
    <path clip-path="url(#pc081b65d7d)" d="M 78.860318 83.746708 
L 80.972382 85.980858 
L 83.084445 88.212674 
L 85.196509 90.44154 
L 87.308572 92.666854 
L 89.420636 94.888027 
L 91.5327 97.104482 
L 93.644763 99.315657 
L 95.756827 101.521001 
L 97.868891 103.719979 
L 99.980954 105.91207 
L 102.093018 108.096766 
L 104.205081 110.273575 
L 106.317145 112.44202 
L 108.429209 114.601637 
L 110.541272 116.751979 
L 112.653336 118.892613 
L 114.765399 121.023121 
L 116.877463 123.143101 
L 118.989527 125.252165 
L 121.10159 127.349941 
L 123.213654 129.436073 
L 125.325717 131.510216 
L 127.437781 133.572045 
L 129.549845 135.621246 
L 131.661908 137.657522 
L 133.773972 139.680588 
L 135.886036 141.690176 
L 137.998099 143.68603 
L 140.110163 145.667909 
L 142.222226 147.635586 
L 144.33429 149.588847 
L 146.446354 151.527491 
L 148.558417 153.45133 
L 150.670481 155.36019 
L 152.782544 157.253907 
L 154.894608 159.132333 
L 157.006672 160.995328 
L 159.118735 162.842767 
L 161.230799 164.674533 
L 163.342862 166.490524 
L 165.454926 168.290646 
L 167.56699 170.074817 
L 169.679053 171.842963 
L 171.791117 173.595024 
L 173.90318 175.330945 
L 176.015244 177.050685 
L 178.127308 178.754207 
L 180.239371 180.441488 
L 182.351435 182.112509 
L 184.463499 183.767262 
L 186.575562 185.405746 
L 188.687626 187.027967 
L 190.799689 188.63394 
L 192.911753 190.223685 
L 195.023817 191.797229 
L 197.13588 193.354608 
L 199.247944 194.895862 
L 201.360007 196.421036 
L 203.472071 197.930183 
L 205.584135 199.423361 
L 207.696198 200.900633 
L 209.808262 202.362065 
L 211.920325 203.807731 
L 214.032389 205.237707 
L 216.144453 206.652075 
L 218.256516 208.05092 
L 220.36858 209.43433 
L 222.480643 210.802399 
L 224.592707 212.155224 
L 226.704771 213.492902 
L 228.816834 214.815536 
L 230.928898 216.123232 
L 233.040962 217.416098 
L 235.153025 218.694244 
L 237.265089 219.957782 
L 239.377152 221.206827 
L 241.489216 222.441497 
L 243.60128 223.661909 
L 245.713343 224.868185 
L 247.825407 226.060446 
L 249.93747 227.238815 
L 252.049534 228.403416 
L 254.161598 229.554377 
L 256.273661 230.691823 
L 258.385725 231.815881 
L 260.497788 232.926681 
L 262.609852 234.024352 
L 264.721916 235.109023 
L 266.833979 236.180825 
L 268.946043 237.239887 
L 271.058107 238.286341 
L 273.17017 239.320319 
L 275.282234 240.34195 
L 277.394297 241.351367 
L 279.506361 242.3487 
L 281.618425 243.334081 
L 283.730488 244.30764 
L 285.842552 245.269509 
L 287.954615 246.219817 
L 290.066679 247.158694 
L 292.178743 248.08627 
L 294.290806 249.002675 
L 296.40287 249.908036 
L 298.514933 250.802481 
L 300.626997 251.686139 
L 302.739061 252.559135 
L 304.851124 253.421596 
L 306.963188 254.273646 
L 309.075251 255.115411 
L 311.187315 255.947014 
L 313.299379 256.768577 
L 315.411442 257.580223 
L 317.523506 258.382073 
L 319.63557 259.174247 
L 321.747633 259.956863 
L 323.859697 260.730041 
L 325.97176 261.493897 
L 328.083824 262.248548 
L 330.195888 262.994108 
L 332.307951 263.730693 
" style="fill:none;stroke:#4878d0;stroke-dasharray:7.4,3.2;stroke-dashoffset:0;stroke-width:2;"/>
   </g>
   <g id="line2d_21">
    <path clip-path="url(#pc081b65d7d)" d="M 78.860318 168.805262 
L 80.972382 170.014362 
L 83.084445 171.212503 
L 85.196509 172.399749 
L 87.308572 173.576161 
L 89.420636 174.741807 
L 91.5327 175.896752 
L 93.644763 177.041066 
L 95.756827 178.174817 
L 97.868891 179.298076 
L 99.980954 180.410916 
L 102.093018 181.513409 
L 104.205081 182.605629 
L 106.317145 183.687652 
L 108.429209 184.759552 
L 110.541272 185.821406 
L 112.653336 186.873292 
L 114.765399 187.915287 
L 116.877463 188.947469 
L 118.989527 189.969917 
L 121.10159 190.982711 
L 123.213654 191.985929 
L 125.325717 192.979653 
L 127.437781 193.963962 
L 129.549845 194.938936 
L 131.661908 195.904657 
L 133.773972 196.861205 
L 135.886036 197.808661 
L 137.998099 198.747106 
L 140.110163 199.676621 
L 142.222226 200.597287 
L 144.33429 201.509184 
L 146.446354 202.412394 
L 148.558417 203.306998 
L 150.670481 204.193075 
L 152.782544 205.070706 
L 154.894608 205.939971 
L 157.006672 206.800951 
L 159.118735 207.653724 
L 161.230799 208.49837 
L 163.342862 209.334968 
L 165.454926 210.163597 
L 167.56699 210.984334 
L 169.679053 211.797259 
L 171.791117 212.602448 
L 173.90318 213.399979 
L 176.015244 214.189928 
L 178.127308 214.972372 
L 180.239371 215.747386 
L 182.351435 216.515045 
L 184.463499 217.275426 
L 186.575562 218.028601 
L 188.687626 218.774645 
L 190.799689 219.513631 
L 192.911753 220.245631 
L 195.023817 220.97072 
L 197.13588 221.688967 
L 199.247944 222.400444 
L 201.360007 223.105221 
L 203.472071 223.80337 
L 205.584135 224.494959 
L 207.696198 225.180057 
L 209.808262 225.858732 
L 211.920325 226.531053 
L 214.032389 227.197086 
L 216.144453 227.856898 
L 218.256516 228.510555 
L 220.36858 229.158122 
L 222.480643 229.799665 
L 224.592707 230.435247 
L 226.704771 231.064932 
L 228.816834 231.688783 
L 230.928898 232.306862 
L 233.040962 232.919232 
L 235.153025 233.525952 
L 237.265089 234.127085 
L 239.377152 234.72269 
L 241.489216 235.312826 
L 243.60128 235.897553 
L 245.713343 236.476928 
L 247.825407 237.051009 
L 249.93747 237.619853 
L 252.049534 238.183516 
L 254.161598 238.742055 
L 256.273661 239.295525 
L 258.385725 239.84398 
L 260.497788 240.387475 
L 262.609852 240.926062 
L 264.721916 241.459796 
L 266.833979 241.988728 
L 268.946043 242.512911 
L 271.058107 243.032395 
L 273.17017 243.547231 
L 275.282234 244.05747 
L 277.394297 244.563161 
L 279.506361 245.064354 
L 281.618425 245.561096 
L 283.730488 246.053435 
L 285.842552 246.54142 
L 287.954615 247.025097 
L 290.066679 247.504513 
L 292.178743 247.979713 
L 294.290806 248.450743 
L 296.40287 248.917647 
L 298.514933 249.380471 
L 300.626997 249.839257 
L 302.739061 250.29405 
L 304.851124 250.744892 
L 306.963188 251.191825 
L 309.075251 251.634892 
L 311.187315 252.074134 
L 313.299379 252.509591 
L 315.411442 252.941304 
L 317.523506 253.369314 
L 319.63557 253.793659 
L 321.747633 254.214379 
L 323.859697 254.631513 
L 325.97176 255.045098 
L 328.083824 255.455172 
L 330.195888 255.861774 
L 332.307951 256.264938 
" style="fill:none;stroke:#d65f5f;stroke-dasharray:7.4,3.2;stroke-dashoffset:0;stroke-width:2;"/>
   </g>
   <g id="line2d_22">
    <defs>
     <path d="M 0 3 
C 0.795609 3 1.55874 2.683901 2.12132 2.12132 
C 2.683901 1.55874 3 0.795609 3 0 
C 3 -0.795609 2.683901 -1.55874 2.12132 -2.12132 
C 1.55874 -2.683901 0.795609 -3 0 -3 
C -0.795609 -3 -1.55874 -2.683901 -2.12132 -2.12132 
C -2.683901 -1.55874 -3 -0.795609 -3 0 
C -3 0.795609 -2.683901 1.55874 -2.12132 2.12132 
C -1.55874 2.683901 -0.795609 3 0 3 
z
" id="m94c9624227" style="stroke:#4878d0;"/>
    </defs>
    <g clip-path="url(#pc081b65d7d)">
     <use style="fill:#4878d0;stroke:#4878d0;" x="78.860318" xlink:href="#m94c9624227" y="70.90696"/>
     <use style="fill:#4878d0;stroke:#4878d0;" x="121.10159" xlink:href="#m94c9624227" y="120.551011"/>
     <use style="fill:#4878d0;stroke:#4878d0;" x="163.342862" xlink:href="#m94c9624227" y="175.533996"/>
     <use style="fill:#4878d0;stroke:#4878d0;" x="205.584135" xlink:href="#m94c9624227" y="223.891137"/>
     <use style="fill:#4878d0;stroke:#4878d0;" x="247.825407" xlink:href="#m94c9624227" y="264.414074"/>
     <use style="fill:#4878d0;stroke:#4878d0;" x="290.066679" xlink:href="#m94c9624227" y="291.714443"/>
    </g>
   </g>
   <g id="line2d_23">
    <defs>
     <path d="M 0 3 
C 0.795609 3 1.55874 2.683901 2.12132 2.12132 
C 2.683901 1.55874 3 0.795609 3 0 
C 3 -0.795609 2.683901 -1.55874 2.12132 -2.12132 
C 1.55874 -2.683901 0.795609 -3 0 -3 
C -0.795609 -3 -1.55874 -2.683901 -2.12132 -2.12132 
C -2.683901 -1.55874 -3 -0.795609 -3 0 
C -3 0.795609 -2.683901 1.55874 -2.12132 2.12132 
C -1.55874 2.683901 -0.795609 3 0 3 
z
" id="m380067cd02" style="stroke:#d65f5f;"/>
    </defs>
    <g clip-path="url(#pc081b65d7d)">
     <use style="fill:#d65f5f;stroke:#d65f5f;" x="78.860318" xlink:href="#m380067cd02" y="167.176021"/>
     <use style="fill:#d65f5f;stroke:#d65f5f;" x="121.10159" xlink:href="#m380067cd02" y="201.200757"/>
     <use style="fill:#d65f5f;stroke:#d65f5f;" x="163.342862" xlink:href="#m380067cd02" y="229.36516"/>
     <use style="fill:#d65f5f;stroke:#d65f5f;" x="205.584135" xlink:href="#m380067cd02" y="252.125963"/>
     <use style="fill:#d65f5f;stroke:#d65f5f;" x="247.825407" xlink:href="#m380067cd02" y="271.203447"/>
     <use style="fill:#d65f5f;stroke:#d65f5f;" x="290.066679" xlink:href="#m380067cd02" y="286.948034"/>
    </g>
   </g>
   <g id="patch_3">
    <path d="M 68.3 302.2 
L 68.3 17.8 
" style="fill:none;stroke:#000000;stroke-linecap:square;stroke-linejoin:miter;stroke-width:0.8;"/>
   </g>
   <g id="patch_4">
    <path d="M 342.868269 302.2 
L 342.868269 17.8 
" style="fill:none;stroke:#000000;stroke-linecap:square;stroke-linejoin:miter;stroke-width:0.8;"/>
   </g>
   <g id="patch_5">
    <path d="M 68.3 302.2 
L 342.868269 302.2 
" style="fill:none;stroke:#000000;stroke-linecap:square;stroke-linejoin:miter;stroke-width:0.8;"/>
   </g>
   <g id="patch_6">
    <path d="M 68.3 17.8 
L 342.868269 17.8 
" style="fill:none;stroke:#000000;stroke-linecap:square;stroke-linejoin:miter;stroke-width:0.8;"/>
   </g>
   <g id="PathCollection_1">
    <defs>
     <path d="M 0 3 
C 0.795609 3 1.55874 2.683901 2.12132 2.12132 
C 2.683901 1.55874 3 0.795609 3 0 
C 3 -0.795609 2.683901 -1.55874 2.12132 -2.12132 
C 1.55874 -2.683901 0.795609 -3 0 -3 
C -0.795609 -3 -1.55874 -2.683901 -2.12132 -2.12132 
C -2.683901 -1.55874 -3 -0.795609 -3 0 
C -3 0.795609 -2.683901 1.55874 -2.12132 2.12132 
C -1.55874 2.683901 -0.795609 3 0 3 
z
" id="m46fb7db0e5" style="stroke:#808080;"/>
    </defs>
    <g clip-path="url(#pc081b65d7d)">
     <use style="fill:#808080;stroke:#808080;" x="292.178743" xlink:href="#m46fb7db0e5" y="248.08627"/>
    </g>
   </g>
   <g id="patch_7">
    <path d="M 268.231836 153.364172 
Q 279.960105 199.755395 291.414344 245.062687 
" style="fill:none;stroke:#000000;stroke-linecap:round;"/>
    <path d="M 292.756372 238.947218 
L 291.414344 245.062687 
L 287.327186 240.319783 
" style="fill:none;stroke:#000000;stroke-linecap:round;"/>
   </g>
   <g id="text_18">
    <!-- crossover ≈ 101.0 °C -->
    <g transform="translate(190.799689 146.514842)scale(0.14 -0.14)">
     <defs>
      <path d="M 191 3500 
L 800 3500 
L 1894 563 
L 2988 3500 
L 3597 3500 
L 2284 0 
L 1503 0 
L 191 3500 
z
" id="DejaVuSans-76" transform="scale(0.015625)"/>
      <path d="M 4684 1947 
L 4684 1388 
Q 4356 1144 4076 1036 
Q 3797 928 3494 928 
Q 3150 928 2694 1113 
Q 2663 1125 2641 1134 
Q 2622 1141 2575 1159 
Q 2091 1350 1797 1350 
Q 1522 1350 1253 1231 
Q 984 1113 678 850 
L 678 1409 
Q 1006 1653 1286 1761 
Q 1566 1869 1869 1869 
Q 2213 1869 2672 1684 
Q 2706 1669 2722 1663 
Q 2741 1656 2788 1638 
Q 3272 1447 3566 1447 
Q 3834 1447 4098 1564 
Q 4363 1681 4684 1947 
z
M 4684 3163 
L 4684 2606 
Q 4356 2359 4076 2251 
Q 3797 2144 3494 2144 
Q 3150 2144 2694 2328 
Q 2663 2341 2641 2350 
Q 2622 2356 2575 2375 
Q 2091 2566 1797 2566 
Q 1522 2566 1253 2447 
Q 984 2328 678 2069 
L 678 2625 
Q 1006 2869 1286 2976 
Q 1566 3084 1869 3084 
Q 2213 3084 2672 2900 
Q 2703 2888 2719 2881 
Q 2741 2872 2788 2853 
Q 3272 2663 3566 2663 
Q 3834 2663 4098 2780 
Q 4363 2897 4684 3163 
z
" id="DejaVuSans-2248" transform="scale(0.015625)"/>
     </defs>
     <use xlink:href="#DejaVuSans-63"/>
     <use x="54.980469" xlink:href="#DejaVuSans-72"/>
     <use x="93.84375" xlink:href="#DejaVuSans-6f"/>
     <use x="155.025391" xlink:href="#DejaVuSans-73"/>
     <use x="207.125" xlink:href="#DejaVuSans-73"/>
     <use x="259.224609" xlink:href="#DejaVuSans-6f"/>
     <use x="320.40625" xlink:href="#DejaVuSans-76"/>
     <use x="379.585938" xlink:href="#DejaVuSans-65"/>
     <use x="441.109375" xlink:href="#DejaVuSans-72"/>
     <use x="482.222656" xlink:href="#DejaVuSans-20"/>
     <use x="514.009766" xlink:href="#DejaVuSans-2248"/>
     <use x="597.798828" xlink:href="#DejaVuSans-20"/>
     <use x="629.585938" xlink:href="#DejaVuSans-31"/>
     <use x="693.208984" xlink:href="#DejaVuSans-30"/>
     <use x="756.832031" xlink:href="#DejaVuSans-31"/>
     <use x="820.455078" xlink:href="#DejaVuSans-2e"/>
     <use x="852.242188" xlink:href="#DejaVuSans-30"/>
     <use x="915.865234" xlink:href="#DejaVuSans-20"/>
     <use x="947.652344" xlink:href="#DejaVuSans-b0"/>
     <use x="997.652344" xlink:href="#DejaVuSans-43"/>
    </g>
   </g>
   <g id="legend_1">
    <g id="line2d_24">
     <path d="M 250.388269 38.7575 
L 282.388269 38.7575 
" style="fill:none;stroke:#4878d0;stroke-dasharray:7.4,3.2;stroke-dashoffset:0;stroke-width:2;"/>
    </g>
    <g id="line2d_25"/>
    <g id="text_19">
     <!-- A-A -->
     <g transform="translate(295.188269 44.3575)scale(0.16 -0.16)">
      <defs>
       <path d="M 2188 4044 
L 1331 1722 
L 3047 1722 
L 2188 4044 
z
M 1831 4666 
L 2547 4666 
L 4325 0 
L 3669 0 
L 3244 1197 
L 1141 1197 
L 716 0 
L 50 0 
L 1831 4666 
z
" id="DejaVuSans-41" transform="scale(0.015625)"/>
       <path d="M 313 2009 
L 1997 2009 
L 1997 1497 
L 313 1497 
L 313 2009 
z
" id="DejaVuSans-2d" transform="scale(0.015625)"/>
      </defs>
      <use xlink:href="#DejaVuSans-41"/>
      <use x="66.158203" xlink:href="#DejaVuSans-2d"/>
      <use x="99.992188" xlink:href="#DejaVuSans-41"/>
     </g>
    </g>
    <g id="line2d_26">
     <path d="M 250.388269 62.2425 
L 282.388269 62.2425 
" style="fill:none;stroke:#d65f5f;stroke-dasharray:7.4,3.2;stroke-dashoffset:0;stroke-width:2;"/>
    </g>
    <g id="line2d_27"/>
    <g id="text_20">
     <!-- U-U -->
     <g transform="translate(295.188269 67.8425)scale(0.16 -0.16)">
      <defs>
       <path d="M 556 4666 
L 1191 4666 
L 1191 1831 
Q 1191 1081 1462 751 
Q 1734 422 2344 422 
Q 2950 422 3222 751 
Q 3494 1081 3494 1831 
L 3494 4666 
L 4128 4666 
L 4128 1753 
Q 4128 841 3676 375 
Q 3225 -91 2344 -91 
Q 1459 -91 1007 375 
Q 556 841 556 1753 
L 556 4666 
z
" id="DejaVuSans-55" transform="scale(0.015625)"/>
      </defs>
      <use xlink:href="#DejaVuSans-55"/>
      <use x="73.193359" xlink:href="#DejaVuSans-2d"/>
      <use x="109.277344" xlink:href="#DejaVuSans-55"/>
     </g>
    </g>
    <g id="LineCollection_3">
     <path d="M 266.388269 93.7275 
L 266.388269 77.7275 
" style="fill:none;stroke:#4878d0;stroke-width:1.5;"/>
    </g>
    <g id="line2d_28">
     <g>
      <use style="fill:#4878d0;stroke:#4878d0;" x="266.388269" xlink:href="#m90e3e8efc4" y="93.7275"/>
     </g>
    </g>
    <g id="line2d_29">
     <g>
      <use style="fill:#4878d0;stroke:#4878d0;" x="266.388269" xlink:href="#m90e3e8efc4" y="77.7275"/>
     </g>
    </g>
    <g id="line2d_30"/>
    <g id="line2d_31">
     <g>
      <use style="fill:#4878d0;stroke:#4878d0;" x="266.388269" xlink:href="#m94c9624227" y="85.7275"/>
     </g>
    </g>
    <g id="text_21">
     <!-- rA$_{30}$ -->
     <g transform="translate(295.188269 91.3275)scale(0.16 -0.16)">
      <use transform="translate(0 0.09375)" xlink:href="#DejaVuSans-72"/>
      <use transform="translate(41.113281 0.09375)" xlink:href="#DejaVuSans-41"/>
      <use transform="translate(110.478516 -16.3125)scale(0.7)" xlink:href="#DejaVuSans-33"/>
      <use transform="translate(155.014648 -16.3125)scale(0.7)" xlink:href="#DejaVuSans-30"/>
     </g>
    </g>
    <g id="LineCollection_4">
     <path d="M 266.388269 117.2125 
L 266.388269 101.2125 
" style="fill:none;stroke:#d65f5f;stroke-width:1.5;"/>
    </g>
    <g id="line2d_32">
     <g>
      <use style="fill:#d65f5f;stroke:#d65f5f;" x="266.388269" xlink:href="#m2d04ad7f05" y="117.2125"/>
     </g>
    </g>
    <g id="line2d_33">
     <g>
      <use style="fill:#d65f5f;stroke:#d65f5f;" x="266.388269" xlink:href="#m2d04ad7f05" y="101.2125"/>
     </g>
    </g>
    <g id="line2d_34"/>
    <g id="line2d_35">
     <g>
      <use style="fill:#d65f5f;stroke:#d65f5f;" x="266.388269" xlink:href="#m380067cd02" y="109.2125"/>
     </g>
    </g>
    <g id="text_22">
     <!-- rU$_{30}$ -->
     <g transform="translate(295.188269 114.8125)scale(0.16 -0.16)">
      <use transform="translate(0 0.09375)" xlink:href="#DejaVuSans-72"/>
      <use transform="translate(41.113281 0.09375)" xlink:href="#DejaVuSans-55"/>
      <use transform="translate(115.263672 -16.3125)scale(0.7)" xlink:href="#DejaVuSans-33"/>
      <use transform="translate(159.799805 -16.3125)scale(0.7)" xlink:href="#DejaVuSans-30"/>
     </g>
    </g>
   </g>
  </g>
 </g>
 <defs>
  <clipPath id="pc081b65d7d">
   <rect height="284.4" width="274.568269" x="68.3" y="17.8"/>
  </clipPath>
 </defs>
</svg>
